<svg id="visual" viewBox="0 0 2000 540" width="2000" height="540" xmlns="http://www.w3.org/2000/svg" xmlns:xlink="http://www.w3.org/1999/xlink" version="1.1"><path d="M0 174L286 155L571 214L857 164L1143 135L1429 180L1714 165L2000 209L2000 0L1714 0L1429 0L1143 0L857 0L571 0L286 0L0 0Z" fill="#ff3d3d"></path><path d="M0 183L286 182L571 158L857 176L1143 167L1429 123L1714 116L2000 149L2000 0L1714 0L1429 0L1143 0L857 0L571 0L286 0L0 0Z" fill="#cb2a30"></path><path d="M0 145L286 122L571 108L857 105L1143 93L1429 102L1714 106L2000 78L2000 0L1714 0L1429 0L1143 0L857 0L571 0L286 0L0 0Z" fill="#991923"></path><path d="M0 54L286 60L571 73L857 63L1143 52L1429 52L1714 99L2000 82L2000 0L1714 0L1429 0L1143 0L857 0L571 0L286 0L0 0Z" fill="#690916"></path><path d="M0 45L286 51L571 43L857 53L1143 52L1429 48L1714 33L2000 42L2000 0L1714 0L1429 0L1143 0L857 0L571 0L286 0L0 0Z" fill="#3e0000"></path></svg>