<svg id="visual" viewBox="0 0 960 540" width="960" height="540" xmlns="http://www.w3.org/2000/svg" xmlns:xlink="http://www.w3.org/1999/xlink" version="1.1"><rect x="0" y="0" width="960" height="540" fill="#ffffff"></rect><path d="M0 389L32 396.7C64 404.3 128 419.7 192 417.5C256 415.3 320 395.7 384 391.3C448 387 512 398 576 395C640 392 704 375 768 370.7C832 366.3 896 374.7 928 378.8L960 383L960 541L928 541C896 541 832 541 768 541C704 541 640 541 576 541C512 541 448 541 384 541C320 541 256 541 192 541C128 541 64 541 32 541L0 541Z" fill="#ff4141"></path><path d="M0 421L32 422.8C64 424.7 128 428.3 192 427.3C256 426.3 320 420.7 384 420.3C448 420 512 425 576 425.3C640 425.7 704 421.3 768 416.7C832 412 896 407 928 404.5L960 402L960 541L928 541C896 541 832 541 768 541C704 541 640 541 576 541C512 541 448 541 384 541C320 541 256 541 192 541C128 541 64 541 32 541L0 541Z" fill="#f63e3e"></path><path d="M0 436L32 435.3C64 434.7 128 433.3 192 439.2C256 445 320 458 384 457.7C448 457.3 512 443.7 576 435.3C640 427 704 424 768 422.5C832 421 896 421 928 421L960 421L960 541L928 541C896 541 832 541 768 541C704 541 640 541 576 541C512 541 448 541 384 541C320 541 256 541 192 541C128 541 64 541 32 541L0 541Z" fill="#ed3b3b"></path><path d="M0 488L32 481.7C64 475.3 128 462.7 192 456.5C256 450.3 320 450.7 384 455.2C448 459.7 512 468.3 576 471C640 473.7 704 470.3 768 468.3C832 466.3 896 465.7 928 465.3L960 465L960 541L928 541C896 541 832 541 768 541C704 541 640 541 576 541C512 541 448 541 384 541C320 541 256 541 192 541C128 541 64 541 32 541L0 541Z" fill="#e43838"></path><path d="M0 515L32 510.2C64 505.3 128 495.7 192 491C256 486.3 320 486.7 384 487.5C448 488.3 512 489.7 576 492.7C640 495.7 704 500.3 768 501.2C832 502 896 499 928 497.5L960 496L960 541L928 541C896 541 832 541 768 541C704 541 640 541 576 541C512 541 448 541 384 541C320 541 256 541 192 541C128 541 64 541 32 541L0 541Z" fill="#db3535"></path></svg>