<?xml version="1.0" encoding="UTF-8" standalone="no"?>
<svg
   height="448pt"
   viewBox="-24 0 448 448.11987"
   width="448pt"
   version="1.1"
   id="svg9"
   sodipodi:docname="025-profit.svg"
   inkscape:version="1.1 (c68e22c387, 2021-05-23)"
   xmlns:inkscape="http://www.inkscape.org/namespaces/inkscape"
   xmlns:sodipodi="http://sodipodi.sourceforge.net/DTD/sodipodi-0.dtd"
   xmlns="http://www.w3.org/2000/svg"
   xmlns:svg="http://www.w3.org/2000/svg">
  <defs
     id="defs13" />
  <sodipodi:namedview
     id="namedview11"
     pagecolor="#ffffff"
     bordercolor="#666666"
     borderopacity="1.0"
     inkscape:pageshadow="2"
     inkscape:pageopacity="0.0"
     inkscape:pagecheckerboard="0"
     inkscape:document-units="pt"
     showgrid="false"
     inkscape:zoom="0.43526786"
     inkscape:cx="113.72308"
     inkscape:cy="233.18974"
     inkscape:window-width="1366"
     inkscape:window-height="705"
     inkscape:window-x="-8"
     inkscape:window-y="-8"
     inkscape:window-maximized="1"
     inkscape:current-layer="svg9" />
  <linearGradient
     id="a"
     gradientUnits="userSpaceOnUse"
     x1="4.4039669"
     x2="135.96484"
     y1="447.77588"
     y2="180.90234">
    <stop
       offset="0"
       stop-color="#41dfd0"
       id="stop2"
       style="stop-color:#4304fa;stop-opacity:1" />
    <stop
       offset="1"
       stop-color="#ee83ef"
       id="stop4"
       style="stop-color:#c63c96;stop-opacity:1" />
  </linearGradient>
  <path
     d="m104.058594 136.121094c12.917968-.007813 24.5625-7.773438 29.53125-19.695313 11.613281 8.167969 18.511718 21.492188 18.46875 35.695313h16c.066406-22.4375-12.511719-43-32.519532-53.160156-2.765624-16.75-18.144531-28.410157-35.019531-26.554688-16.871093 1.859375-29.347656 16.585938-28.40625 33.535156.941407 16.949219 14.972657 30.203125 31.945313 30.179688zm0-48c8.839844 0 16 7.164062 16 16 0 8.835937-7.160156 16-16 16-8.835938 0-16-7.164063-16-16 0-8.835938 7.164062-16 16-16zm-104.0000002 120c-.0195313 15.21875 10.6835942 28.351562 25.5976562 31.394531 14.914062 3.046875 29.910156-4.832031 35.859375-18.84375s1.203125-30.273437-11.34375-38.886719l2.3125-4.617187c5.1875-10.476563 15.886719-17.089844 27.574219-17.046875v-16c-17.753906-.058594-34 9.980468-41.886719 25.886718l-3.199219 6.398438c-.976562-.078125-1.921875-.285156-2.914062-.285156-17.671875 0-32.0000002 14.324218-32.0000002 32zm48.0000002 0c0 8.835937-7.160156 16-16 16-8.835938 0-16-7.164063-16-16 0-8.835938 7.164062-16 16-16 8.839844 0 16 7.164062 16 16zm294.625-43.273438c-11.382813-7.597656-25.640625-9.507812-38.625-5.167968l-2.535156.847656 5.054687 15.199218 2.539063-.839843c9.398437-3.152344 19.765624-1.175781 27.34375 5.21875-2.074219 15.964843 8.019531 30.988281 23.582031 35.105469 15.566406 4.117187 31.769531-3.949219 37.863281-18.851563 6.09375-14.898437.183594-32.007813-13.804688-39.976563-13.988281-7.96875-31.71875-4.320312-41.425781 8.519532zm41.375 19.273438c0 8.835937-7.160156 16-16 16-8.835938 0-16-7.164063-16-16 0-8.835938 7.164062-16 16-16 8.839844 0 16 7.164062 16 16zm-200-72h16v40h-16zm16-49.136719c15.605468-4.027344 25.777344-19.03125 23.746094-35.015625-2.03125-15.988281-15.628907-27.96875-31.746094-27.96875-16.113282 0-29.714844 11.980469-31.742188 27.96875-2.03125 15.984375 8.140625 30.988281 23.742188 35.015625v33.136719h16zm-24-30.863281c0-8.835938 7.164062-16 16-16 8.839844 0 16 7.164062 16 16 0 8.835937-7.160156 16-16 16-8.835938 0-16-7.164063-16-16zm65.464844 107.871094 4.6875-1.167969c9.261718 12.65625 26.351562 16.695312 40.300781 9.527343 13.949219-7.167968 20.613281-23.417968 15.710937-38.3125-4.898437-14.898437-19.90625-24.019531-35.386718-21.511718-15.480469 2.511718-26.835938 15.910156-26.777344 31.59375.054687 1.226562.175781 2.449218.371094 3.664062l-2.785157.695313c-12.695312 3.148437-21.605469 14.558593-21.585937 27.640625h16c-.003906-5.738282 3.898437-10.738282 9.464844-12.128906zm30.535156-35.871094c8.839844 0 16 7.164062 16 16 0 8.835937-7.160156 16-16 16-8.835938 0-16-7.164063-16-16 0-8.835938 7.164062-16 16-16zm-272.0000002 336c0 4.417968 3.5820312 8 8.0000002 8h48c4.417968 0 8-3.582032 8-8v-6.023438l62.265625 13.839844c.570312.121094 1.152343.179688 1.734375.183594h152c17.675781 0 32-14.328125 32-32 0-17.675782-14.324219-32-32-32h-6.496094c14.28125-12.328125 22.492188-30.257813 22.496094-49.121094v-22.230469c.019531-17.304687-3.285156-34.449219-9.726563-50.503906l-6.273437-15.691406v-28.054688l14.65625-21.984375c1.792968-2.6875 1.792968-6.191406 0-8.878906-4.976563-7.46875-12.890625-12.46875-21.769532-13.761719-8.878906-1.292969-17.890624 1.246094-24.789062 6.984375l-3.9375-3.941406c-11.164062-11.078125-28.75-12.324219-41.367188-2.9375l-10.792968 8.121094-10.789063-8.097656c-12.617187-9.386719-30.203125-8.140626-41.371093 2.9375l-3.933594 3.941406c-6.898438-5.738282-15.910156-8.277344-24.789063-6.984375-8.882812 1.292969-16.792969 6.296875-21.773437 13.761719-1.792969 2.6875-1.792969 6.191406 0 8.878906l14.65625 21.960937v28l-6.269532 15.6875c-6.449218 16.074219-9.753906 33.238281-9.730468 50.5625v21.351563l-2.664063 2h-77.335937c-4.417969 0-8.0000002 3.582031-8.0000002 8zm114.1367182-250.457032c4.667969-.480468 9.304688 1.179688 12.609376 4.511719l3.597656 3.601563c3.125 3.121094 8.191406 3.121094 11.3125 0l9.546875-9.496094c5.519531-5.472656 14.207031-6.089844 20.445312-1.457031l15.554688 11.695312c2.84375 2.132813 6.753906 2.132813 9.597656 0l15.59375-11.695312c6.234375-4.644531 14.929687-4.023438 20.445313 1.457031l9.503906 9.496094c3.125 3.121094 8.191406 3.121094 11.3125 0l3.609375-3.601563c5.5625-5.570312 14.402343-6.136719 20.632812-1.320312l-10.175781 15.265625h-151.441406l-10.175782-15.265625c2.324219-1.796875 5.109376-2.902344 8.03125-3.191407zm149.863282 34.457032v16h-144v-16zm-160 88.648437c-.011719-15.269531 2.902344-30.398437 8.585937-44.570312l4.800781-12.078125h149.199219l4.800781 12.078125c5.691407 14.167969 8.617188 29.296875 8.613282 44.570312v22.230469c-.03125 21.8125-14.429688 40.996094-35.367188 47.121094 2.1875-4.347656 3.339844-9.136719 3.367188-14 0-17.675782-14.324219-32-32-32h-5.335938l-23.460937-17.601563c-2.015625-1.511719-3.203125-3.882812-3.203125-6.398437v-1.378906c.007812-2.117188.851562-4.148438 2.34375-5.65625 3.164062-3.03125 8.152344-3.03125 11.3125 0l4.6875 4.691406 11.3125-11.3125-4.679688-4.6875c-2.53125-2.476563-5.605468-4.328125-8.976562-5.417969v-16.238281h-16v16.238281c-3.367188 1.082031-6.4375 2.9375-8.964844 5.417969-4.519531 4.488281-7.050781 10.597656-7.035156 16.964844v1.378906c.015625 7.550781 3.566406 14.65625 9.601562 19.199218l6.398438 4.800782h-29.335938l-5.863281-4.402344c-12.878906-9.5625-29.675781-12.089844-44.800781-6.742188zm-40 39.351563h24c1.730468 0 3.417968-.5625 4.800781-1.601563l8-6c11.398437-8.472656 27.003906-8.472656 38.402344 0l8 6c1.382812 1.039063 3.066406 1.601563 4.796875 1.601563h64c8.839844 0 16 7.164062 16 16 0 8.835937-7.160156 16-16 16h-32v16h96c8.839844 0 16 7.164062 16 16 0 8.835937-7.160156 16-16 16h-151.117188l-64.882812-14.402344zm-48 0h32v80h-32zm0 0"
     fill="url(#a)"
     id="path7"
     style="fill:url(#a)" />
</svg>
