<svg xmlns="http://www.w3.org/2000/svg" version="1.1" xmlns:xlink="http://www.w3.org/1999/xlink" xmlns:svgjs="http://svgjs.com/svgjs" width="413" height="200" preserveAspectRatio="none" viewBox="0 0 413 200"><g mask="url(&quot;#SvgjsMask1198&quot;)" fill="none"><rect width="413" height="200" x="0" y="0" fill="url(#SvgjsLinearGradient1199)"></rect><path d="M86.4 221.94C131.36 209.27 143.02 86 211.8 83.4 280.58 80.8 274.5 108.4 337.2 108.4 399.9 108.4 430.63 83.52 462.6 83.4" stroke="rgba(51,121,194,0.58)" stroke-width="2"></path><path d="M125.95 211.13C177.93 206.96 214.17 102.65 304.03 102.54 393.89 102.43 435.14 161.74 482.11 162.54" stroke="rgba(51,121,194,0.58)" stroke-width="2"></path><path d="M29.25 210.62C84.74 208.28 118.85 120.75 230.16 115.85 341.48 110.95 375.25 20.42 431.08 17.85" stroke="rgba(51,121,194,0.58)" stroke-width="2"></path><path d="M210.37 209.73C261.69 191.44 274.71 39.77 345.55 38.78 416.38 37.79 440.82 121.24 480.72 124.78" stroke="rgba(51,121,194,0.58)" stroke-width="2"></path><path d="M123.36 207.89C170.37 202.53 188.95 104.64 277.77 98.47 366.6 92.3 390.03 31.95 432.19 30.47" stroke="rgba(51,121,194,0.58)" stroke-width="2"></path></g><defs><mask id="SvgjsMask1198"><rect width="413" height="200" fill="#ffffff"></rect></mask><linearGradient x1="87.11%" y1="-26.63%" x2="12.89%" y2="126.63%" gradientUnits="userSpaceOnUse" id="SvgjsLinearGradient1199"><stop stop-color="rgba(67, 4, 250, 1)" offset="0"></stop><stop stop-color="rgba(198, 60, 150, 1)" offset="1"></stop></linearGradient></defs></svg>