<?xml version="1.0" encoding="UTF-8" standalone="no"?>
<svg
   height="480pt"
   viewBox="0 0 480 480"
   width="480pt"
   version="1.1"
   id="svg9"
   sodipodi:docname="pending-withdrawal.svg"
   inkscape:version="1.1 (c68e22c387, 2021-05-23)"
   xmlns:inkscape="http://www.inkscape.org/namespaces/inkscape"
   xmlns:sodipodi="http://sodipodi.sourceforge.net/DTD/sodipodi-0.dtd"
   xmlns="http://www.w3.org/2000/svg"
   xmlns:svg="http://www.w3.org/2000/svg">
  <defs
     id="defs13" />
  <sodipodi:namedview
     id="namedview11"
     pagecolor="#ffffff"
     bordercolor="#666666"
     borderopacity="1.0"
     inkscape:pageshadow="2"
     inkscape:pageopacity="0.0"
     inkscape:pagecheckerboard="0"
     inkscape:document-units="pt"
     showgrid="false"
     inkscape:zoom="0.8125"
     inkscape:cx="319.38462"
     inkscape:cy="419.07692"
     inkscape:window-width="1366"
     inkscape:window-height="705"
     inkscape:window-x="-8"
     inkscape:window-y="-8"
     inkscape:window-maximized="1"
     inkscape:current-layer="svg9" />
  <linearGradient
     id="a"
     gradientUnits="userSpaceOnUse"
     x1="42.344"
     x2="429.656"
     y1="517.656"
     y2="130.344">
    <stop
       offset="0"
       stop-color="#41dfd0"
       id="stop2"
       style="stop-color:#4304fa;stop-opacity:1" />
    <stop
       offset="1"
       stop-color="#ee83ef"
       id="stop4"
       style="stop-color:#c63c96;stop-opacity:1" />
  </linearGradient>
  <path
     d="m179.199219 318.398438c1.386719 1.039062 3.070312 1.601562 4.800781 1.601562.742188 0 1.480469-.101562 2.191406-.304688l112-32c3.4375-.980468 5.808594-4.121093 5.808594-7.695312v-44l60.800781-45.601562c.128907-.09375.175781-.261719.304688-.367188.628906-.535156 1.167969-1.171875 1.597656-1.878906.195313-.257813.371094-.523438.535156-.800782.5-1.046874.757813-2.191406.761719-3.351562v-48c0-4.417969-3.582031-8-8-8h-8v-40c0-4.417969-3.582031-8-8-8s-8 3.582031-8 8v20.449219c-8.597656-5.117188-19.113281-5.863281-28.347656-2.011719-9.238282 3.855469-16.105469 11.851562-18.515625 21.5625h-89.34375c5.292969-6.882812 8.175781-15.316406 8.207031-24-.023438-19-13.386719-35.371094-32-39.199219v-24.800781c0-4.417969-3.582031-8-8-8s-8 3.582031-8 8v24.800781c-5.820312 1.234375-11.289062 3.761719-16 7.398438v-32.199219c0-4.417969-3.582031-8-8-8s-8 3.582031-8 8v56c.027344.914062.207031 1.816406.535156 2.671875-.296875 1.761719-.476562 3.542969-.535156 5.328125.03125 8.683594 2.914062 17.117188 8.207031 24h-16.207031c-4.417969 0-8 3.582031-8 8v48c.015625 1.164062.289062 2.3125.800781 3.359375.144531.296875.367188.519531.535157.800781.429687.703125.972656 1.335938 1.601562 1.871094.125.105469.175781.273438.300781.367188l60.761719 45.601562v76c0 2.519531 1.1875 4.890625 3.199219 6.398438zm108.800781-44.429688-96 27.421875v-61.390625h96zm32-153.96875c5.714844.003906 10.992188 3.050781 13.847656 8h-27.695312c2.855468-4.949219 8.132812-7.996094 13.847656-8zm-152-40c13.253906 0 24 10.746094 24 24s-10.746094 24-24 24-24-10.746094-24-24 10.746094-24 24-24zm-40 64h224v32h-224zm16 48h192l-42.664062 32h-106.671876zm328 176h-128v-24c0-4.417969-3.582031-8-8-8h-192c-4.417969 0-8 3.582031-8 8v24h-128c-4.417969 0-8 3.582031-8 8v96c0 4.417969 3.582031 8 8 8h464c4.417969 0 8-3.582031 8-8v-96c0-4.417969-3.582031-8-8-8zm-392 16c13.253906 0 24 10.746094 24 24s-10.746094 24-24 24-24-10.746094-24-24 10.746094-24 24-24zm-64 0h32.207031c-10.941406 14.128906-10.941406 33.871094 0 48h-32.207031zm120 80h-120v-16h120zm0-56v24h-24.207031c10.941406-14.128906 10.941406-33.871094 0-48h24.207031zm104-56c13.253906 0 24 10.746094 24 24s-10.746094 24-24 24-24-10.746094-24-24 10.746094-24 24-24zm-88 24v-24h56.207031c-10.941406 14.128906-10.941406 33.871094 0 48h-56.207031zm176 88h-176v-16h176zm0-32h-176v-16h176zm0-56v24h-56.207031c10.941406-14.128906 10.941406-33.871094 0-48h56.207031zm72 8c13.253906 0 24 10.746094 24 24s-10.746094 24-24 24-24-10.746094-24-24 10.746094-24 24-24zm-56 24v-24h24.207031c-10.941406 14.128906-10.941406 33.871094 0 48h-24.207031zm120 56h-120v-16h120zm0-32h-32.207031c10.941406-14.128906 10.941406-33.871094 0-48h32.207031zm-200-376v-16c0-4.417969 3.582031-8 8-8s8 3.582031 8 8v11.054688l11.574219 5.785156c3.957031 1.976562 5.5625 6.78125 3.585937 10.734375-1.976562 3.957031-6.78125 5.5625-10.734375 3.585937l-16-8c-2.714843-1.355468-4.425781-4.128906-4.425781-7.160156zm-72-8v-24c0-4.417969 3.582031-8 8-8s8 3.582031 8 8v24c0 4.417969-3.582031 8-8 8s-8-3.582031-8-8zm56-48c-4.417969 0-8 3.582031-8 8v12.320312c-10.179688 9.066407-16 22.046876-16 35.679688s5.820312 26.613281 16 35.679688v20.320312c0 4.417969 3.582031 8 8 8s8-3.582031 8-8v-10.800781c19.445312 6.917969 41.132812.613281 53.839844-15.652344 12.707031-16.261719 13.578125-38.832031 2.160156-56.027344v-13.519531c0-4.417969-3.582031-8-8-8-3.855469.03125-7.125 2.847656-7.726562 6.65625-12.175782-7.238281-26.949219-8.652344-40.273438-3.855469v-2.800781c0-4.417969-3.582031-8-8-8zm24 24c17.671875 0 32 14.328125 32 32s-14.328125 32-32 32-32-14.328125-32-32 14.328125-32 32-32zm-144 296v-16h16v16zm-48 0v-16h16v16zm40-24h-16v-16h16zm240 40v-16h16v16zm16-32h-16v-16h16zm0 16v-16h16v16zm-16-16v16h-16v-16zm-256 24h16v16h-16zm0 0"
     fill="url(#a)"
     id="path7" />
</svg>
