<svg xmlns="http://www.w3.org/2000/svg" version="1.1" xmlns:xlink="http://www.w3.org/1999/xlink" xmlns:svgjs="http://svgjs.com/svgjs" width="500" height="1000" preserveAspectRatio="none" viewBox="0 0 500 1000"><g mask="url(&quot;#SvgjsMask1486&quot;)" fill="none"><rect width="500" height="1000" x="0" y="0" fill="url(#SvgjsLinearGradient1487)"></rect><path d="M143.32 1187.91C217.19 1018.27 148.86 477.44 269.76 458.7 390.66 439.96 414.97 820.14 522.64 878.7" stroke="rgba(53, 0, 176, 0.8)" stroke-width="2"></path><path d="M159 1084.91C212.95 1049.82 115.41 969.38 279.45 857.42 443.5 745.46 410.29 454.3 520.36 377.42" stroke="rgba(53, 0, 176, 0.8)" stroke-width="2"></path><path d="M269.28 1070.5C327.57 958.78 210.81 769.03 371.39 576.9 531.98 384.77 478.19 196.52 575.62 116.9" stroke="rgba(53, 0, 176, 0.8)" stroke-width="2"></path><path d="M99.06 1133.37C202.88 1080.73 134.18 859.45 347.76 739.75 561.35 620.05 486.91 356.97 596.47 289.75" stroke="rgba(53, 0, 176, 0.8)" stroke-width="2"></path><path d="M81.55 1041.61C144.74 1012.18 154.59 811.32 236.54 809.84 318.49 808.36 314.03 934.84 391.53 934.84 469.02 934.84 497.3 817.3 546.52 809.84" stroke="rgba(53, 0, 176, 0.8)" stroke-width="2"></path></g><defs><mask id="SvgjsMask1486"><rect width="500" height="1000" fill="#ffffff"></rect></mask><linearGradient x1="50%" y1="100%" x2="50%" y2="0%" gradientUnits="userSpaceOnUse" id="SvgjsLinearGradient1487"><stop stop-color="rgba(255, 15, 238, 1)" offset="0"></stop><stop stop-color="rgba(255, 255, 255, 1)" offset="1"></stop></linearGradient></defs></svg>