<?xml version="1.0" encoding="UTF-8" standalone="no"?>
<svg
   version="1.1"
   id="svg2"
   xml:space="preserve"
   width="500"
   height="400"
   viewBox="0 0 500 400"
   sodipodi:docname="refer-a-friend.svg"
   inkscape:version="1.1 (c68e22c387, 2021-05-23)"
   xmlns:inkscape="http://www.inkscape.org/namespaces/inkscape"
   xmlns:sodipodi="http://sodipodi.sourceforge.net/DTD/sodipodi-0.dtd"
   xmlns="http://www.w3.org/2000/svg"
   xmlns:svg="http://www.w3.org/2000/svg"
   xmlns:rdf="http://www.w3.org/1999/02/22-rdf-syntax-ns#"
   xmlns:cc="http://creativecommons.org/ns#"
   xmlns:dc="http://purl.org/dc/elements/1.1/"><metadata
     id="metadata8"><rdf:RDF><cc:Work
         rdf:about=""><dc:format>image/svg+xml</dc:format><dc:type
           rdf:resource="http://purl.org/dc/dcmitype/StillImage" /></cc:Work></rdf:RDF></metadata><defs
     id="defs6"><clipPath
       clipPathUnits="userSpaceOnUse"
       id="clipPath326"><path
         d="m 3393.84,1691.82 c 0,-288.06 -202.23,-404.81 -451.71,-260.77 -249.47,144.02 -451.71,494.3 -451.71,782.36 0,288.06 202.24,404.82 451.71,260.78 249.48,-144.03 451.71,-494.31 451.71,-782.37"
         id="path324" /></clipPath></defs><sodipodi:namedview
     pagecolor="#ffffff"
     bordercolor="#666666"
     borderopacity="1"
     objecttolerance="10"
     gridtolerance="10"
     guidetolerance="10"
     inkscape:pageopacity="0"
     inkscape:pageshadow="2"
     inkscape:window-width="1366"
     inkscape:window-height="715"
     id="namedview4"
     inkscape:pagecheckerboard="0"
     showgrid="false"
     inkscape:zoom="0.865"
     inkscape:cx="146.24277"
     inkscape:cy="267.63006"
     inkscape:window-x="-8"
     inkscape:window-y="-8"
     inkscape:window-maximized="1"
     inkscape:current-layer="g12"
     width="500px" /><g
     id="g10"
     inkscape:groupmode="layer"
     inkscape:label="ink_ext_XXXXXX"
     transform="matrix(1.3333333,0,0,-1.3333333,1292.1926,423.73456)"><g
       id="g12"
       transform="matrix(0.1,0,0,0.1,50.192309,-20.769231)"><g
         id="g1071"
         transform="translate(15,-15)"><path
           d="m -8888.5976,512.85551 c -11.2349,0 -21.9599,2.26909 -29.982,6.88711 l -415.1214,239.68289 c -17.6987,10.2162 -15.4864,28.0592 4.9441,39.85 11.1771,6.45522 25.49,9.76604 39.0526,9.76604 11.2348,0 21.9695,-2.2739 29.982,-6.89865 l 415.1214,-239.67135 c 17.6987,-10.22774 15.4863,-28.06016 -4.9441,-39.86251 -11.1772,-6.45522 -25.49,-9.75353 -39.0526,-9.75353"
           style="fill:#899abf;fill-opacity:1;fill-rule:nonzero;stroke:none;stroke-width:0.961887"
           id="path14" /><path
           d="m -6926.6184,2062.3489 c -46.488,0 -92.9663,10.2441 -128.4407,30.7227 -70.9295,40.9475 -70.9295,107.3465 -0.01,148.2941 35.4647,20.4785 81.9527,30.713 128.4311,30.713 46.488,0 92.9663,-10.2345 128.4311,-30.713 70.9295,-40.9572 70.9391,-107.3466 0.01,-148.3037 -35.4552,-20.469 -81.9431,-30.7131 -128.4215,-30.7131"
           style="fill:#899abf;fill-opacity:1;fill-rule:nonzero;stroke:none;stroke-width:0.961887"
           id="path16" /><path
           d="m -6915.9703,2222.4646 c -2.0296,-5.0595 -36.9653,-47.6038 -71.901,-58.2422 -15.1978,-4.6171 -25.4131,-5.2231 -32.0982,-4.4247 -6.7236,0.7983 -10.8693,7.7239 -8.6089,14.0916 6.0118,16.9292 23.2488,52.1824 67.0339,73.8921 59.2426,29.3761 45.5742,-25.3168 45.5742,-25.3168"
           style="fill:#263c7a;fill-opacity:1;fill-rule:nonzero;stroke:none;stroke-width:0.961887"
           id="path18" /><path
           d="m -6904.3315,2206.1221 c 0,0 -13.1586,-30.8861 -17.2081,-56.7128 -2.4721,-15.7461 6.1753,-36.215 13.2932,-49.7872 4.4151,-8.4166 15.6115,-10.3115 22.6525,-3.9149 11.4176,10.3595 25.9613,28.3564 28.366,54.2023 4.0495,43.5542 0,51.1435 0,51.1435 l -47.1036,5.0691"
           style="fill:#263c7a;fill-opacity:1;fill-rule:nonzero;stroke:none;stroke-width:0.961887"
           id="path20" /><path
           d="m -6820.1568,2732.4665 c 0,0 4.5594,-54.9238 0,-115.6958 -4.5497,-60.7527 -20.8729,-344.9325 -23.9029,-413.3034 0,0 1.5102,-20.6902 -38.5524,-16.1308 -40.0722,4.5497 -36.8402,27.5292 -36.8402,27.5292 0,0 -56.28,0.7599 -58.0403,33.9257 -1.7795,33.1755 -57.6362,396.076 -57.6362,526.5463 l 214.972,-42.8712"
           style="fill:#d9effb;fill-opacity:1;fill-rule:nonzero;stroke:none;stroke-width:0.961887"
           id="path22" /><path
           d="m -6919.4523,2214.8657 c 0,0 -6.9737,0.1058 -16.0828,1.6737 l -11.0136,441.7367 27.0964,-443.4104"
           style="fill:#4067b1;fill-opacity:1;fill-rule:nonzero;stroke:none;stroke-width:0.961887"
           id="path24" /><path
           d="m -6879.6591,3135.5739 c 90.8983,-37.6867 89.0707,-91.4177 89.0707,-91.4177 0,0 -17.8045,-197.004 -11.7254,-328.5612 2.5394,-55.0007 -292.2019,-59.1945 -248.2533,87.5316 51.8361,173.005 32.406,313.0653 56.6647,334.1787 24.2588,21.1326 90.7252,8.0125 114.2433,-1.7314"
           style="fill:#5f92d3;fill-opacity:1;fill-rule:nonzero;stroke:none;stroke-width:0.961887"
           id="path26" /><path
           d="m -6850.4177,3087.9316 c -4.7518,-18.4586 -28.9336,-28.1929 -54.0196,-21.729 -25.0667,6.4639 -41.5439,26.6539 -36.7921,45.1125 4.7517,18.4586 28.9431,28.1833 54.0195,21.7194 25.0764,-6.4543 41.5439,-26.6539 36.7922,-45.1029"
           style="fill:#fab6a9;fill-opacity:1;fill-rule:nonzero;stroke:none;stroke-width:0.961887"
           id="path28" /><path
           d="m -6902.754,3129.3312 c -6.031,0 -11.8023,-1.0388 -16.9484,-3.1069 -8.4839,-3.405 -14.159,-9.2052 -15.9962,-16.3328 -3.963,-15.3709 10.7058,-32.4925 32.6945,-38.158 10.9752,-2.828 21.9888,-2.3759 31.069,1.2889 8.4742,3.4051 14.1493,9.2052 15.9865,16.3328 1.8372,7.118 -0.3366,14.9381 -6.108,22.0176 -6.1849,7.5797 -15.621,13.3125 -26.5865,16.1308 -4.7421,1.2216 -9.4938,1.8276 -14.1109,1.8276 z m 13.8416,-70.8429 c -5.5694,0 -11.283,0.7214 -16.9485,2.1835 -28.0774,7.243 -46.4206,30.5976 -40.8994,52.0765 2.7606,10.725 10.8597,19.2762 22.7871,24.076 11.331,4.5497 24.8936,5.1654 38.1869,1.741 13.2933,-3.4147 24.8648,-10.523 32.5887,-19.9783 8.1183,-9.9652 11.0713,-21.3635 8.3107,-32.0886 -2.7606,-10.725 -10.8597,-19.2858 -22.7871,-24.076 -6.5023,-2.6163 -13.7453,-3.9341 -21.2384,-3.9341"
           style="fill:#ffffff;fill-opacity:1;fill-rule:nonzero;stroke:none;stroke-width:0.961887"
           id="path30" /><path
           d="m -6916.105,3139.6619 c 0,0 0.7792,-3.6359 -0.7887,-32.4444 -0.5002,-9.0514 31.2132,-17.516 39.3989,-9.3111 8.2048,8.1856 4.9248,16.7176 6.8871,47.5364 1.9718,30.8189 -45.4973,-5.7809 -45.4973,-5.7809"
           style="fill:#fab6a9;fill-opacity:1;fill-rule:nonzero;stroke:none;stroke-width:0.961887"
           id="path32" /><path
           d="m -6870.6077,3145.4428 c 0,0 -7.8009,-28.5776 -46.2956,-39.5335 l 0.5771,25.9709 45.7185,13.5626"
           style="fill:#eb8b8a;fill-opacity:1;fill-rule:nonzero;stroke:none;stroke-width:0.961887"
           id="path34" /><path
           d="m -6846.2239,3218.046 c 9.6766,-37.4174 -12.8123,-75.585 -50.2201,-85.2616 -37.4174,-9.667 -75.5947,12.8219 -85.2616,50.2297 -9.6766,37.4174 12.8123,75.5851 50.2297,85.2616 37.4174,9.667 75.5754,-12.8123 85.252,-50.2297"
           style="fill:#fab6a9;fill-opacity:1;fill-rule:nonzero;stroke:none;stroke-width:0.961887"
           id="path36" /><path
           d="m -6897.8965,3197.9618 c 0,0 -38.5235,-16.5059 -65.1966,-16.6887 -26.6828,-0.1924 -20.796,22.1426 -20.796,22.1426 l 79.1825,11.4465 6.8101,-16.9004"
           style="fill:#eb8b8a;fill-opacity:1;fill-rule:nonzero;stroke:none;stroke-width:0.961887"
           id="path38" /><path
           d="m -6971.0383,3193.6141 c 0,0 33.5506,14.2455 62.9939,8.3011 6.916,-1.3851 13.3318,-5.098 17.7853,-10.5615 1.4525,-1.7988 3.2993,-3.434 5.3962,-3.9053 5.2134,-1.1831 13.755,20.4786 23.9029,20.9691 10.1575,0.5002 16.9292,-6.6851 8.6089,-20.0072 -8.33,-13.3221 -5.5213,-28.2314 -1.6833,-30.3571 3.8283,-2.145 44.4295,28.9527 8.6089,99.9015 -35.8111,70.9584 -126.7959,32.7426 -140.9453,18.3624 0,0 -14.9092,-12.9855 -27.0386,-1.4332 0,0 -13.5819,-101.7965 42.3711,-81.2698"
           style="fill:#ee1696;fill-opacity:1;fill-rule:nonzero;stroke:none;stroke-width:0.961887"
           id="path40" /><path
           d="m -7038.3608,3151.6951 -48.883,21.0749 c -5.5982,2.4144 -9.9363,7.0795 -11.9274,12.8412 l -48.2579,139.8872 -22.3638,-3.886 39.0045,-174.0727 c 1.8276,-8.1279 7.0121,-15.1016 14.2744,-19.1704 l 81.3852,-45.7088 -3.232,69.0346"
           style="fill:#fab6a9;fill-opacity:1;fill-rule:nonzero;stroke:none;stroke-width:0.961887"
           id="path42" /><path
           d="m -6529.8113,3128.9465 11.2156,5.1461 c 9.5419,4.3862 18.2566,10.398 25.7401,17.7852 l 7.8009,7.7144 c 4.4054,4.3381 5.7232,10.927 3.3185,16.631 -1.8757,4.4535 -7.1276,6.3773 -11.4465,4.2034 l -23.4219,-11.8312 c 0,0 3.6648,10.3692 1.8949,13.0721 -1.7603,2.6933 -19.8822,-17.314 -28.2602,-31.5018 -8.3877,-14.1878 13.1586,-21.2192 13.1586,-21.2192"
           style="fill:#fab6a9;fill-opacity:1;fill-rule:nonzero;stroke:none;stroke-width:0.961887"
           id="path44" /><path
           d="m -6724.8819,3073.0032 41.7939,4.6651 c 9.8979,1.1062 19.459,4.2034 28.1064,9.0994 l 112.0117,63.398 13.1586,-21.2192 -114.5126,-88.407 c -3.5494,-2.7318 -7.4065,-5.0114 -11.5234,-6.7621 l -68.2844,-29.1932 -0.7502,68.419"
           style="fill:#fab6a9;fill-opacity:1;fill-rule:nonzero;stroke:none;stroke-width:0.961887"
           id="path46" /><path
           d="m -7169.7929,3321.6124 -4.2708,4.9152 c -4.9152,5.6655 -8.1087,12.6199 -9.186,20.0361 l -2.9819,20.4016 c -0.933,6.3485 1.5487,12.8027 6.7044,16.6214 l 0.5675,0.404 c 5.4154,3.7417 12.9662,1.0292 15.4864,-5.0595 l 10.0613,-24.2973 c 0,0 -3.1742,12.5911 0.8849,13.9762 2.9819,1.0292 8.6282,-14.5918 5.2808,-23.2872 -3.3281,-8.6763 -0.1828,-19.8245 -0.1828,-19.8245 l -22.3638,-3.886"
           style="fill:#fab6a9;fill-opacity:1;fill-rule:nonzero;stroke:none;stroke-width:0.961887"
           id="path48" /><path
           d="m -6941.72,3152.3492 -18.0642,4.9537 c 0,0 8.6185,-13.5626 21.2096,-17.0158 12.5911,-3.4532 14.5437,7.1949 14.5437,7.1949 l -17.6891,4.8672"
           style="fill:#ffffff;fill-opacity:1;fill-rule:nonzero;stroke:none;stroke-width:0.961887"
           id="path50" /><path
           d="m -6968.826,3147.357 c 0,0 -81.6449,16.1404 -106.577,23.7105 -24.9417,7.57 -35.3493,-60.9163 -33.4544,-78.2783 1.8949,-17.3429 86.8006,-36.7249 96.8908,-66.4856 10.0998,-29.7608 43.1406,121.0534 43.1406,121.0534"
           style="fill:#5f92d3;fill-opacity:1;fill-rule:nonzero;stroke:none;stroke-width:0.961887"
           id="path52" /><path
           d="m -6843.9731,3117.298 c 0,0 59.6754,-25.6054 159.5481,-38.0811 4.0496,-0.5001 7.5412,-3.1934 8.8782,-7.0602 3.8476,-11.0521 10.4173,-35.1954 5.2904,-60.0313 -2.1258,-10.2441 -11.3791,-17.4294 -21.8348,-17.3525 -31.2709,0.2116 -98.5453,-2.7798 -109.4723,-32.0019 -14.3033,-38.3024 -42.4096,154.527 -42.4096,154.527"
           style="fill:#5f92d3;fill-opacity:1;fill-rule:nonzero;stroke:none;stroke-width:0.961887"
           id="path54" /><path
           d="m -6879.082,3063.4709 -16.3713,-17.7757 c -2.1257,-2.2989 -3.1357,-5.425 -2.7702,-8.5416 l 11.2445,-97.2659 c 0.3174,-2.7318 -0.4425,-5.4732 -2.1066,-7.6566 l -35.205,-46.0552 c -1.5583,-2.0392 -4.771,-1.4813 -5.5501,0.9715 l -19.1704,60.3199 c -0.7214,2.2797 -0.6637,4.7421 0.1924,6.993 l 33.7237,88.3396 c 0.7407,1.9334 0.9042,4.0399 0.481,6.0695 l -4.9441,23.422 40.4761,-8.8205"
           style="fill:#ffffff;fill-opacity:1;fill-rule:nonzero;stroke:none;stroke-width:0.961887"
           id="path56" /><path
           d="m -6700.3346,3012.8852 c -17.8526,-2.0776 -61.705,-5.8578 -95.4191,-8.6666 -19.3147,-1.6063 -32.1463,-20.238 -27.2695,-38.9948 17.9777,-69.0154 -5.8098,-179.9498 -1.5294,-217.5018 5.1365,-44.9297 -22.0849,-62.3014 -22.2292,-62.3976 26.8943,5.8194 45.1029,16.429 44.468,30.2706 -3.7321,80.8081 1.5486,186.2308 6.1657,255.6021 19.6321,21.4212 76.5854,23.7874 104.3936,23.5758 10.5999,-0.087 19.5359,7.5027 21.6135,17.9007 2.5779,12.947 1.9815,25.6151 0.3078,36.3786 0,-0.7022 -0.019,-32.6272 -30.5014,-36.167"
           style="fill:#4067b1;fill-opacity:1;fill-rule:nonzero;stroke:none;stroke-width:0.961887"
           id="path58" /><path
           d="m -9747.293,1147.5179 c -46.488,0 -92.9663,10.2441 -128.4311,30.713 -70.9295,40.9475 -70.9295,107.3562 0,148.2941 35.4648,20.4785 81.9527,30.7226 128.4311,30.7226 46.488,0 92.9663,-10.2441 128.4311,-30.7226 70.9295,-40.9379 70.9295,-107.337 0,-148.2941 -35.4648,-20.4689 -81.9527,-30.713 -128.4311,-30.713"
           style="fill:#899abf;fill-opacity:1;fill-rule:nonzero;stroke:none;stroke-width:0.961887"
           id="path60" /><path
           d="m -9757.9507,1307.6335 c 2.0296,-5.0691 36.9653,-47.6037 71.9106,-58.2326 15.1882,-4.6267 25.3938,-5.2327 32.0982,-4.4343 6.714,0.7984 10.8693,7.724 8.5993,14.1013 -6.0118,16.9196 -23.2488,52.1823 -67.0243,73.8825 -59.2618,29.3664 -45.5838,-25.3169 -45.5838,-25.3169"
           style="fill:#263c7a;fill-opacity:1;fill-rule:nonzero;stroke:none;stroke-width:0.961887"
           id="path62" /><path
           d="m -9769.5991,1291.2911 c 0,0 13.1682,-30.8958 17.2177,-56.7129 2.4721,-15.7557 -6.1657,-36.2246 -13.2836,-49.7872 -4.4247,-8.4165 -15.6211,-10.3018 -22.6621,-3.9149 -11.4176,10.3595 -25.9517,28.3564 -28.3564,54.2119 -4.0592,43.5446 0,51.1435 0,51.1435 l 47.0844,5.0596"
           style="fill:#263c7a;fill-opacity:1;fill-rule:nonzero;stroke:none;stroke-width:0.961887"
           id="path64" /><path
           d="m -9853.7642,1817.645 c 0,0 -4.5594,-54.9333 0,-115.6957 4.5593,-60.772 20.8729,-344.9518 23.9125,-413.3034 0,0 -1.5294,-20.6998 38.5524,-16.1501 40.0626,4.5593 36.8402,27.5484 36.8402,27.5484 0,0 56.2608,0.7503 58.0403,33.9162 1.7602,33.1658 57.6266,396.076 57.6266,526.5463 l -214.972,-42.8617"
           style="fill:#d9effb;fill-opacity:1;fill-rule:nonzero;stroke:none;stroke-width:0.961887"
           id="path66" /><path
           d="m -9754.4591,1300.0442 c 0,0 6.9641,0.087 16.0636,1.6545 l 11.0232,441.7464 -27.0868,-443.4009"
           style="fill:#4067b1;fill-opacity:1;fill-rule:nonzero;stroke:none;stroke-width:0.961887"
           id="path68" /><path
           d="m -9794.2523,2220.7332 c -90.8983,-37.6867 -89.0803,-91.4177 -89.0803,-91.4177 0,0 17.8045,-196.9944 11.7254,-328.5516 -2.5394,-55.0007 292.2115,-59.1945 248.2437,87.5317 -51.8169,173.0049 -32.3964,313.0652 -56.6552,334.1882 -24.2684,21.123 -90.7251,8.0029 -114.2336,-1.7506"
           style="fill:#5f92d3;fill-opacity:1;fill-rule:nonzero;stroke:none;stroke-width:0.961887"
           id="path70" /><path
           d="m -9823.5033,2173.0909 c 4.7614,-18.4586 28.9432,-28.1832 54.01,-21.729 25.086,6.4639 41.5438,26.6635 36.7921,45.1221 -4.7517,18.4586 -28.9335,28.1737 -54.0099,21.729 -25.0668,-6.4638 -41.5439,-26.6635 -36.7922,-45.1221"
           style="fill:#fab6a9;fill-opacity:1;fill-rule:nonzero;stroke:none;stroke-width:0.961887"
           id="path72" /><path
           d="m -9817.9724,2174.5242 c 3.9726,-15.3806 25.0667,-23.2681 47.0555,-17.6218 21.9887,5.6559 36.6478,22.7775 32.6849,38.1484 -3.9534,15.3806 -25.086,23.2488 -47.0555,17.6218 -21.9887,-5.6559 -36.6479,-22.7871 -32.6849,-38.1484 z m 33.1754,-30.8381 c -21.4981,0 -39.8124,10.8404 -44.2371,27.9813 -5.5309,21.4693 12.8219,44.8335 40.8994,52.0765 28.1063,7.2045 55.4335,-4.367 60.9644,-25.8363 5.5404,-21.4789 -12.822,-44.8335 -40.8898,-52.0765 -5.6655,-1.4525 -11.3022,-2.145 -16.7369,-2.145"
           style="fill:#ffffff;fill-opacity:1;fill-rule:nonzero;stroke:none;stroke-width:0.961887"
           id="path74" /><path
           d="m -9757.8064,2224.8404 c 0,0 -0.7888,-3.6455 0.7887,-32.454 0.4906,-9.0514 -31.2132,-17.516 -39.4181,-9.3207 -8.1856,8.2049 -4.9056,16.7272 -6.8871,47.5461 -1.9622,30.8188 45.5165,-5.7714 45.5165,-5.7714"
           style="fill:#fab6a9;fill-opacity:1;fill-rule:nonzero;stroke:none;stroke-width:0.961887"
           id="path76" /><path
           d="m -9803.3229,2230.6118 c 0,0 7.8201,-28.5777 46.3052,-39.5432 l -0.5867,25.9806 -45.7185,13.5626"
           style="fill:#eb8b8a;fill-opacity:1;fill-rule:nonzero;stroke:none;stroke-width:0.961887"
           id="path78" /><path
           d="m -9827.7067,2303.215 c -9.667,-37.4174 12.8219,-75.5851 50.2393,-85.2617 37.4078,-9.6765 75.5754,12.8124 85.252,50.2298 9.6766,37.4173 -12.8123,75.585 -50.2201,85.252 -37.4174,9.6765 -75.5946,-12.8124 -85.2712,-50.2201"
           style="fill:#fab6a9;fill-opacity:1;fill-rule:nonzero;stroke:none;stroke-width:0.961887"
           id="path80" /><path
           d="m -9776.0342,2283.1308 c 0,0 38.5332,-16.506 65.2063,-16.6984 26.6731,-0.1827 20.796,22.1523 20.796,22.1523 l -79.1825,11.4368 -6.8198,-16.8907"
           style="fill:#eb8b8a;fill-opacity:1;fill-rule:nonzero;stroke:none;stroke-width:0.961887"
           id="path82" /><path
           d="m -9702.8731,2278.7734 c 0,0 -33.5602,14.2552 -63.0035,8.3203 -6.9256,-1.4043 -13.3414,-5.1076 -17.7949,-10.5807 -1.4525,-1.7891 -3.2897,-3.4147 -5.377,-3.8957 -5.223,-1.1831 -13.7742,20.4786 -23.9125,20.9788 -10.1479,0.4809 -16.9196,-6.6947 -8.5993,-20.0169 8.3107,-13.3125 5.502,-28.2313 1.6833,-30.3667 -3.8379,-2.1354 -44.4391,28.9624 -8.6281,99.9111 35.8207,70.9584 126.8055,32.7427 140.9645,18.3624 0,0 14.8996,-12.9854 27.0194,-1.4235 0,0 13.5914,-101.7965 -42.3519,-81.2891"
           style="fill:#ee1696;fill-opacity:1;fill-rule:nonzero;stroke:none;stroke-width:0.961887"
           id="path84" /><path
           d="m -9635.5506,2236.8736 48.883,21.0654 c 5.5982,2.4143 9.9171,7.0794 11.9082,12.8411 l 48.2771,139.8776 22.3638,-3.886 -39.0237,-174.0726 c -1.818,-8.1184 -7.0025,-15.092 -14.2648,-19.1704 l -81.3852,-45.7089 3.2416,69.0538"
           style="fill:#fab6a9;fill-opacity:1;fill-rule:nonzero;stroke:none;stroke-width:0.961887"
           id="path86" /><path
           d="m -10144.1,2214.125 -11.216,5.1365 c -9.551,4.3862 -18.276,10.4076 -25.749,17.7949 l -7.811,7.6951 c -4.405,4.3573 -5.704,10.9366 -3.299,16.6406 1.875,4.4536 7.127,6.387 11.437,4.2035 l 23.431,-11.8312 c 0,0 -3.665,10.3691 -1.914,13.0624 1.77,2.7029 19.892,-17.314 28.279,-31.4922 8.378,-14.1878 -13.158,-21.2096 -13.158,-21.2096"
           style="fill:#fab6a9;fill-opacity:1;fill-rule:nonzero;stroke:none;stroke-width:0.961887"
           id="path88" /><path
           d="m -9949.0295,2158.1625 -41.8132,4.6844 c -9.8783,1.0965 -19.4393,4.1938 -28.1063,9.0898 l -111.993,63.3979 -13.158,-21.2096 114.512,-88.4262 c 3.531,-2.7318 7.407,-4.9922 11.505,-6.7524 l 68.3033,-29.1933 0.7502,68.4094"
           style="fill:#fab6a9;fill-opacity:1;fill-rule:nonzero;stroke:none;stroke-width:0.961887"
           id="path90" /><path
           d="m -9732.1914,2237.5085 18.0642,4.9729 c 0,0 -8.6281,-13.5626 -21.2192,-17.0253 -12.5911,-3.4628 -14.5533,7.2045 -14.5533,7.2045 l 17.7083,4.8479"
           style="fill:#ffffff;fill-opacity:1;fill-rule:nonzero;stroke:none;stroke-width:0.961887"
           id="path94" /><path
           d="m -9705.1047,2232.5259 c 0,0 81.6546,16.1405 106.5867,23.7105 24.9321,7.5797 35.3493,-60.9066 33.4544,-78.2687 -1.8853,-17.362 -86.791,-36.7248 -96.8908,-66.4952 -10.0998,-29.7704 -43.1503,121.0534 -43.1503,121.0534"
           style="fill:#5f92d3;fill-opacity:1;fill-rule:nonzero;stroke:none;stroke-width:0.961887"
           id="path96" /><path
           d="m -9829.9479,2202.4766 c 0,0 -59.6755,-25.6151 -159.5385,-38.0907 -4.0688,-0.5098 -7.5412,-3.1935 -8.8878,-7.0603 -3.8478,-11.0617 -10.4268,-35.205 -5.2908,-60.0313 2.117,-10.2345 11.3891,-17.4198 21.8448,-17.3524 31.2613,0.2212 98.5453,-2.7799 109.4627,-32.0116 14.3033,-38.2927 42.4096,154.5463 42.4096,154.5463"
           style="fill:#5f92d3;fill-opacity:1;fill-rule:nonzero;stroke:none;stroke-width:0.961887"
           id="path98" /><path
           d="m -9794.8391,2148.6302 16.3617,-17.7565 c 2.1258,-2.3181 3.1454,-5.4346 2.7895,-8.5415 l -11.2541,-97.2756 c -0.3174,-2.7318 0.4425,-5.4731 2.1066,-7.6566 l 35.2146,-46.0551 c 1.5583,-2.0392 4.771,-1.4813 5.5501,0.9618 l 19.1608,60.3296 c 0.731,2.2893 0.6541,4.7517 -0.202,6.9833 l -33.7237,88.3589 c -0.7311,1.9334 -0.8946,4.0399 -0.4617,6.0599 l 4.9248,23.4219 -40.4666,-8.8301"
           style="fill:#ffffff;fill-opacity:1;fill-rule:nonzero;stroke:none;stroke-width:0.961887"
           id="path100" /><path
           d="m -9973.5864,2098.0446 c 17.8622,-2.0681 61.6954,-5.8483 95.4095,-8.657 19.3243,-1.6064 32.1559,-20.2285 27.2695,-39.0045 -17.9681,-68.9961 5.829,-179.9498 1.5294,-217.4922 -5.1365,-44.9297 22.0945,-62.311 22.2388,-62.388 -26.8944,5.8002 -45.1125,16.4195 -44.468,30.261 3.7417,80.8081 -1.539,186.2309 -6.1753,255.5925 -19.6321,21.4404 -76.5758,23.7971 -104.384,23.5855 -10.6096,-0.087 -19.5355,7.5027 -21.6035,17.9103 -2.588,12.9374 -1.992,25.6054 -0.318,36.3593 0,-0.6829 0.01,-32.6176 30.5016,-36.1669"
           style="fill:#4067b1;fill-opacity:1;fill-rule:nonzero;stroke:none;stroke-width:0.961887"
           id="path102" /><path
           d="m -8873.7076,1072.9621 -431.1272,248.917 c -8.5416,4.9248 -16.2559,5.1076 -22.2965,1.7891 l 0.029,0.2789 -41.8132,-24.1722 c 0,0 18.5163,-6.7428 29.3856,-10.7346 V 975.07952 c 0,-25.54675 15.5345,-55.22191 34.6953,-66.27302 l 412.0818,-237.92361 v -36.83737 l 42.2365,24.34343 -0.2213,0.0683 c 7.1372,4.35446 11.7158,13.91754 11.7158,27.65424 v 320.56701 c 0,25.5573 -15.5345,55.2315 -34.6856,66.2836"
           style="fill:#d1078d;fill-opacity:1;fill-rule:nonzero;stroke:none;stroke-width:0.961887"
           id="path104" /><path
           d="m -8916.3,635.34215 -431.1271,248.91796 c -19.1512,11.05016 -34.6857,40.72628 -34.6857,66.27206 v 320.57853 c 0,25.5381 15.5345,37.2827 34.6857,26.2114 L -8916.3,1048.4147 c 19.1608,-11.0617 34.6953,-40.7359 34.6953,-66.27494 V 661.57183 c 0,-25.55732 -15.5345,-37.2808 -34.6953,-26.22968"
           style="fill:#ee1696;fill-opacity:1;fill-rule:nonzero;stroke:none;stroke-width:0.961887"
           id="path106" /><path
           d="m -8905.7096,1056.0329 -431.1272,248.917 c -12.139,7.0025 -22.7871,4.819 -28.9816,-4.1746 5.3481,1.3947 11.6196,0.4713 18.3913,-3.4436 l 431.1271,-248.917 c 19.1608,-11.0617 34.6953,-40.7359 34.6953,-66.27494 V 661.57183 c 0,-9.37839 -2.1258,-16.84071 -5.7232,-22.04451 9.7727,2.54034 16.2943,13.1586 16.2943,29.66458 v 320.56697 c 0,25.54773 -15.5248,55.22193 -34.676,66.27403"
           style="fill:#ffffff;fill-opacity:1;fill-rule:nonzero;stroke:none;stroke-width:0.961887"
           id="path108" /><path
           d="m -9202.442,994.72316 c 0,-18.54709 -13.0239,-26.06904 -29.0874,-16.7955 -16.0635,9.28413 -29.0971,31.83844 -29.0971,50.38364 0,18.5548 13.0336,26.0671 29.0971,16.8041 16.0635,-9.2822 29.0874,-31.8384 29.0874,-50.39224"
           style="fill:#ffffff;fill-opacity:1;fill-rule:nonzero;stroke:none;stroke-width:0.961887"
           id="path110" /><path
           d="m -9114.3236,943.84802 c 0,-18.54613 -13.0143,-26.07578 -29.0874,-16.7955 -16.0635,9.27355 -29.0778,31.84037 -29.0778,50.37496 0,18.55383 13.0143,26.07672 29.0778,16.8032 16.0731,-9.27355 29.0874,-31.83652 29.0874,-50.38266"
           style="fill:#ffffff;fill-opacity:1;fill-rule:nonzero;stroke:none;stroke-width:0.961887"
           id="path112" /><path
           d="m -9026.1955,892.96615 c 0,-18.55768 -13.0239,-26.06905 -29.0875,-16.7955 -16.0635,9.28028 -29.0874,31.83556 -29.0874,50.38265 0,18.55383 13.0239,26.06809 29.0874,16.79454 16.0636,-9.27258 29.0875,-31.82786 29.0875,-50.38169"
           style="fill:#ffffff;fill-opacity:1;fill-rule:nonzero;stroke:none;stroke-width:0.961887"
           id="path114" /><path
           d="m -8273.7982,891.68491 c -53.4328,0 -109.7994,13.02299 -153.8153,38.44469 -80.4714,46.46008 -89.215,116.7365 -19.5167,156.9818 l 643.7907,371.6922 c 31.5787,18.2278 73.8344,27.1637 118.0908,27.1637 53.4328,0 109.7994,-13.024 153.8153,-38.4274 80.4714,-46.4687 89.215,-116.7538 19.5167,-156.9991 l -643.7907,-371.68259 c -31.5691,-18.23833 -73.8248,-27.1733 -118.0908,-27.1733"
           style="fill:#899abf;fill-opacity:1;fill-rule:nonzero;stroke:none;stroke-width:0.961887"
           id="path298" /><path
           d="m -7787.3626,1604.741 0.1828,82.0971 97.1121,489.302 -95.9194,59.2522 -192.1561,-106.0768 -1.3755,-630.6513 c -0.096,-42.4384 15.8038,-71.1411 40.2454,-80.4811 v -0.038 l 85.4347,-53.7118 10.7347,40.6205 14.6784,73.9691 c 24.7397,36.4651 40.9764,83.0589 41.0629,125.7185"
           style="fill:#5f92d3;fill-opacity:1;fill-rule:nonzero;stroke:none;stroke-width:0.961887"
           id="path300" /><path
           d="m -7787.7954,1366.3182 v 0 c -53.0673,-29.299 -95.9578,3.434 -95.8039,73.0938 l 1.3659,630.6513 192.1657,106.0768 -1.3755,-630.6609 c -0.1443,-69.6502 -43.2849,-149.8715 -96.3522,-179.161"
           style="fill:#5f92d3;fill-opacity:1;fill-rule:nonzero;stroke:none;stroke-width:0.961887"
           id="path302" /><path
           d="m -7269.0981,2515.7246 c 0,-160.0483 -112.3676,-224.9372 -250.9851,-144.8986 -138.6367,80.0289 -251.0043,274.6667 -251.0043,434.7342 0,160.0579 112.3676,224.9372 251.0043,144.9082 138.6175,-80.0386 250.9851,-274.6763 250.9851,-434.7438"
           style="fill:#ee1696;fill-opacity:1;fill-rule:nonzero;stroke:none;stroke-width:0.961887"
           id="path304" /><path
           d="m -7340.143,2354.7047 -730.4375,-418.8535 -392.6613,589.8385 760.9773,439.4763 362.1215,-610.4613"
           style="fill:#ee1696;fill-opacity:1;fill-rule:nonzero;stroke:none;stroke-width:0.961887"
           id="path306" /><path
           d="m -7627.4201,2301.9741 c 0,164.6269 -115.5803,364.8147 -258.1511,447.133 -64.8023,37.4174 -123.9679,43.939 -169.3016,24.5954 l -0.067,0.1058 -0.933,-0.4617 -1.1639,-0.5579 c -1.9911,-0.9041 -3.9437,-1.866 -5.8771,-2.8664 -269.5591,-132.4902 -567.9171,-195.8208 -868.1315,-184.1339 l -85.0596,3.3185 692.4717,-1186.6602 37.504,72.4877 c 136.7803,264.3649 336.6891,490.7449 581.8163,659.2482 47.4595,26.6539 76.8932,84.7422 76.8932,167.7915"
           style="fill:#d9effb;fill-opacity:1;fill-rule:nonzero;stroke:none;stroke-width:0.961887"
           id="path308" /><path
           d="m -8242.8736,1670.611 c 0,315.8066 -221.7244,699.8398 -495.2273,857.7431 -136.4051,78.7401 -259.9113,86.3774 -349.4726,35.08 l 0.01,0.019 -0.4905,-0.279 -0.6637,-0.3944 -81.2602,-47.5941 28.3853,5.9252 c -57.7517,-60.1852 -91.7448,-155.0272 -91.7448,-278.6585 0,-315.8162 221.7245,-699.8398 495.2369,-857.7527 107.337,-61.9648 206.6806,-79.8847 287.7965,-59.7236 l -12.87,-18.9299 74.8059,43.7177 1.1735,0.6926 2.6836,1.5679 h -0.087 c 87.6471,52.5478 141.7243,162.655 141.7243,318.5864"
           style="fill:#d9effb;fill-opacity:1;fill-rule:nonzero;stroke:none;stroke-width:0.961887"
           id="path310" /><path
           d="m -8300.8272,1636.7911 c 0,315.8162 -221.7245,699.8398 -495.2369,857.7527 -134.5584,77.6916 -256.564,86.1273 -345.8175,37.1 l -12.4372,-7.2911 c -4.2419,-2.6933 -8.3876,-5.5405 -12.4757,-8.5127 l 25.2015,5.2711 c -57.7517,-60.1852 -91.7448,-155.0272 -91.7448,-278.6585 0,-315.8162 221.7245,-699.8398 495.2369,-857.7527 107.337,-61.9648 206.6806,-79.8847 287.7965,-59.7236 l -11.735,-17.2658 c 99.0647,47.3729 161.2122,161.9047 161.2122,329.0806"
           style="fill:#ffffff;fill-opacity:1;fill-rule:nonzero;stroke:none;stroke-width:0.961887"
           id="path312" /><path
           d="m -8317.2466,1627.1338 c 0,-315.8066 -221.7245,-443.8049 -495.237,-285.9016 -273.5028,157.9129 -495.2272,541.9461 -495.2272,857.7527 0,315.8066 221.7244,443.8049 495.2272,285.9016 273.5125,-157.9129 495.237,-541.9461 495.237,-857.7527"
           style="fill:#5f92d3;fill-opacity:1;fill-rule:nonzero;stroke:none;stroke-width:0.961887"
           id="path314" /><path
           d="m -8377.9898,1662.2041 c 0,-277.081 -194.5223,-389.3813 -434.4938,-250.8311 -239.9618,138.5309 -434.4937,475.4605 -434.4937,752.5415 0,277.0811 194.5319,389.391 434.4937,250.8408 239.9715,-138.5405 434.4938,-475.4701 434.4938,-752.5512"
           style="fill:#263c7a;fill-opacity:1;fill-rule:nonzero;stroke:none;stroke-width:0.961887"
           id="path316" /><path
           d="m -8792.1974,1420.0588 c -239.9714,138.5405 -434.4937,475.4702 -434.4937,752.5416 0,145.5046 53.6636,245.5311 139.3581,287.7003 -97.4391,-35.7534 -159.6443,-139.7141 -159.6443,-296.3862 0,-277.081 194.5319,-614.0106 434.4937,-752.5415 113.9547,-65.7931 217.6365,-74.9791 295.1357,-36.8499 -74.8829,-27.4811 -170.581,-14.6688 -274.8495,45.5357"
           style="fill:#ffffff;fill-opacity:1;fill-rule:nonzero;stroke:none;stroke-width:0.961887"
           id="path318" /><g
           id="g320"
           transform="matrix(0.96188656,0,0,0.96188656,-11642.479,34.865233)"><g
             id="g322"
             clip-path="url(#clipPath326)"><path
               d="m 2874.52,2060.6 655.42,506.77 237.99,-412.9 -769.27,-315.67 -124.14,221.8"
               style="fill:#d9effb;fill-opacity:1;fill-rule:nonzero;stroke:none"
               id="path328" /><path
               d="m 3032.34,1900.54 c 0,-57.53 -40.39,-80.84 -90.21,-52.08 -49.82,28.76 -90.2,98.71 -90.2,156.24 0,57.52 40.38,80.83 90.2,52.07 49.82,-28.76 90.21,-98.71 90.21,-156.23"
               style="fill:#5f92d3;fill-opacity:1;fill-rule:nonzero;stroke:none"
               id="path330" /></g></g><path
           d="m -7929.943,1599.3352 -3.4051,1.9527 c -12.6103,7.2334 -22.8737,26.7019 -22.9218,43.4869 l -0.3462,121.6209 c -0.058,16.7849 10.1383,24.5281 22.739,17.2947 l 3.4147,-1.9526 c 12.6007,-7.2334 22.864,-26.702 22.9121,-43.4869 l 0.3463,-121.6209 c 0.048,-16.7946 -10.1287,-24.5282 -22.739,-17.2948"
           style="fill:#ffffff;fill-opacity:1;fill-rule:nonzero;stroke:none;stroke-width:0.961887"
           id="path332" /><path
           d="m -7096.2086,645.78727 c -51.5667,0 -103.1239,11.36181 -142.4746,34.07195 -78.6631,45.4299 -78.6727,119.07097 0,164.50088 39.3315,22.70244 90.8982,34.0604 142.4457,34.0604 51.5668,0 103.1239,-11.35796 142.4747,-34.07868 78.6631,-45.41163 78.6727,-119.0527 0,-164.4826 -39.3316,-22.71014 -90.8983,-34.07195 -142.4458,-34.07195"
           style="fill:#899abf;fill-opacity:1;fill-rule:nonzero;stroke:none;stroke-width:0.961887"
           id="path334" /><path
           d="m -6972.7793,823.74783 c 14.0339,-5.99352 22.864,-21.63571 21.7001,-38.44564 -0.5579,-7.93557 -1.5101,-15.3344 -3.1646,-18.80585 -4.4631,-9.37839 -19.103,-22.23978 -42.4576,-13.01529 -23.3643,9.23508 -75.258,57.99118 -77.2011,89.89888 -3.607,59.27242 64.1675,-3.83985 101.1232,-19.6321"
           style="fill:#263c7a;fill-opacity:1;fill-rule:nonzero;stroke:none;stroke-width:0.961887"
           id="path336" /><path
           d="m -7110.0405,725.72101 c 0,0 5.6078,-34.17679 2.876,-40.44733 -2.7221,-6.25996 -18.9684,-19.63211 -42.9867,-16.73587 -24.0279,2.88566 -93.1395,26.71929 -108.5297,72.26558 -23.8548,70.60151 133.4041,-5.30192 133.4041,-5.30192 l 15.2363,-9.78046"
           style="fill:#263c7a;fill-opacity:1;fill-rule:nonzero;stroke:none;stroke-width:0.961887"
           id="path338" /><path
           d="m -7177.565,1272.0437 -5.3577,-533.50171 c 0.5675,-18.55383 12.7258,-34.22296 29.0682,-36.98453 2.02,-0.33378 4.1746,-0.61561 6.5024,-0.81472 16.5444,-1.45437 26.1825,5.65493 31.6941,13.10955 4.444,6.04161 6.8006,13.70688 7.1276,21.53664 l 6.8102,227.74588 34.0027,203.62079 47.0458,-360.39002 c 0.7503,-9.74295 5.4155,-18.75679 12.9182,-23.73167 5.1845,-3.43009 12.2256,-6.08682 21.4501,-5.80883 13.4567,0.40592 22.8159,7.60948 28.5199,14.04547 4.5112,5.08741 6.8967,12.09861 6.8101,19.29448 l -18.6509,216.83807 -6.9449,276.5905 -200.9958,-31.5499"
           style="fill:#d9effb;fill-opacity:1;fill-rule:nonzero;stroke:none;stroke-width:0.961887"
           id="path340" /><path
           d="m -7108.4823,1749.5819 8.4358,-48.6137 c 0,0 0.3174,-16.583 -18.2085,-21.1808 -18.5164,-4.5978 -24.2492,7.3681 -24.2492,7.3681 l -8.3684,54.7409 42.3903,7.6855"
           style="fill:#fab6a9;fill-opacity:1;fill-rule:nonzero;stroke:none;stroke-width:0.961887"
           id="path342" /><path
           d="m -7210.5481,1776.2069 c 13.149,-41.64 53.8368,-65.8122 90.8791,-53.981 37.0326,11.8312 56.405,55.1738 43.2656,96.8331 -13.1586,41.64 -53.8368,65.8026 -90.879,53.9811 -37.0423,-11.8313 -56.4147,-55.1739 -43.2657,-96.8332"
           style="fill:#fab6a9;fill-opacity:1;fill-rule:nonzero;stroke:none;stroke-width:0.961887"
           id="path344" /><path
           d="m -7110.685,1700.0832 c 1.2889,0.5195 78.5765,50.2875 107.1445,-1.7891 46.5842,-84.9153 12.5142,-182.2871 29.1356,-393.6809 2.7798,-35.3782 -47.6038,-56.9341 -71.4297,-70.5448 -21.2,-12.1101 -44.9201,-19.5166 -69.3328,-19.7186 -24.1433,-0.1924 -70.4582,21.2769 -68.7749,52.846 7.7336,145.2256 -5.1076,267.6353 -16.9677,386.4091 0,0 14.8131,15.9577 90.225,46.4783"
           style="fill:#5f92d3;fill-opacity:1;fill-rule:nonzero;stroke:none;stroke-width:0.961887"
           id="path346" /><path
           d="m -7067.7175,1166.7556 47.0458,-360.39002 c 0.7503,-9.74295 5.4155,-18.75679 12.9182,-23.73167 1.2216,-0.80702 2.5778,-1.56595 4.011,-2.26909 -9.7535,7.33054 -38.2734,309.82458 -43.5446,343.47138 -5.2807,33.6661 -20.4304,42.9194 -20.4304,42.9194"
           style="fill:#4067b1;fill-opacity:1;fill-rule:nonzero;stroke:none;stroke-width:0.961887"
           id="path348" /><path
           d="m -7361.2949,1656.0865 -64.7061,128.4408 20.2958,12.8219 67.0627,-97.8335 -22.6524,-43.4292"
           style="fill:#fab6a9;fill-opacity:1;fill-rule:nonzero;stroke:none;stroke-width:0.961887"
           id="path350" /><path
           d="m -6934.4866,1792.4724 -31.4729,143.2057 -25.0668,-0.2789 9.4169,-118.7642 47.1228,-24.1626"
           style="fill:#fab6a9;fill-opacity:1;fill-rule:nonzero;stroke:none;stroke-width:0.961887"
           id="path352" /><path
           d="m -7200.91,1653.6049 c 0,0 -72.3723,-28.5488 -134.5583,49.9026 -5.4827,6.9064 -16.7368,6.1369 -19.9784,-1.3177 -5.5885,-12.8508 -12.6007,-32.2713 -4.0976,-50.5087 37.5809,-80.6638 165.81,-77.8647 196.7058,-123.0734 30.8958,-45.2183 -38.0715,124.9972 -38.0715,124.9972"
           style="fill:#5f92d3;fill-opacity:1;fill-rule:nonzero;stroke:none;stroke-width:0.961887"
           id="path354" /><path
           d="m -7061.6576,1717.9262 c 0,0 59.762,-4.5978 68.3516,47.1325 4.4343,26.6346 5.7713,42.5442 6.0118,51.7014 0.1731,6.2138 5.5597,10.9078 11.7158,10.1479 14.3129,-1.7795 36.4747,-6.0503 39.4758,-15.6403 4.4824,-14.3129 12.9278,-84.5594 -46.0936,-192.3292 -38.6678,-70.6121 -79.4614,98.9877 -79.4614,98.9877"
           style="fill:#5f92d3;fill-opacity:1;fill-rule:nonzero;stroke:none;stroke-width:0.961887"
           id="path356" /><path
           d="m -6965.8249,1935.3222 -0.5771,16.3328 c -0.202,5.7617 -1.8853,11.3695 -4.8864,16.304 l -16.5444,27.1926 -4.3285,5.4442 c -3.9822,5.0115 -11.1098,6.2331 -16.5349,2.8184 l -3.809,-2.3951 c -4.8576,-3.0492 -7.647,-8.5127 -7.2815,-14.236 l 8.5608,-23.2391 -10.8213,2.0969 c -2.1065,0.4136 -4.1361,-0.9812 -4.5208,-3.0973 -0.3174,-1.7891 0.6637,-3.559 2.347,-4.2419 l 17.6795,-7.1276 16.0635,-22.7294 24.6531,6.8775"
           style="fill:#fab6a9;fill-opacity:1;fill-rule:nonzero;stroke:none;stroke-width:0.961887"
           id="path358" /><path
           d="m -7426.482,1783.7096 -7.57,14.4861 c -2.6741,5.1076 -3.9919,10.8212 -3.8187,16.5829 l 0.9523,31.8192 1.0676,6.8679 c 0.9812,6.3292 6.5794,10.9078 12.9855,10.6192 l 4.492,-0.1924 c 5.7329,-0.2597 10.8597,-3.6263 13.3606,-8.782 l 4.04,-24.4319 8.378,7.1756 c 1.6256,1.3948 4.0784,1.1928 5.4539,-0.4617 1.1639,-1.4043 1.1927,-3.4243 0.058,-4.8479 l -11.8504,-14.9381 -3.0588,-31.1266 -24.4897,-2.7703"
           style="fill:#fab6a9;fill-opacity:1;fill-rule:nonzero;stroke:none;stroke-width:0.961887"
           id="path360" /><path
           d="m -7153.7198,1544.7866 c 6.3004,-28.693 -31.598,-245.0598 10.5327,-324.1846 -21.0654,8.532 -41.8902,25.2495 -40.7552,46.5938 5.5212,103.8549 0.5194,196.0132 -7.1083,283.5449 -36.0323,18.2566 -92.3411,29.1452 -132.1632,58.3096 42.7077,-15.7365 163.8766,-38.6679 169.494,-64.2637"
           style="fill:#4067b1;fill-opacity:1;fill-rule:nonzero;stroke:none;stroke-width:0.961887"
           id="path362" /><path
           d="m -7082.8865,1713.8094 -10.7346,11.0328 c 0,0 -17.6507,-18.0354 -31.8385,-21.1711 0,0 -17.0638,-4.8383 -25.413,-5.2519 l -6.9064,-19.055 c 0,0 56.2127,4.0303 74.8925,34.4452"
           style="fill:#ffffff;fill-opacity:1;fill-rule:nonzero;stroke:none;stroke-width:0.961887"
           id="path364" /><path
           d="m -7160.1356,1774.918 c -2.953,0.058 -5.704,1.3947 -7.3969,3.8379 -2.9337,4.242 -1.0677,23.7779 -10.119,27.0002 -14.1398,5.0403 -47.6615,-12.6488 -51.2397,38.3408 -1.8661,26.5 11.0328,33.541 10.9751,48.0655 0,0 -1.1158,-7.2815 67.0627,-2.751 68.1882,4.5401 90.3693,-56.0203 91.9852,-84.8577 1.616,-28.8373 -12.341,-76.268 -58.954,-82.7799 -7.7239,-1.0773 -40.1876,25.0283 -39.3412,28.443 0.8369,3.4243 13.0817,3.2319 11.3214,13.197 -1.4716,8.3107 -6.5408,11.3599 -14.2936,11.5042"
           style="fill:#ee1696;fill-opacity:1;fill-rule:nonzero;stroke:none;stroke-width:0.961887"
           id="path366" /></g></g></g></svg>
