<?xml version="1.0" encoding="UTF-8" standalone="no"?>
<svg
   viewBox="0 0 500.00001 400.00001"
   version="1.1"
   id="svg556"
   sodipodi:docname="referral-bonus.svg"
   width="500"
   height="400"
   inkscape:version="1.1 (c68e22c387, 2021-05-23)"
   xmlns:inkscape="http://www.inkscape.org/namespaces/inkscape"
   xmlns:sodipodi="http://sodipodi.sourceforge.net/DTD/sodipodi-0.dtd"
   xmlns="http://www.w3.org/2000/svg"
   xmlns:svg="http://www.w3.org/2000/svg">
  <sodipodi:namedview
     id="namedview558"
     pagecolor="#ffffff"
     bordercolor="#666666"
     borderopacity="1.0"
     inkscape:pageshadow="2"
     inkscape:pageopacity="0.0"
     inkscape:pagecheckerboard="0"
     showgrid="false"
     inkscape:zoom="0.8818049"
     inkscape:cx="199.59063"
     inkscape:cy="112.83675"
     inkscape:window-width="1366"
     inkscape:window-height="715"
     inkscape:window-x="-8"
     inkscape:window-y="-8"
     inkscape:window-maximized="1"
     inkscape:current-layer="svg556" />
  <defs
     id="defs4">
    <style
       id="style2">.cls-1{fill:#d4ecff;}.cls-2{fill:#721bd5;}.cls-3{fill:#b45ef4;}.cls-4{fill:#e8a200;}.cls-5{fill:#f9bf30;}.cls-6{fill:#d3008d;}.cls-7{fill:#ff2c9c;}.cls-8{fill:#fdd762;}.cls-9{fill:#8a2ae3;}.cls-10{fill:#95d359;}.cls-11{fill:#c13d1a;}.cls-12{fill:#db5126;}.cls-13{fill:#ef602e;}.cls-14{opacity:0.4;}.cls-15,.cls-16,.cls-20{fill:#fff;}.cls-15{opacity:0.2;}.cls-16{opacity:0.7;}.cls-17{fill:#983be9;}.cls-18{fill:#d8892b;}.cls-19{fill:#ffc2b0;}.cls-21{fill:#ea9c92;}</style>
  </defs>
  <g
     id="Layer_2"
     data-name="Layer 2"
     transform="matrix(1.3207078,0,0,1.3207078,122,2.0140819)">
    <g
       id="Ñëîé_1"
       data-name="Ñëîé 1">
      <polygon
         class="cls-1"
         points="7.44,179.87 207.69,295.49 200.25,300.52 0,184.9 "
         id="polygon6" />
      <ellipse
         class="cls-1"
         cx="93.120003"
         cy="160.45"
         rx="32.740002"
         ry="18.9"
         id="ellipse8" />
      <ellipse
         class="cls-1"
         cx="151.33"
         cy="193.89"
         rx="32.740002"
         ry="18.9"
         id="ellipse10" />
      <ellipse
         class="cls-1"
         cx="212.37"
         cy="229.14999"
         rx="32.740002"
         ry="18.9"
         id="ellipse12" />
      <polygon
         class="cls-1"
         points="0.88,239.57 11.39,245.65 21.91,239.57 11.39,233.5 "
         id="polygon14" />
      <polygon
         class="cls-2"
         points="22.48,217.9 22.48,232.43 11.39,238.83 11.39,224.3 "
         id="polygon16" />
      <polygon
         class="cls-3"
         points="0.31,232.43 11.39,238.83 11.39,224.3 0.31,217.9 "
         id="polygon18" />
      <polygon
         class="cls-4"
         points="22.48,207.63 22.48,217.9 11.39,224.3 11.39,214.03 "
         id="polygon20" />
      <polygon
         class="cls-5"
         points="0.31,217.9 11.39,224.3 11.39,214.03 0.31,207.63 "
         id="polygon22" />
      <polygon
         class="cls-6"
         points="22.48,200.27 22.48,207.63 11.39,214.03 11.39,206.67 "
         id="polygon24" />
      <polygon
         class="cls-6"
         points="0.31,207.63 11.39,214.03 11.39,206.67 0.31,200.27 "
         id="polygon26" />
      <polygon
         class="cls-7"
         points="0.31,200.27 11.39,206.67 22.48,200.27 11.39,193.87 "
         id="polygon28" />
      <rect
         class="cls-8"
         x="272.45999"
         y="121.18"
         width="2.25"
         height="6.5500002"
         transform="rotate(-125.06,273.57577,124.46016)"
         id="rect30" />
      <rect
         class="cls-8"
         x="274.37"
         y="117.08"
         width="2.25"
         height="6.5500002"
         transform="rotate(-125.06,275.48721,120.36687)"
         id="rect32" />
      <rect
         class="cls-8"
         x="276.29001"
         y="112.99"
         width="2.25"
         height="6.5500002"
         transform="rotate(-125.05,277.42138,116.25465)"
         id="rect34" />
      <rect
         class="cls-8"
         x="278.20001"
         y="108.89"
         width="2.25"
         height="6.5500002"
         transform="rotate(-125.06,279.31249,112.17269)"
         id="rect36" />
      <polygon
         class="cls-1"
         points="224.66,151.19 236.94,158.28 249.21,151.19 236.94,144.1 "
         id="polygon38" />
      <polygon
         class="cls-2"
         points="253.12,89.56 253.12,133.71 242.69,139.73 242.69,95.58 "
         id="polygon40" />
      <polygon
         class="cls-3"
         points="232.26,133.71 242.69,139.73 242.69,95.58 232.26,89.56 "
         id="polygon42" />
      <polygon
         class="cls-9"
         points="232.26,89.56 242.69,95.58 253.12,89.56 242.69,83.54 "
         id="polygon44" />
      <polygon
         class="cls-10"
         points="242.69,139.73 253.12,145.75 253.12,141.74 242.69,135.72 "
         id="polygon46" />
      <polygon
         class="cls-11"
         points="242.69,107.62 242.69,139.73 232.26,145.75 232.26,113.64 "
         id="polygon48" />
      <polygon
         class="cls-12"
         points="221.83,139.73 232.26,145.75 232.26,113.64 221.83,107.62 "
         id="polygon50" />
      <polygon
         class="cls-13"
         points="221.83,107.62 232.26,113.64 242.69,107.62 232.26,101.6 "
         id="polygon52" />
      <polygon
         class="cls-6"
         points="242.69,107.62 242.69,139.73 232.26,145.75 232.26,113.64 "
         id="polygon54" />
      <polygon
         class="cls-6"
         points="221.83,139.73 232.26,145.75 232.26,113.64 221.83,107.62 "
         id="polygon56" />
      <polygon
         class="cls-7"
         points="221.83,107.62 232.26,113.64 242.69,107.62 232.26,101.6 "
         id="polygon58" />
      <polygon
         class="cls-4"
         points="253.12,127.69 253.12,145.75 242.69,151.77 242.69,133.71 "
         id="polygon60" />
      <polygon
         class="cls-5"
         points="232.26,145.75 242.69,151.77 242.69,133.71 232.26,127.69 "
         id="polygon62" />
      <polygon
         class="cls-8"
         points="232.26,127.69 242.69,133.71 253.12,127.69 242.69,121.67 "
         id="polygon64" />
      <polygon
         class="cls-1"
         points="34.3,58.79 44.79,64.85 55.28,58.79 44.79,52.73 "
         id="polygon66" />
      <polygon
         class="cls-4"
         points="57.32,45.17 57.32,51.99 44.79,59.23 44.79,52.41 "
         id="polygon68" />
      <polygon
         class="cls-5"
         points="32.26,51.99 44.79,59.23 44.79,52.41 32.26,45.17 "
         id="polygon70" />
      <polygon
         class="cls-8"
         points="32.26,45.17 44.79,52.41 57.32,45.17 44.79,37.94 "
         id="polygon72" />
      <polygon
         class="cls-4"
         points="36.48,45.17 44.79,49.97 53.1,45.17 44.79,40.37 "
         id="polygon74" />
      <polygon
         class="cls-6"
         points="57.32,32.02 57.32,38.84 44.79,46.08 44.79,39.26 "
         id="polygon76" />
      <polygon
         class="cls-6"
         points="32.26,38.84 44.79,46.08 44.79,39.26 32.26,32.02 "
         id="polygon78" />
      <polygon
         class="cls-7"
         points="32.26,32.02 44.79,39.26 57.32,32.02 44.79,24.78 "
         id="polygon80" />
      <rect
         class="cls-3"
         x="206.69"
         y="265.07999"
         width="9.5"
         height="2"
         transform="rotate(-45,211.43437,266.08102)"
         id="rect82" />
      <rect
         class="cls-3"
         x="210.44"
         y="261.32999"
         width="2"
         height="9.5"
         transform="rotate(-45,211.41522,266.05895)"
         id="rect84" />
      <path
         class="cls-7"
         d="m 206.54,83.34 a 9.17,9.17 0 1 1 9.17,-9.16 9.17,9.17 0 0 1 -9.17,9.16 z m 0,-16.33 a 7.17,7.17 0 1 0 7.17,7.17 7.17,7.17 0 0 0 -7.17,-7.18 z"
         id="path86" />
      <circle
         class="cls-8"
         cx="198.38"
         cy="80.220001"
         r="6.6199999"
         id="circle88" />
      <rect
         class="cls-3"
         x="30.870001"
         y="89.510002"
         width="9.5"
         height="2"
         transform="rotate(-45,35.61035,90.50971)"
         id="rect90" />
      <rect
         class="cls-3"
         x="34.619999"
         y="85.760002"
         width="2"
         height="9.5"
         transform="rotate(-45,35.61035,90.50971)"
         id="rect92" />
      <circle
         class="cls-8"
         cx="45.759998"
         cy="149.13"
         r="4.8600001"
         id="circle94" />
      <path
         class="cls-3"
         d="m 75.64,251.5 a 2.22,2.22 0 1 1 1.86,2.5 2.21,2.21 0 0 1 -1.86,-2.5 z"
         id="path96" />
      <rect
         class="cls-7"
         x="85.43"
         y="257.85999"
         width="9.2299995"
         height="9.2299995"
         transform="rotate(-171.42,90.048353,262.47659)"
         id="rect98" />
      <path
         class="cls-5"
         d="m 133.38,133.1 h -1.56 c -1.75,-3.44 -5,-6.67 -9.66,-9.38 -15,-8.64 -39.22,-8.64 -54.17,0 -4.7,2.71 -7.92,5.94 -9.67,9.38 h -1.55 v 6.25 0 c 0,5.65 3.74,11.32 11.23,15.65 15,8.64 39.21,8.64 54.17,0 7.48,-4.32 11.22,-10 11.22,-15.64 v 0 z"
         id="path100" />
      <path
         class="cls-8"
         d="m 86.76,117.77 a 50.74,50.74 0 0 0 -18.77,6 c -4.7,2.71 -7.92,5.94 -9.67,9.38 h -1.55 v 6.25 c 0,5.6 3.74,11.27 11.23,15.6 a 50.74,50.74 0 0 0 18.77,5.95 z"
         id="path102" />
      <path
         class="cls-4"
         d="m 122.26,154.93 c 7.41,-4.31 11.12,-9.94 11.12,-15.58 v -6.25 h -1.56 a 22.35,22.35 0 0 0 -7.69,-8.15 h -1.87 z"
         id="path104" />
      <g
         class="cls-14"
         id="g112">
        <path
           class="cls-4"
           d="m 131.41,132.37 a 17.57,17.57 0 0 0 -1.67,-2.4 v 18.79 a 19.22,19.22 0 0 0 1.67,-2.4 z"
           id="path106" />
        <path
           class="cls-4"
           d="m 68,123.72 a 30,30 0 0 0 -5.35,3.88 v 23.51 c 0.52,0.48 1.07,0.95 1.66,1.41 V 127 h 3.13 v 27.61 c 0.19,0.12 0.36,0.23 0.56,0.34 0.36,0.21 0.73,0.41 1.1,0.61 V 127 h 3.13 v 30.1 c 0.55,0.24 1.1,0.46 1.66,0.68 V 127 H 77 v 31.82 c 0.54,0.17 1.1,0.33 1.66,0.48 V 127 h 3.13 v 33.1 c 0.55,0.12 1.1,0.23 1.66,0.33 V 127 h 3.15 v 33.88 c 0.55,0.07 1.11,0.14 1.66,0.19 V 127 h 3.14 v 34.33 l 1.66,0.07 V 127 h 3.13 v 34.41 c 0.55,0 1.11,0 1.66,0 V 127 H 101 v 34.2 c 0.56,0 1.11,-0.1 1.66,-0.17 V 127 h 3.14 v 33.55 l 1.66,-0.3 V 127 h 3.13 v 32.54 c 0.56,-0.14 1.11,-0.3 1.66,-0.45 V 127 h 3.13 v 31.07 c 0.57,-0.2 1.12,-0.42 1.67,-0.64 V 127 h 3.13 v 29 c 0.56,-0.28 1.12,-0.58 1.66,-0.88 V 127 H 125 v 26.15 c 0.59,-0.42 1.14,-0.85 1.66,-1.29 V 127 h 0.28 a 30.81,30.81 0 0 0 -4.73,-3.32 45.72,45.72 0 0 0 -11.76,-4.63 H 79.74 A 45.65,45.65 0 0 0 68,123.72 Z"
           id="path108" />
        <path
           class="cls-4"
           d="m 59.5,131.16 a 18,18 0 0 0 -1.18,1.94 h -0.48 v 11.46 a 16.57,16.57 0 0 0 1.66,3 z"
           id="path110" />
      </g>
      <ellipse
         class="cls-8"
         cx="95.07"
         cy="133.10001"
         rx="38.310001"
         ry="22.120001"
         id="ellipse114" />
      <path
         class="cls-15"
         d="m 103.65,136.88 c 11,-6.36 13.91,-15.62 8.71,-23.52 C 98,109.17 80,110.53 68,117.46 c -11,6.36 -13.91,15.62 -8.71,23.51 14.36,4.2 32.36,2.84 44.36,-4.09 z"
         id="path116" />
      <path
         class="cls-16"
         d="m 122.16,148.74 c -15,8.63 -39.21,8.63 -54.17,0 -7.23,-4.18 -11,-9.6 -11.2,-15.07 -0.26,5.85 3.47,11.74 11.2,16.21 15,8.63 39.21,8.63 54.17,0 7.73,-4.47 11.45,-10.36 11.19,-16.21 -0.24,5.47 -3.96,10.89 -11.19,15.07 z"
         id="path118" />
      <ellipse
         class="cls-4"
         cx="95.07"
         cy="133.10001"
         rx="27.190001"
         ry="15.7"
         id="ellipse120" />
      <path
         class="cls-5"
         d="m 75.85,123.43 c 10.61,-6.13 27.83,-6.13 38.45,0 5,2.88 7.64,6.61 7.93,10.39 0.34,-4.26 -2.31,-8.57 -7.93,-11.82 -10.62,-6.13 -27.84,-6.13 -38.45,0 -5.63,3.25 -8.27,7.56 -7.94,11.81 0.3,-3.81 2.94,-7.5 7.94,-10.38 z"
         id="path122" />
      <path
         class="cls-5"
         d="m 108.44,125.69 -2.1,0.6 0.6,0.24 -2.06,1.18 a 11.82,11.82 0 0 0 -5.22,-1.22 10,10 0 0 0 -5,1.36 7.87,7.87 0 0 0 -1.52,1.1 3.18,3.18 0 0 0 -0.81,1.17 3.58,3.58 0 0 0 -0.27,1.11 5.76,5.76 0 0 0 0,1.21 l 0.24,1.91 a 5.88,5.88 0 0 1 0,1.35 2.36,2.36 0 0 1 -0.46,1.09 3.56,3.56 0 0 1 -1.2,1 2.46,2.46 0 0 1 -2.59,0.19 c -0.57,-0.33 -0.72,-0.74 -0.44,-1.24 a 6.85,6.85 0 0 1 2.3,-1.85 v -1.44 l -1.8,0.68 -2.59,-1.1 a 8.38,8.38 0 0 0 -3.08,2.76 l -0.29,-0.33 v 1.41 0 c 0,1 0.75,1.92 2.24,2.86 l -1,0.59 -1.39,-0.63 v 1.44 l 1.25,0.72 2.44,-1.41 a 10.68,10.68 0 0 0 4.93,1 9.83,9.83 0 0 0 4.66,-1.26 7.68,7.68 0 0 0 1.72,-1.18 3.94,3.94 0 0 0 0.91,-1.34 4.54,4.54 0 0 0 0.34,-1.31 6.54,6.54 0 0 0 0,-1.4 L 98,133.07 c 0,-0.37 0,-0.64 0,-0.81 a 3.79,3.79 0 0 1 0.09,-0.7 1.67,1.67 0 0 1 0.42,-0.81 4.05,4.05 0 0 1 0.9,-0.68 3.93,3.93 0 0 1 1.38,-0.44 2.35,2.35 0 0 1 1.39,0.23 1.32,1.32 0 0 1 0.43,0.34 0.4,0.4 0 0 1 0.07,0.24 l -2.14,0.44 v 1.44 l 4.34,1.94 c 0.36,-0.23 0.68,-0.44 1,-0.63 a 8.4,8.4 0 0 0 0.88,-0.7 5.65,5.65 0 0 0 0.73,-0.78 2.79,2.79 0 0 0 0.41,-0.85 2.26,2.26 0 0 0 0.07,-0.43 v 0 -1.51 l -0.56,0.11 v 0 a 4.91,4.91 0 0 0 -1.16,-1 l 2.28,-1.31 z"
         id="path124" />
      <path
         class="cls-8"
         d="m 82.05,139.72 2.42,-1.4 c -1.65,-1 -2.39,-2.11 -2.22,-3.19 0.17,-1.08 1.29,-2.25 3.35,-3.51 l 4.4,1.86 a 6.85,6.85 0 0 0 -2.3,1.85 c -0.28,0.5 -0.13,0.91 0.44,1.24 a 2.46,2.46 0 0 0 2.59,-0.19 3.56,3.56 0 0 0 1.2,-1 2.36,2.36 0 0 0 0.46,-1.09 5.78,5.78 0 0 0 0,-1.34 L 92.09,131 a 5.76,5.76 0 0 1 0,-1.21 3.58,3.58 0 0 1 0.27,-1.11 3.18,3.18 0 0 1 0.81,-1.17 7.87,7.87 0 0 1 1.52,-1.1 10,10 0 0 1 5,-1.36 11.82,11.82 0 0 1 5.22,1.22 l 2.29,-1.32 1.27,0.74 -2.31,1.31 a 4.91,4.91 0 0 1 1.16,1 2.49,2.49 0 0 1 0.53,1 1.8,1.8 0 0 1 0,0.92 2.79,2.79 0 0 1 -0.41,0.85 5.65,5.65 0 0 1 -0.73,0.78 8.4,8.4 0 0 1 -0.88,0.7 c -0.27,0.19 -0.59,0.4 -1,0.63 l -4.34,-1.94 c 0.33,-0.2 0.6,-0.36 0.81,-0.5 0.21,-0.14 0.43,-0.29 0.64,-0.45 a 2.71,2.71 0 0 0 0.48,-0.43 1.22,1.22 0 0 0 0.2,-0.37 0.4,0.4 0 0 0 -0.06,-0.37 1.32,1.32 0 0 0 -0.43,-0.34 2.35,2.35 0 0 0 -1.39,-0.23 3.93,3.93 0 0 0 -1.38,0.44 4.05,4.05 0 0 0 -0.9,0.68 1.67,1.67 0 0 0 -0.42,0.81 3.79,3.79 0 0 0 -0.09,0.7 c 0,0.17 0,0.44 0,0.81 l 0.21,1.86 a 6.54,6.54 0 0 1 0,1.4 4.54,4.54 0 0 1 -0.34,1.31 3.94,3.94 0 0 1 -0.91,1.34 7.68,7.68 0 0 1 -1.65,1.22 9.83,9.83 0 0 1 -4.59,1.18 10.68,10.68 0 0 1 -4.93,-1 l -2.44,1.41 z"
         id="path126" />
      <path
         class="cls-5"
         d="m 133.38,126.84 h -1.56 c -1.75,-3.44 -5,-6.67 -9.66,-9.38 -15,-8.64 -39.22,-8.64 -54.17,0 -4.7,2.71 -7.92,6 -9.67,9.39 h -1.55 v 6.25 0 c 0,5.66 3.74,11.32 11.22,15.64 15,8.64 39.21,8.64 54.17,0 7.48,-4.32 11.22,-10 11.22,-15.64 v 0 z"
         id="path128" />
      <path
         class="cls-8"
         d="M 86.76,111.51 A 50.74,50.74 0 0 0 68,117.45 c -4.7,2.71 -7.92,6 -9.67,9.39 h -1.56 v 6.25 c 0,5.66 3.74,11.32 11.22,15.64 a 50.74,50.74 0 0 0 18.77,6 z"
         id="path130" />
      <path
         class="cls-4"
         d="m 122.26,148.67 c 7.41,-4.31 11.12,-9.94 11.12,-15.58 v -6.25 h -1.56 a 22.35,22.35 0 0 0 -7.69,-8.15 h -1.87 z"
         id="path132" />
      <g
         class="cls-14"
         id="g140">
        <path
           class="cls-4"
           d="m 131.41,126.11 a 17.57,17.57 0 0 0 -1.67,-2.4 v 18.79 a 19.22,19.22 0 0 0 1.67,-2.4 z"
           id="path134" />
        <path
           class="cls-4"
           d="m 68,117.45 a 30,30 0 0 0 -5.35,3.89 v 23.51 c 0.52,0.48 1.07,1 1.66,1.41 v -25.48 h 3.13 v 27.61 c 0.19,0.11 0.36,0.23 0.56,0.34 0.36,0.21 0.73,0.41 1.1,0.61 v -28.56 h 3.13 v 30.06 c 0.55,0.24 1.1,0.46 1.66,0.68 V 120.78 H 77 v 31.82 c 0.54,0.17 1.1,0.33 1.66,0.48 v -32.3 h 3.13 v 33.06 c 0.55,0.12 1.1,0.23 1.66,0.33 v -33.39 h 3.15 v 33.88 c 0.55,0.07 1.11,0.14 1.66,0.19 v -34.07 h 3.14 v 34.33 l 1.66,0.07 v -34.4 h 3.13 v 34.41 c 0.55,0 1.11,0 1.66,-0.05 V 120.78 H 101 v 34.16 c 0.56,-0.05 1.11,-0.1 1.66,-0.17 v -34 h 3.14 v 33.55 l 1.66,-0.3 v -33.24 h 3.13 v 32.54 c 0.56,-0.14 1.11,-0.3 1.66,-0.45 v -32.09 h 3.13 v 31.07 c 0.57,-0.2 1.12,-0.42 1.67,-0.64 v -30.43 h 3.13 v 29 c 0.56,-0.28 1.12,-0.58 1.66,-0.88 V 120.78 H 125 v 26.15 c 0.59,-0.42 1.14,-0.85 1.66,-1.29 v -24.86 h 0.28 a 30.81,30.81 0 0 0 -4.73,-3.32 45.72,45.72 0 0 0 -11.76,-4.63 H 79.74 A 46,46 0 0 0 68,117.45 Z"
           id="path136" />
        <path
           class="cls-4"
           d="m 59.5,124.9 a 18,18 0 0 0 -1.18,1.94 h -0.48 v 11.46 a 16.57,16.57 0 0 0 1.66,3 z"
           id="path138" />
      </g>
      <ellipse
         class="cls-8"
         cx="95.07"
         cy="126.84"
         rx="38.310001"
         ry="22.120001"
         id="ellipse142" />
      <path
         class="cls-15"
         d="m 103.65,130.62 c 11,-6.36 13.91,-15.63 8.71,-23.52 C 98,102.91 80,104.27 68,111.2 c -11,6.36 -13.91,15.62 -8.71,23.51 14.36,4.2 32.36,2.84 44.36,-4.09 z"
         id="path144" />
      <path
         class="cls-16"
         d="m 122.16,142.48 c -15,8.63 -39.21,8.63 -54.17,0 -7.23,-4.18 -11,-9.6 -11.2,-15.07 -0.26,5.85 3.47,11.74 11.2,16.21 15,8.63 39.21,8.63 54.17,0 7.73,-4.47 11.45,-10.36 11.19,-16.21 -0.24,5.47 -3.96,10.89 -11.19,15.07 z"
         id="path146" />
      <ellipse
         class="cls-4"
         cx="95.07"
         cy="126.84"
         rx="27.190001"
         ry="15.7"
         id="ellipse148" />
      <path
         class="cls-5"
         d="m 75.85,117.17 c 10.61,-6.13 27.83,-6.13 38.45,0 5,2.88 7.64,6.61 7.93,10.39 0.34,-4.26 -2.31,-8.57 -7.93,-11.82 -10.62,-6.13 -27.84,-6.13 -38.45,0 -5.63,3.24 -8.27,7.56 -7.94,11.81 0.3,-3.77 2.94,-7.5 7.94,-10.38 z"
         id="path150" />
      <path
         class="cls-5"
         d="m 108.44,119.42 -2.1,0.61 0.6,0.24 -2.06,1.18 a 11.82,11.82 0 0 0 -5.22,-1.22 10,10 0 0 0 -5,1.36 7.87,7.87 0 0 0 -1.52,1.1 3.18,3.18 0 0 0 -0.81,1.17 3.58,3.58 0 0 0 -0.33,1.14 5.76,5.76 0 0 0 0,1.21 l 0.24,1.91 a 5.88,5.88 0 0 1 0,1.35 2.36,2.36 0 0 1 -0.46,1.09 3.56,3.56 0 0 1 -1.2,1 2.46,2.46 0 0 1 -2.59,0.19 c -0.57,-0.33 -0.72,-0.74 -0.44,-1.24 a 6.85,6.85 0 0 1 2.3,-1.85 v -1.44 l -1.8,0.68 -2.59,-1.1 a 8.38,8.38 0 0 0 -3.08,2.76 l -0.29,-0.33 v 1.41 0 c 0,1 0.75,1.92 2.24,2.86 l -1,0.59 -1.39,-0.63 v 1.44 l 1.25,0.72 2.44,-1.41 a 10.68,10.68 0 0 0 4.93,1 9.83,9.83 0 0 0 4.66,-1.26 7.68,7.68 0 0 0 1.78,-1.23 3.94,3.94 0 0 0 0.91,-1.34 4.54,4.54 0 0 0 0.34,-1.31 6.54,6.54 0 0 0 0,-1.4 L 98,126.81 c 0,-0.37 0,-0.64 0,-0.81 a 3.79,3.79 0 0 1 0.09,-0.7 1.67,1.67 0 0 1 0.42,-0.81 4.05,4.05 0 0 1 0.9,-0.68 3.93,3.93 0 0 1 1.38,-0.44 2.28,2.28 0 0 1 1.39,0.23 1.32,1.32 0 0 1 0.43,0.34 0.4,0.4 0 0 1 0.07,0.24 l -2.14,0.44 v 1.44 l 4.34,1.94 c 0.36,-0.23 0.68,-0.44 1,-0.63 a 8.4,8.4 0 0 0 0.88,-0.7 5.16,5.16 0 0 0 0.73,-0.79 2.63,2.63 0 0 0 0.41,-0.84 2.26,2.26 0 0 0 0.07,-0.43 v 0 -1.51 l -0.56,0.11 v 0 a 4.91,4.91 0 0 0 -1.16,-1 l 2.28,-1.32 z"
         id="path152" />
      <path
         class="cls-8"
         d="m 82.05,133.46 2.42,-1.4 c -1.65,-1 -2.39,-2.11 -2.22,-3.19 0.17,-1.08 1.29,-2.25 3.35,-3.51 l 4.4,1.86 a 6.85,6.85 0 0 0 -2.3,1.85 c -0.28,0.5 -0.13,0.91 0.44,1.24 a 2.46,2.46 0 0 0 2.59,-0.19 3.56,3.56 0 0 0 1.2,-1 2.36,2.36 0 0 0 0.46,-1.09 5.88,5.88 0 0 0 0,-1.35 l -0.24,-1.91 a 5.76,5.76 0 0 1 0,-1.21 3.58,3.58 0 0 1 0.27,-1.11 3.18,3.18 0 0 1 0.81,-1.17 7.87,7.87 0 0 1 1.52,-1.1 10,10 0 0 1 5,-1.36 11.82,11.82 0 0 1 5.22,1.22 l 2.29,-1.32 1.27,0.74 -2.28,1.31 a 4.91,4.91 0 0 1 1.16,1 2.49,2.49 0 0 1 0.53,1 1.8,1.8 0 0 1 0,0.92 2.63,2.63 0 0 1 -0.41,0.84 5.16,5.16 0 0 1 -0.73,0.79 8.4,8.4 0 0 1 -0.88,0.7 c -0.27,0.19 -0.59,0.4 -1,0.63 l -4.34,-1.94 0.81,-0.5 c 0.21,-0.14 0.43,-0.29 0.64,-0.45 a 2.71,2.71 0 0 0 0.48,-0.43 1.22,1.22 0 0 0 0.2,-0.37 0.4,0.4 0 0 0 -0.06,-0.37 1.32,1.32 0 0 0 -0.43,-0.34 2.28,2.28 0 0 0 -1.39,-0.23 3.93,3.93 0 0 0 -1.38,0.44 4.05,4.05 0 0 0 -0.9,0.68 1.67,1.67 0 0 0 -0.42,0.81 3.79,3.79 0 0 0 -0.09,0.7 c 0,0.17 0,0.44 0,0.81 l 0.21,1.86 a 6.54,6.54 0 0 1 0,1.4 4.54,4.54 0 0 1 -0.34,1.31 3.94,3.94 0 0 1 -0.91,1.34 7.68,7.68 0 0 1 -1.65,1.22 9.83,9.83 0 0 1 -4.66,1.26 10.68,10.68 0 0 1 -4.93,-1 l -2.44,1.41 z"
         id="path154" />
      <path
         class="cls-5"
         d="m 133.38,120.58 h -1.56 c -1.75,-3.44 -5,-6.68 -9.66,-9.38 -15,-8.64 -39.22,-8.64 -54.17,0 -4.7,2.71 -7.92,6 -9.67,9.39 h -1.55 v 6.25 0 c 0,5.66 3.74,11.32 11.22,15.64 15,8.64 39.21,8.64 54.17,0 7.48,-4.32 11.22,-10 11.22,-15.64 v 0 z"
         id="path156" />
      <path
         class="cls-8"
         d="M 86.76,105.25 A 50.74,50.74 0 0 0 68,111.19 c -4.7,2.71 -7.92,6 -9.67,9.39 h -1.56 v 6.25 c 0,5.66 3.74,11.32 11.22,15.64 a 50.74,50.74 0 0 0 18.77,5.95 z"
         id="path158" />
      <path
         class="cls-4"
         d="m 122.26,142.41 c 7.41,-4.31 11.12,-9.94 11.12,-15.58 v -6.25 h -1.56 a 22.35,22.35 0 0 0 -7.69,-8.15 h -1.87 z"
         id="path160" />
      <g
         class="cls-14"
         id="g168">
        <path
           class="cls-4"
           d="m 131.41,119.85 a 18.3,18.3 0 0 0 -1.67,-2.41 v 18.8 a 18.6,18.6 0 0 0 1.67,-2.41 z"
           id="path162" />
        <path
           class="cls-4"
           d="m 68,111.19 a 30,30 0 0 0 -5.35,3.89 v 23.51 c 0.52,0.48 1.07,0.95 1.66,1.41 v -25.48 h 3.13 v 27.61 c 0.19,0.11 0.36,0.23 0.56,0.34 0.36,0.21 0.73,0.41 1.1,0.61 v -28.56 h 3.13 v 30.06 c 0.55,0.24 1.1,0.46 1.66,0.68 V 114.52 H 77 v 31.82 c 0.54,0.17 1.1,0.33 1.66,0.48 v -32.3 h 3.13 v 33.06 c 0.55,0.12 1.1,0.23 1.66,0.33 v -33.39 h 3.15 v 33.88 c 0.55,0.07 1.11,0.14 1.66,0.19 v -34.07 h 3.14 v 34.33 l 1.66,0.07 v -34.4 h 3.13 v 34.41 c 0.55,0 1.11,0 1.66,-0.05 V 114.52 H 101 v 34.16 c 0.56,-0.05 1.11,-0.1 1.66,-0.17 v -34 h 3.14 v 33.55 l 1.66,-0.3 v -33.24 h 3.13 v 32.54 l 1.66,-0.46 v -32.08 h 3.13 v 31.07 c 0.57,-0.2 1.12,-0.42 1.67,-0.64 v -30.43 h 3.13 v 29 c 0.56,-0.28 1.12,-0.58 1.66,-0.88 V 114.52 H 125 v 26.15 c 0.59,-0.42 1.14,-0.85 1.66,-1.29 v -24.86 h 0.28 a 30.13,30.13 0 0 0 -4.73,-3.32 45.72,45.72 0 0 0 -11.76,-4.63 H 79.74 A 46,46 0 0 0 68,111.19 Z"
           id="path164" />
        <path
           class="cls-4"
           d="m 59.5,118.64 a 18,18 0 0 0 -1.18,1.94 H 57.84 V 132 a 16.57,16.57 0 0 0 1.66,3 z"
           id="path166" />
      </g>
      <ellipse
         class="cls-8"
         cx="95.07"
         cy="120.58"
         rx="38.310001"
         ry="22.120001"
         id="ellipse170" />
      <path
         class="cls-15"
         d="m 103.65,124.36 c 11,-6.36 13.91,-15.63 8.71,-23.52 C 98,96.64 80,98 68,104.94 c -11,6.36 -13.91,15.62 -8.71,23.51 14.36,4.2 32.36,2.84 44.36,-4.09 z"
         id="path172" />
      <path
         class="cls-16"
         d="m 122.16,136.22 c -15,8.63 -39.21,8.63 -54.17,0 -7.23,-4.18 -11,-9.6 -11.2,-15.07 -0.26,5.85 3.47,11.74 11.2,16.21 15,8.63 39.21,8.63 54.17,0 7.73,-4.47 11.45,-10.36 11.19,-16.21 -0.24,5.47 -3.96,10.85 -11.19,15.07 z"
         id="path174" />
      <ellipse
         class="cls-4"
         cx="95.07"
         cy="120.58"
         rx="27.190001"
         ry="15.7"
         id="ellipse176" />
      <path
         class="cls-5"
         d="m 75.85,110.91 c 10.61,-6.13 27.83,-6.13 38.45,0 5,2.88 7.64,6.61 7.93,10.39 0.34,-4.26 -2.31,-8.57 -7.93,-11.82 -10.62,-6.13 -27.84,-6.13 -38.45,0 -5.63,3.24 -8.27,7.56 -7.94,11.81 0.3,-3.77 2.94,-7.5 7.94,-10.38 z"
         id="path178" />
      <path
         class="cls-5"
         d="m 108.44,113.16 -2.1,0.61 0.6,0.23 -2.06,1.19 a 11.68,11.68 0 0 0 -5.22,-1.19 10,10 0 0 0 -5,1.36 7.87,7.87 0 0 0 -1.52,1.1 3.18,3.18 0 0 0 -0.81,1.17 3.58,3.58 0 0 0 -0.27,1.11 5.76,5.76 0 0 0 0,1.21 l 0.24,1.91 a 5.88,5.88 0 0 1 0,1.35 2.36,2.36 0 0 1 -0.46,1.09 3.68,3.68 0 0 1 -1.2,1 2.46,2.46 0 0 1 -2.59,0.19 c -0.57,-0.33 -0.72,-0.74 -0.44,-1.24 A 6.85,6.85 0 0 1 90,122.4 V 121 l -1.8,0.68 -2.59,-1.1 a 8.38,8.38 0 0 0 -3.08,2.76 l -0.29,-0.33 v 1.41 0 c 0,1 0.75,1.92 2.24,2.86 l -1,0.59 -1.39,-0.63 v 1.44 l 1.25,0.72 2.4,-1.4 a 10.55,10.55 0 0 0 4.93,1 9.71,9.71 0 0 0 4.66,-1.25 7.68,7.68 0 0 0 1.67,-1.29 3.94,3.94 0 0 0 0.91,-1.34 4.54,4.54 0 0 0 0.34,-1.31 6.54,6.54 0 0 0 0,-1.4 L 98,120.55 c 0,-0.37 0,-0.64 0,-0.81 a 3.79,3.79 0 0 1 0.09,-0.7 1.62,1.62 0 0 1 0.42,-0.81 4.05,4.05 0 0 1 0.9,-0.68 3.93,3.93 0 0 1 1.38,-0.44 2.28,2.28 0 0 1 1.39,0.23 1.32,1.32 0 0 1 0.43,0.34 0.4,0.4 0 0 1 0.07,0.24 l -2.14,0.44 v 1.44 l 4.34,1.94 c 0.36,-0.23 0.68,-0.44 1,-0.63 a 8.4,8.4 0 0 0 0.88,-0.7 5.16,5.16 0 0 0 0.73,-0.79 2.74,2.74 0 0 0 0.41,-0.84 2.26,2.26 0 0 0 0.07,-0.43 v 0 -1.51 l -0.56,0.11 v 0 a 4.91,4.91 0 0 0 -1.16,-1 l 2.28,-1.32 z"
         id="path180" />
      <path
         class="cls-8"
         d="m 82.05,127.2 2.42,-1.4 c -1.65,-1 -2.39,-2.11 -2.22,-3.19 0.17,-1.08 1.29,-2.25 3.35,-3.51 L 90,121 a 6.85,6.85 0 0 0 -2.3,1.85 c -0.28,0.5 -0.13,0.91 0.44,1.24 a 2.46,2.46 0 0 0 2.59,-0.19 3.56,3.56 0 0 0 1.2,-1 2.36,2.36 0 0 0 0.46,-1.09 5.88,5.88 0 0 0 0,-1.35 l -0.24,-1.91 a 5.76,5.76 0 0 1 0,-1.21 3.58,3.58 0 0 1 0.27,-1.11 3.18,3.18 0 0 1 0.81,-1.17 7.87,7.87 0 0 1 1.52,-1.1 10,10 0 0 1 5,-1.36 11.68,11.68 0 0 1 5.22,1.22 l 2.29,-1.32 1.27,0.73 -2.28,1.32 a 4.91,4.91 0 0 1 1.16,1 2.49,2.49 0 0 1 0.53,1 1.8,1.8 0 0 1 0,0.92 2.74,2.74 0 0 1 -0.41,0.84 5.16,5.16 0 0 1 -0.73,0.79 8.4,8.4 0 0 1 -0.88,0.7 c -0.27,0.19 -0.59,0.4 -1,0.63 l -4.34,-1.94 0.81,-0.5 c 0.21,-0.14 0.43,-0.29 0.64,-0.45 a 2.71,2.71 0 0 0 0.48,-0.43 1.16,1.16 0 0 0 0.2,-0.38 0.39,0.39 0 0 0 -0.06,-0.36 1.32,1.32 0 0 0 -0.43,-0.34 2.28,2.28 0 0 0 -1.39,-0.23 3.93,3.93 0 0 0 -1.38,0.44 4.05,4.05 0 0 0 -0.9,0.68 1.62,1.62 0 0 0 -0.42,0.81 3.79,3.79 0 0 0 -0.09,0.7 c 0,0.17 0,0.44 0,0.81 l 0.21,1.86 a 6.54,6.54 0 0 1 0,1.4 4.54,4.54 0 0 1 -0.34,1.31 3.94,3.94 0 0 1 -0.91,1.19 7.68,7.68 0 0 1 -1.65,1.22 9.71,9.71 0 0 1 -4.66,1.25 10.55,10.55 0 0 1 -4.93,-1 l -2.44,1.41 z"
         id="path182" />
      <path
         class="cls-5"
         d="m 133.38,114.32 h -1.56 c -1.75,-3.44 -5,-6.68 -9.66,-9.39 -15,-8.63 -39.22,-8.63 -54.17,0 -4.7,2.71 -7.92,5.95 -9.67,9.39 h -1.55 v 6.25 0 c 0,5.66 3.74,11.32 11.22,15.64 15,8.64 39.21,8.64 54.17,0 7.48,-4.32 11.22,-10 11.22,-15.64 v 0 z"
         id="path184" />
      <path
         class="cls-8"
         d="M 86.76,99 A 50.74,50.74 0 0 0 68,104.93 c -4.7,2.71 -7.92,5.95 -9.67,9.39 h -1.56 v 6.25 c 0,5.66 3.74,11.32 11.22,15.64 a 50.74,50.74 0 0 0 18.77,5.95 z"
         id="path186" />
      <path
         class="cls-4"
         d="m 122.26,136.15 c 7.41,-4.31 11.12,-9.94 11.12,-15.58 v -6.25 h -1.56 a 22.35,22.35 0 0 0 -7.69,-8.15 h -1.87 z"
         id="path188" />
      <g
         class="cls-14"
         id="g196">
        <path
           class="cls-4"
           d="m 131.41,113.59 a 18.3,18.3 0 0 0 -1.67,-2.41 V 130 a 18.6,18.6 0 0 0 1.67,-2.41 z"
           id="path190" />
        <path
           class="cls-4"
           d="m 68,104.93 a 30,30 0 0 0 -5.35,3.89 v 23.51 c 0.52,0.48 1.07,0.95 1.66,1.41 v -25.48 h 3.13 v 27.61 c 0.19,0.11 0.36,0.23 0.56,0.34 0.36,0.21 0.73,0.41 1.1,0.61 v -28.56 h 3.13 v 30.06 c 0.55,0.24 1.1,0.46 1.66,0.68 V 108.26 H 77 v 31.82 c 0.54,0.17 1.1,0.33 1.66,0.48 v -32.3 h 3.13 v 33.06 c 0.55,0.12 1.1,0.23 1.66,0.33 v -33.39 h 3.15 v 33.88 l 1.66,0.19 v -34.07 h 3.14 v 34.33 l 1.66,0.07 v -34.4 h 3.13 v 34.41 c 0.55,0 1.11,0 1.66,0 V 108.26 H 101 v 34.16 c 0.56,0 1.11,-0.1 1.66,-0.17 v -34 h 3.14 v 33.55 l 1.66,-0.3 v -33.24 h 3.13 v 32.54 l 1.66,-0.46 v -32.08 h 3.13 v 31.07 c 0.57,-0.2 1.12,-0.42 1.67,-0.64 v -30.43 h 3.13 v 29 c 0.56,-0.28 1.12,-0.58 1.66,-0.88 V 108.26 H 125 v 26.15 c 0.59,-0.42 1.14,-0.85 1.66,-1.29 v -24.86 h 0.28 a 30.84,30.84 0 0 0 -4.73,-3.33 46.06,46.06 0 0 0 -11.76,-4.62 H 79.74 A 46,46 0 0 0 68,104.93 Z"
           id="path192" />
        <path
           class="cls-4"
           d="m 59.5,112.38 a 18,18 0 0 0 -1.18,1.94 h -0.48 v 11.46 a 16.57,16.57 0 0 0 1.66,3 z"
           id="path194" />
      </g>
      <ellipse
         class="cls-8"
         cx="95.07"
         cy="114.32"
         rx="38.310001"
         ry="22.120001"
         id="ellipse198" />
      <path
         class="cls-15"
         d="m 103.65,118.1 c 11,-6.36 13.91,-15.63 8.71,-23.52 C 98,90.38 80,91.75 68,98.68 57,105 54.08,114.3 59.28,122.19 c 14.37,4.2 32.37,2.81 44.37,-4.09 z"
         id="path200" />
      <path
         class="cls-16"
         d="m 122.16,130 c -15,8.63 -39.21,8.63 -54.17,0 -7.23,-4.17 -11,-9.59 -11.2,-15.06 -0.26,5.85 3.47,11.74 11.2,16.21 15,8.63 39.21,8.63 54.17,0 7.73,-4.47 11.45,-10.36 11.19,-16.21 -0.24,5.42 -3.96,10.84 -11.19,15.06 z"
         id="path202" />
      <path
         class="cls-4"
         d="m 114.3,125.42 c -10.62,6.13 -27.84,6.13 -38.45,0 -10.61,-6.13 -10.62,-16.07 0,-22.2 10.62,-6.13 27.83,-6.13 38.45,0 10.62,6.13 10.62,16.07 0,22.2 z"
         id="path204" />
      <path
         class="cls-5"
         d="m 75.85,104.65 c 10.61,-6.13 27.83,-6.13 38.45,0 5,2.88 7.64,6.61 7.93,10.38 0.34,-4.25 -2.31,-8.57 -7.93,-11.81 -10.62,-6.13 -27.84,-6.13 -38.45,0 -5.63,3.24 -8.27,7.56 -7.94,11.81 0.3,-3.77 2.94,-7.5 7.94,-10.38 z"
         id="path206" />
      <path
         class="cls-5"
         d="m 108.44,106.9 -2.1,0.61 0.6,0.23 -2.06,1.19 a 11.68,11.68 0 0 0 -5.22,-1.22 10,10 0 0 0 -5,1.36 7.87,7.87 0 0 0 -1.52,1.1 3.18,3.18 0 0 0 -0.81,1.17 3.58,3.58 0 0 0 -0.27,1.11 5.64,5.64 0 0 0 0,1.2 l 0.24,1.92 a 5.88,5.88 0 0 1 0,1.35 2.36,2.36 0 0 1 -0.46,1.09 3.68,3.68 0 0 1 -1.2,1 2.46,2.46 0 0 1 -2.59,0.19 c -0.57,-0.33 -0.72,-0.74 -0.44,-1.24 a 6.85,6.85 0 0 1 2.3,-1.85 v -1.41 l -1.8,0.68 -2.59,-1.1 a 8.38,8.38 0 0 0 -3,2.72 l -0.29,-0.34 v 1.42 0 c 0,1 0.75,1.92 2.24,2.86 l -1,0.59 -1.39,-0.63 v 1.44 l 1.25,0.72 2.44,-1.41 a 10.68,10.68 0 0 0 4.93,1 9.71,9.71 0 0 0 4.66,-1.25 7.68,7.68 0 0 0 1.64,-1.2 3.94,3.94 0 0 0 0.91,-1.34 4.62,4.62 0 0 0 0.34,-1.31 6.54,6.54 0 0 0 0,-1.4 L 98,114.29 c 0,-0.37 0,-0.64 0,-0.81 a 3.79,3.79 0 0 1 0.09,-0.7 1.62,1.62 0 0 1 0.42,-0.81 4.05,4.05 0 0 1 0.9,-0.68 3.73,3.73 0 0 1 1.38,-0.44 2.28,2.28 0 0 1 1.39,0.23 1.32,1.32 0 0 1 0.43,0.34 0.4,0.4 0 0 1 0.07,0.24 l -2.14,0.44 v 1.44 l 4.34,1.94 c 0.36,-0.23 0.68,-0.44 1,-0.63 a 8.4,8.4 0 0 0 0.88,-0.7 5.16,5.16 0 0 0 0.73,-0.79 2.74,2.74 0 0 0 0.41,-0.84 2.26,2.26 0 0 0 0.07,-0.43 v 0 -1.51 l -0.56,0.11 v 0 a 4.91,4.91 0 0 0 -1.16,-1 l 2.28,-1.32 z"
         id="path208" />
      <path
         class="cls-8"
         d="m 82.05,120.94 2.42,-1.4 c -1.65,-1 -2.39,-2.11 -2.22,-3.19 0.17,-1.08 1.29,-2.25 3.35,-3.51 l 4.4,1.86 a 6.85,6.85 0 0 0 -2.3,1.85 c -0.28,0.5 -0.13,0.91 0.44,1.24 a 2.46,2.46 0 0 0 2.59,-0.19 3.68,3.68 0 0 0 1.2,-1 2.36,2.36 0 0 0 0.46,-1.09 5.88,5.88 0 0 0 0,-1.35 l -0.24,-1.91 A 5.76,5.76 0 0 1 92,111 a 3.58,3.58 0 0 1 0.27,-1.11 3.18,3.18 0 0 1 0.81,-1.17 7.87,7.87 0 0 1 1.52,-1.1 10,10 0 0 1 5,-1.36 11.68,11.68 0 0 1 5.22,1.22 l 2.29,-1.32 1.27,0.73 -2.28,1.32 a 4.91,4.91 0 0 1 1.16,1 2.49,2.49 0 0 1 0.53,1 1.8,1.8 0 0 1 0,0.92 2.74,2.74 0 0 1 -0.41,0.84 5.16,5.16 0 0 1 -0.73,0.79 8.4,8.4 0 0 1 -0.88,0.7 c -0.27,0.19 -0.59,0.4 -1,0.63 l -4.34,-1.94 0.81,-0.5 c 0.21,-0.14 0.43,-0.29 0.64,-0.45 a 2.71,2.71 0 0 0 0.48,-0.43 1.27,1.27 0 0 0 0.2,-0.38 0.39,0.39 0 0 0 -0.06,-0.36 1.32,1.32 0 0 0 -0.43,-0.34 2.28,2.28 0 0 0 -1.39,-0.23 3.93,3.93 0 0 0 -1.38,0.44 4.05,4.05 0 0 0 -0.9,0.68 1.62,1.62 0 0 0 -0.42,0.81 3.79,3.79 0 0 0 -0.09,0.7 c 0,0.17 0,0.44 0,0.81 l 0.21,1.86 a 6.54,6.54 0 0 1 0,1.4 4.62,4.62 0 0 1 -0.34,1.31 3.94,3.94 0 0 1 -0.91,1.34 7.68,7.68 0 0 1 -1.52,1.19 9.71,9.71 0 0 1 -4.66,1.25 10.55,10.55 0 0 1 -4.93,-1 l -2.44,1.41 z"
         id="path210" />
      <path
         class="cls-5"
         d="m 133.38,108.06 h -1.56 c -1.75,-3.44 -5,-6.68 -9.66,-9.39 C 107.2,90 82.94,90 68,98.67 c -4.7,2.71 -7.92,6 -9.67,9.39 h -1.56 v 6.25 0 c 0,5.69 3.74,11.32 11.23,15.69 15,8.64 39.21,8.64 54.17,0 7.48,-4.32 11.22,-10 11.22,-15.64 v 0 z"
         id="path212" />
      <path
         class="cls-8"
         d="M 86.76,92.73 A 50.74,50.74 0 0 0 68,98.67 c -4.7,2.71 -7.92,6 -9.67,9.39 h -1.56 v 6.25 c 0,5.69 3.74,11.32 11.23,15.69 a 50.74,50.74 0 0 0 18.77,6 z"
         id="path214" />
      <path
         class="cls-4"
         d="m 122.26,129.89 c 7.41,-4.31 11.12,-9.95 11.12,-15.58 v -6.25 h -1.56 a 22.35,22.35 0 0 0 -7.69,-8.15 h -1.87 z"
         id="path216" />
      <g
         class="cls-14"
         id="g224">
        <path
           class="cls-4"
           d="m 131.41,107.33 a 18.3,18.3 0 0 0 -1.67,-2.41 v 18.8 a 18.6,18.6 0 0 0 1.67,-2.41 z"
           id="path218" />
        <path
           class="cls-4"
           d="m 68,98.67 a 30,30 0 0 0 -5.35,3.89 v 23.51 c 0.52,0.48 1.07,1 1.66,1.41 V 102 h 3.13 v 27.61 c 0.19,0.11 0.36,0.23 0.56,0.34 0.36,0.21 0.73,0.41 1.1,0.61 V 102 h 3.13 v 30.06 c 0.55,0.24 1.1,0.46 1.66,0.68 V 102 H 77 v 31.82 c 0.54,0.17 1.1,0.33 1.66,0.48 V 102 h 3.13 v 33.06 c 0.55,0.12 1.1,0.23 1.66,0.33 V 102 h 3.15 v 33.88 l 1.66,0.19 V 102 h 3.14 v 34.33 c 0.55,0 1.1,0 1.66,0.06 V 102 h 3.13 v 34.41 c 0.55,0 1.11,0 1.66,0 V 102 H 101 v 34.16 l 1.66,-0.17 V 102 h 3.14 v 33.55 c 0.55,-0.09 1.11,-0.2 1.66,-0.31 V 102 h 3.13 v 32.54 l 1.66,-0.46 V 102 h 3.13 v 31.07 c 0.57,-0.2 1.12,-0.42 1.67,-0.64 V 102 h 3.13 v 29 c 0.56,-0.28 1.12,-0.58 1.66,-0.88 V 102 H 125 v 26.15 c 0.59,-0.42 1.14,-0.85 1.66,-1.29 V 102 h 0.28 a 30.84,30.84 0 0 0 -4.73,-3.33 46.06,46.06 0 0 0 -11.76,-4.62 H 79.74 A 46,46 0 0 0 68,98.67 Z"
           id="path220" />
        <path
           class="cls-4"
           d="m 59.5,106.12 a 18,18 0 0 0 -1.18,1.94 h -0.48 v 11.46 a 16.57,16.57 0 0 0 1.66,3 z"
           id="path222" />
      </g>
      <ellipse
         class="cls-8"
         cx="95.07"
         cy="108.06"
         rx="38.310001"
         ry="22.120001"
         id="ellipse226" />
      <path
         class="cls-15"
         d="m 103.65,111.84 c 11,-6.36 13.91,-15.63 8.71,-23.52 C 98,84.12 80,85.49 68,92.42 57,98.78 54.08,108 59.28,115.93 c 14.37,4.2 32.37,2.84 44.37,-4.09 z"
         id="path228" />
      <path
         class="cls-16"
         d="m 122.16,123.7 c -15,8.63 -39.21,8.63 -54.17,0 -7.23,-4.17 -11,-9.6 -11.2,-15.06 -0.26,5.84 3.47,11.74 11.2,16.2 15,8.64 39.21,8.64 54.17,0 7.73,-4.47 11.45,-10.36 11.19,-16.21 -0.24,5.47 -3.96,10.89 -11.19,15.07 z"
         id="path230" />
      <ellipse
         class="cls-4"
         cx="95.07"
         cy="108.06"
         rx="27.190001"
         ry="15.7"
         id="ellipse232" />
      <path
         class="cls-5"
         d="m 75.85,98.39 c 10.61,-6.13 27.83,-6.13 38.45,0 5,2.88 7.64,6.61 7.93,10.38 0.34,-4.25 -2.31,-8.57 -7.93,-11.81 -10.62,-6.13 -27.84,-6.13 -38.45,0 -5.63,3.24 -8.27,7.56 -7.94,11.81 0.3,-3.77 2.94,-7.5 7.94,-10.38 z"
         id="path234" />
      <path
         class="cls-5"
         d="m 108.44,100.64 -2.1,0.61 0.6,0.23 -2.06,1.19 a 11.68,11.68 0 0 0 -5.22,-1.22 10,10 0 0 0 -5,1.36 7.87,7.87 0 0 0 -1.52,1.1 3.23,3.23 0 0 0 -0.81,1.16 3.7,3.7 0 0 0 -0.27,1.12 5.64,5.64 0 0 0 0,1.2 l 0.24,1.92 a 5.88,5.88 0 0 1 0,1.35 2.36,2.36 0 0 1 -0.46,1.09 3.68,3.68 0 0 1 -1.2,1 2.46,2.46 0 0 1 -2.59,0.19 c -0.57,-0.33 -0.72,-0.74 -0.44,-1.24 a 6.85,6.85 0 0 1 2.3,-1.85 v -1.44 l -1.8,0.68 L 85.6,108 a 8.38,8.38 0 0 0 -3.08,2.76 l -0.29,-0.34 v 1.42 0 c 0,1 0.75,1.92 2.24,2.86 l -1,0.59 -1.39,-0.63 v 1.44 l 1.25,0.72 2.44,-1.41 a 10.68,10.68 0 0 0 4.93,1 9.71,9.71 0 0 0 4.66,-1.25 7.68,7.68 0 0 0 1.64,-1.22 3.94,3.94 0 0 0 0.91,-1.34 4.62,4.62 0 0 0 0.34,-1.31 6.54,6.54 0 0 0 0,-1.4 L 98,108 c 0,-0.37 0,-0.64 0,-0.81 a 3.79,3.79 0 0 1 0.09,-0.7 1.62,1.62 0 0 1 0.42,-0.81 4.05,4.05 0 0 1 0.9,-0.68 3.73,3.73 0 0 1 1.38,-0.44 2.28,2.28 0 0 1 1.39,0.23 1.32,1.32 0 0 1 0.43,0.34 0.4,0.4 0 0 1 0.07,0.24 l -2.14,0.44 v 1.44 l 4.34,1.94 c 0.36,-0.23 0.68,-0.44 1,-0.63 a 10,10 0 0 0 0.88,-0.7 5.16,5.16 0 0 0 0.73,-0.79 2.74,2.74 0 0 0 0.41,-0.84 2.26,2.26 0 0 0 0.07,-0.43 v 0 -1.51 l -0.56,0.11 v 0 a 4.91,4.91 0 0 0 -1.16,-1 l 2.28,-1.32 z"
         id="path236" />
      <path
         class="cls-8"
         d="m 82.05,114.68 2.42,-1.4 c -1.65,-1 -2.39,-2.11 -2.22,-3.19 0.17,-1.08 1.29,-2.25 3.35,-3.51 l 4.4,1.86 a 6.85,6.85 0 0 0 -2.3,1.85 c -0.28,0.5 -0.13,0.91 0.44,1.24 a 2.46,2.46 0 0 0 2.59,-0.19 3.68,3.68 0 0 0 1.2,-1 2.36,2.36 0 0 0 0.46,-1.09 5.88,5.88 0 0 0 0,-1.35 l -0.3,-1.9 a 5.64,5.64 0 0 1 0,-1.2 3.58,3.58 0 0 1 0.27,-1.11 3.18,3.18 0 0 1 0.81,-1.17 7.87,7.87 0 0 1 1.52,-1.1 10,10 0 0 1 5,-1.36 11.68,11.68 0 0 1 5.22,1.22 l 2.29,-1.32 1.27,0.73 -2.31,1.31 a 4.91,4.91 0 0 1 1.16,1 2.49,2.49 0 0 1 0.53,1 1.8,1.8 0 0 1 0,0.92 2.74,2.74 0 0 1 -0.41,0.84 5.16,5.16 0 0 1 -0.73,0.79 8.4,8.4 0 0 1 -0.88,0.7 c -0.27,0.19 -0.59,0.4 -1,0.63 l -4.34,-1.94 0.81,-0.5 c 0.21,-0.14 0.43,-0.29 0.64,-0.45 a 2.71,2.71 0 0 0 0.48,-0.43 1.27,1.27 0 0 0 0.2,-0.38 0.39,0.39 0 0 0 -0.06,-0.36 1.32,1.32 0 0 0 -0.43,-0.34 2.28,2.28 0 0 0 -1.39,-0.23 3.73,3.73 0 0 0 -1.38,0.44 4.05,4.05 0 0 0 -0.9,0.68 1.62,1.62 0 0 0 -0.42,0.81 3.79,3.79 0 0 0 -0.09,0.7 c 0,0.17 0,0.44 0,0.81 l 0.21,1.86 a 6.54,6.54 0 0 1 0,1.4 4.62,4.62 0 0 1 -0.34,1.31 3.94,3.94 0 0 1 -0.82,1.24 7.68,7.68 0 0 1 -1.65,1.22 9.71,9.71 0 0 1 -4.68,1.28 10.68,10.68 0 0 1 -4.93,-1 l -2.44,1.4 z"
         id="path238" />
      <path
         class="cls-5"
         d="m 133.38,101.8 h -1.56 c -1.75,-3.44 -5,-6.68 -9.66,-9.39 -15,-8.63 -39.22,-8.63 -54.17,0 -4.7,2.71 -7.92,6 -9.67,9.39 h -1.55 v 6.25 0 c 0,5.66 3.74,11.32 11.22,15.64 15,8.64 39.21,8.64 54.17,0 7.48,-4.32 11.22,-10 11.22,-15.64 v 0 z"
         id="path240" />
      <path
         class="cls-8"
         d="M 86.76,86.47 A 50.74,50.74 0 0 0 68,92.41 c -4.7,2.71 -7.92,6 -9.67,9.39 h -1.56 v 6.25 c 0,5.66 3.74,11.32 11.22,15.64 a 50.74,50.74 0 0 0 18.77,5.95 z"
         id="path242" />
      <path
         class="cls-4"
         d="m 122.26,123.63 c 7.41,-4.31 11.12,-9.95 11.12,-15.58 v -6.25 h -1.56 a 22.35,22.35 0 0 0 -7.69,-8.15 h -1.87 z"
         id="path244" />
      <g
         class="cls-14"
         id="g252">
        <path
           class="cls-4"
           d="m 131.41,101.07 a 18.3,18.3 0 0 0 -1.67,-2.41 v 18.8 a 19.31,19.31 0 0 0 1.67,-2.41 z"
           id="path246" />
        <path
           class="cls-4"
           d="m 68,92.41 a 30,30 0 0 0 -5.35,3.89 v 23.51 c 0.52,0.48 1.07,1 1.66,1.41 V 95.74 h 3.13 v 27.61 c 0.19,0.11 0.36,0.23 0.56,0.34 0.36,0.21 0.73,0.41 1.1,0.61 V 95.74 h 3.13 v 30.06 c 0.55,0.24 1.1,0.46 1.66,0.68 V 95.74 H 77 v 31.82 c 0.54,0.17 1.1,0.33 1.66,0.48 v -32.3 h 3.13 v 33.06 c 0.55,0.12 1.1,0.23 1.66,0.33 V 95.74 h 3.15 v 33.88 l 1.66,0.19 V 95.74 h 3.14 v 34.33 c 0.55,0 1.1,0.05 1.66,0.06 V 95.74 h 3.13 v 34.41 c 0.55,0 1.11,0 1.66,-0.05 V 95.74 H 101 v 34.16 l 1.66,-0.17 v -34 h 3.14 v 33.55 l 1.66,-0.31 V 95.74 h 3.13 v 32.54 l 1.66,-0.46 V 95.74 h 3.13 v 31.07 l 1.67,-0.64 V 95.74 h 3.13 v 29 c 0.56,-0.29 1.12,-0.58 1.66,-0.88 V 95.74 H 125 v 26.15 c 0.59,-0.42 1.14,-0.85 1.66,-1.29 V 95.74 h 0.28 a 30.84,30.84 0 0 0 -4.73,-3.33 46.06,46.06 0 0 0 -11.76,-4.62 H 79.74 A 46,46 0 0 0 68,92.41 Z"
           id="path248" />
        <path
           class="cls-4"
           d="m 59.5,99.86 a 18,18 0 0 0 -1.18,1.94 h -0.48 v 11.46 a 16.57,16.57 0 0 0 1.66,3 z"
           id="path250" />
      </g>
      <ellipse
         class="cls-8"
         cx="95.07"
         cy="101.8"
         rx="38.310001"
         ry="22.120001"
         id="ellipse254" />
      <path
         class="cls-15"
         d="m 103.65,105.58 c 11,-6.36 13.91,-15.63 8.71,-23.52 C 98,77.86 80,79.23 68,86.16 c -11,6.36 -13.91,15.62 -8.71,23.51 14.36,4.2 32.36,2.84 44.36,-4.09 z"
         id="path256" />
      <path
         class="cls-16"
         d="m 122.16,117.43 c -15,8.64 -39.21,8.64 -54.17,0 -7.23,-4.17 -11,-9.6 -11.2,-15.06 -0.26,5.84 3.47,11.74 11.2,16.2 15,8.64 39.21,8.64 54.17,0 7.73,-4.46 11.45,-10.35 11.19,-16.2 -0.24,5.47 -3.96,10.89 -11.19,15.06 z"
         id="path258" />
      <ellipse
         class="cls-4"
         cx="95.07"
         cy="101.8"
         rx="27.190001"
         ry="15.7"
         id="ellipse260" />
      <path
         class="cls-5"
         d="m 75.85,92.13 c 10.61,-6.13 27.83,-6.13 38.45,0 5,2.88 7.64,6.61 7.93,10.38 0.34,-4.25 -2.31,-8.57 -7.93,-11.81 -10.62,-6.13 -27.84,-6.13 -38.45,0 -5.63,3.24 -8.27,7.56 -7.94,11.81 0.3,-3.77 2.94,-7.51 7.94,-10.38 z"
         id="path262" />
      <path
         class="cls-5"
         d="m 108.44,94.38 -2.1,0.61 0.6,0.23 -2.06,1.19 a 11.68,11.68 0 0 0 -5.22,-1.22 9.93,9.93 0 0 0 -5,1.36 7.87,7.87 0 0 0 -1.52,1.1 3.15,3.15 0 0 0 -0.81,1.16 3.7,3.7 0 0 0 -0.33,1.12 5.64,5.64 0 0 0 0,1.2 l 0.24,1.92 a 5.88,5.88 0 0 1 0,1.35 2.36,2.36 0 0 1 -0.46,1.09 3.68,3.68 0 0 1 -1.2,1 2.46,2.46 0 0 1 -2.59,0.19 c -0.57,-0.33 -0.72,-0.74 -0.44,-1.24 a 6.85,6.85 0 0 1 2.3,-1.85 v -1.44 l -1.8,0.68 -2.59,-1.1 a 8.38,8.38 0 0 0 -3.08,2.76 l -0.29,-0.34 v 1.42 0 c 0,1 0.75,1.92 2.24,2.86 l -1,0.59 -1.39,-0.63 v 1.44 l 1.25,0.72 2.44,-1.41 a 10.68,10.68 0 0 0 4.93,1 9.71,9.71 0 0 0 4.66,-1.25 7.68,7.68 0 0 0 1.78,-1.21 3.94,3.94 0 0 0 0.91,-1.34 4.62,4.62 0 0 0 0.34,-1.31 6.54,6.54 0 0 0 0,-1.4 L 98,101.77 c 0,-0.37 0,-0.64 0,-0.81 a 4,4 0 0 1 0.09,-0.71 1.64,1.64 0 0 1 0.42,-0.8 4.05,4.05 0 0 1 0.9,-0.68 3.73,3.73 0 0 1 1.38,-0.44 2.28,2.28 0 0 1 1.39,0.23 1.32,1.32 0 0 1 0.43,0.34 0.4,0.4 0 0 1 0.07,0.24 l -2.14,0.44 V 101 l 4.34,1.94 c 0.36,-0.23 0.68,-0.44 1,-0.63 a 10,10 0 0 0 0.88,-0.7 5.67,5.67 0 0 0 0.73,-0.79 2.74,2.74 0 0 0 0.41,-0.84 2.26,2.26 0 0 0 0.07,-0.43 v 0 -1.5 l -0.56,0.11 v 0 a 4.91,4.91 0 0 0 -1.16,-1 l 2.28,-1.32 z"
         id="path264" />
      <path
         class="cls-8"
         d="m 82.05,108.42 2.42,-1.4 c -1.65,-1 -2.39,-2.11 -2.22,-3.19 0.17,-1.08 1.29,-2.25 3.35,-3.51 l 4.4,1.86 a 6.85,6.85 0 0 0 -2.3,1.85 c -0.28,0.5 -0.13,0.91 0.44,1.24 a 2.46,2.46 0 0 0 2.59,-0.19 3.68,3.68 0 0 0 1.2,-1 2.36,2.36 0 0 0 0.46,-1.09 5.88,5.88 0 0 0 0,-1.35 l -0.24,-1.92 a 5.64,5.64 0 0 1 0,-1.2 3.7,3.7 0 0 1 0.27,-1.12 3.23,3.23 0 0 1 0.81,-1.16 7.87,7.87 0 0 1 1.52,-1.1 9.93,9.93 0 0 1 5,-1.36 11.68,11.68 0 0 1 5.13,1.22 l 2.29,-1.32 1.27,0.73 -2.28,1.32 a 4.91,4.91 0 0 1 1.16,1 2.49,2.49 0 0 1 0.53,1 1.8,1.8 0 0 1 0,0.92 2.74,2.74 0 0 1 -0.41,0.84 5.16,5.16 0 0 1 -0.73,0.79 10,10 0 0 1 -0.88,0.7 c -0.27,0.19 -0.59,0.4 -1,0.63 l -4.34,-1.94 0.81,-0.5 c 0.21,-0.14 0.43,-0.29 0.64,-0.45 a 2.71,2.71 0 0 0 0.48,-0.43 1.27,1.27 0 0 0 0.2,-0.38 0.39,0.39 0 0 0 -0.06,-0.36 1.32,1.32 0 0 0 -0.43,-0.34 2.28,2.28 0 0 0 -1.39,-0.23 3.73,3.73 0 0 0 -1.38,0.44 4.05,4.05 0 0 0 -0.9,0.68 1.64,1.64 0 0 0 -0.42,0.8 4,4 0 0 0 -0.09,0.71 c 0,0.17 0,0.44 0,0.81 l 0.21,1.86 a 6.54,6.54 0 0 1 0,1.4 4.62,4.62 0 0 1 -0.34,1.31 3.94,3.94 0 0 1 -0.91,1.34 7.68,7.68 0 0 1 -1.65,1.22 9.71,9.71 0 0 1 -4.66,1.25 10.68,10.68 0 0 1 -4.93,-1 l -2.44,1.41 z"
         id="path266" />
      <path
         class="cls-5"
         d="m 136.11,95.54 h -1.55 c -1.75,-3.44 -5,-6.68 -9.67,-9.39 -15,-8.63 -39.21,-8.63 -54.17,0 -4.69,2.71 -7.91,5.95 -9.66,9.39 H 59.5 v 6.25 0 c 0,5.66 3.74,11.32 11.22,15.64 15,8.64 39.22,8.64 54.17,0 7.48,-4.32 11.22,-10 11.22,-15.64 v 0 z"
         id="path268" />
      <path
         class="cls-8"
         d="m 89.5,80.21 a 50.66,50.66 0 0 0 -18.78,5.94 c -4.69,2.71 -7.91,5.95 -9.66,9.39 H 59.5 v 6.25 c 0,5.66 3.74,11.32 11.22,15.64 a 50.85,50.85 0 0 0 18.78,5.95 z"
         id="path270" />
      <path
         class="cls-4"
         d="m 125,117.37 c 7.41,-4.31 11.11,-10 11.11,-15.58 v -6.25 h -1.55 a 22.43,22.43 0 0 0 -7.69,-8.15 H 125 Z"
         id="path272" />
      <g
         class="cls-14"
         id="g280">
        <path
           class="cls-4"
           d="m 134.14,94.81 a 18.2,18.2 0 0 0 -1.66,-2.41 v 18.8 a 18.2,18.2 0 0 0 1.66,-2.41 z"
           id="path274" />
        <path
           class="cls-4"
           d="M 70.72,86.15 A 30,30 0 0 0 65.37,90 v 23.51 c 0.52,0.48 1.07,1 1.66,1.41 V 89.48 h 3.14 v 27.61 l 0.55,0.34 c 0.36,0.21 0.74,0.41 1.11,0.61 V 89.48 H 75 v 30.06 c 0.55,0.24 1.1,0.46 1.66,0.68 V 89.48 h 3.13 v 31.82 c 0.55,0.17 1.11,0.33 1.66,0.48 v -32.3 h 3.14 v 33.06 c 0.55,0.12 1.1,0.22 1.66,0.33 V 89.48 h 3.13 v 33.88 l 1.66,0.19 V 89.48 h 3.13 v 34.33 l 1.66,0.06 V 89.48 h 3.14 v 34.41 c 0.55,0 1.1,0 1.66,0 V 89.48 h 3.13 v 34.16 l 1.66,-0.17 v -34 h 3.13 V 123 l 1.67,-0.31 V 89.48 h 3.13 V 122 l 1.66,-0.46 V 89.48 h 3.13 v 31.07 c 0.56,-0.21 1.12,-0.42 1.66,-0.64 V 89.48 h 3.13 v 29 c 0.57,-0.29 1.12,-0.58 1.67,-0.88 V 89.48 h 3.13 v 26.15 c 0.58,-0.42 1.13,-0.85 1.66,-1.29 V 89.48 h 0.28 a 31,31 0 0 0 -4.74,-3.33 46,46 0 0 0 -11.75,-4.62 h -30.7 a 46.06,46.06 0 0 0 -11.76,4.62 z"
           id="path276" />
        <path
           class="cls-4"
           d="m 62.24,93.6 a 18,18 0 0 0 -1.18,1.94 H 60.58 V 107 a 16,16 0 0 0 1.66,3 z"
           id="path278" />
      </g>
      <ellipse
         class="cls-8"
         cx="97.809998"
         cy="95.540001"
         rx="38.310001"
         ry="22.120001"
         id="ellipse282" />
      <path
         class="cls-15"
         d="m 106.39,99.32 c 11,-6.36 13.91,-15.63 8.7,-23.52 -14.37,-4.2 -32.36,-2.8 -44.37,4.1 -11,6.36 -13.9,15.62 -8.7,23.51 14.37,4.2 32.36,2.84 44.37,-4.09 z"
         id="path284" />
      <path
         class="cls-16"
         d="m 124.89,111.17 c -15,8.64 -39.21,8.64 -54.17,0 -7.23,-4.17 -10.95,-9.6 -11.19,-15.06 -0.26,5.84 3.46,11.74 11.19,16.2 15,8.64 39.22,8.64 54.17,0 7.74,-4.46 11.46,-10.35 11.2,-16.2 -0.24,5.47 -3.97,10.89 -11.2,15.06 z"
         id="path286" />
      <ellipse
         class="cls-4"
         cx="97.809998"
         cy="95.540001"
         rx="27.190001"
         ry="15.7"
         id="ellipse288" />
      <path
         class="cls-5"
         d="m 78.58,85.87 c 10.62,-6.13 27.84,-6.13 38.45,0 5,2.88 7.64,6.61 7.94,10.38 C 125.3,92 122.66,87.68 117.03,84.44 106.42,78.31 89.2,78.31 78.58,84.44 73,87.68 70.31,92 70.65,96.25 71,92.48 73.59,88.75 78.58,85.87 Z"
         id="path290" />
      <path
         class="cls-5"
         d="m 111.18,88.12 -2.11,0.61 0.6,0.23 -2.06,1.19 a 11.61,11.61 0 0 0 -5.21,-1.22 10,10 0 0 0 -5,1.36 7.77,7.77 0 0 0 -1.51,1.1 3.31,3.31 0 0 0 -0.89,1.16 4,4 0 0 0 -0.26,1.12 6.3,6.3 0 0 0 0,1.2 l 0.25,1.92 a 6.51,6.51 0 0 1 0.05,1.35 2.59,2.59 0 0 1 -0.46,1.09 3.62,3.62 0 0 1 -1.21,1 2.47,2.47 0 0 1 -2.58,0.19 c -0.58,-0.33 -0.72,-0.74 -0.44,-1.24 a 6.66,6.66 0 0 1 2.29,-1.85 v -1.41 l -1.8,0.68 -2.59,-1.1 a 8.42,8.42 0 0 0 -3.07,2.76 l -0.3,-0.34 v 1.42 0 c 0,1 0.75,1.92 2.23,2.86 l -1,0.59 -1.39,-0.63 v 1.44 l 1.25,0.72 2.44,-1.41 a 10.68,10.68 0 0 0 4.93,1 9.64,9.64 0 0 0 4.65,-1.25 7.21,7.21 0 0 0 1.65,-1.22 4,4 0 0 0 0.92,-1.34 5,5 0 0 0 0.34,-1.31 7.31,7.31 0 0 0 0,-1.4 l -0.2,-1.86 c 0,-0.37 -0.05,-0.64 -0.05,-0.81 a 4,4 0 0 1 0.09,-0.71 1.64,1.64 0 0 1 0.42,-0.8 4.05,4.05 0 0 1 0.9,-0.68 3.62,3.62 0 0 1 1.38,-0.44 2.23,2.23 0 0 1 1.38,0.23 1.22,1.22 0 0 1 0.43,0.34 0.35,0.35 0 0 1 0.08,0.24 l -2.14,0.44 v 1.44 l 4.34,1.94 1,-0.63 c 0.28,-0.2 0.57,-0.43 0.88,-0.7 a 5.54,5.54 0 0 0 0.72,-0.79 2.76,2.76 0 0 0 0.42,-0.84 2.26,2.26 0 0 0 0.07,-0.43 v 0 -1.55 l -0.55,0.12 v 0 a 5.12,5.12 0 0 0 -1.16,-1 l 2.28,-1.32 z"
         id="path292" />
      <path
         class="cls-8"
         d="m 84.79,102.16 2.41,-1.4 c -1.65,-1 -2.38,-2.11 -2.21,-3.19 0.17,-1.08 1.29,-2.25 3.34,-3.51 l 4.39,1.86 a 6.66,6.66 0 0 0 -2.29,1.85 c -0.28,0.5 -0.14,0.91 0.44,1.24 a 2.44,2.44 0 0 0 2.58,-0.19 3.62,3.62 0 0 0 1.21,-1 2.59,2.59 0 0 0 0.46,-1.09 6.51,6.51 0 0 0 -0.05,-1.35 l -0.25,-1.92 a 6.3,6.3 0 0 1 0,-1.2 4,4 0 0 1 0.18,-1.15 3.31,3.31 0 0 1 0.86,-1.11 7.77,7.77 0 0 1 1.51,-1.1 10,10 0 0 1 5,-1.36 11.61,11.61 0 0 1 5.21,1.22 l 2.3,-1.32 1.27,0.73 -2.28,1.32 a 5.12,5.12 0 0 1 1.16,1 2.63,2.63 0 0 1 0.53,0.95 1.8,1.8 0 0 1 0,0.92 2.76,2.76 0 0 1 -0.42,0.84 5.54,5.54 0 0 1 -0.72,0.79 c -0.31,0.27 -0.6,0.5 -0.88,0.7 l -1,0.63 -4.34,-1.94 0.81,-0.5 0.64,-0.45 a 2.71,2.71 0 0 0 0.48,-0.43 1.27,1.27 0 0 0 0.2,-0.38 0.37,0.37 0 0 0 -0.07,-0.36 1.22,1.22 0 0 0 -0.43,-0.34 2.23,2.23 0 0 0 -1.38,-0.23 3.62,3.62 0 0 0 -1.38,0.44 4.05,4.05 0 0 0 -0.9,0.68 1.64,1.64 0 0 0 -0.42,0.8 4,4 0 0 0 -0.09,0.71 c 0,0.17 0,0.44 0.05,0.81 l 0.2,1.86 a 7.31,7.31 0 0 1 0,1.4 5,5 0 0 1 -0.34,1.31 4,4 0 0 1 -0.92,1.34 7.21,7.21 0 0 1 -1.65,1.22 9.64,9.64 0 0 1 -4.65,1.25 10.68,10.68 0 0 1 -4.93,-1 L 86,102.88 Z"
         id="path294" />
      <path
         class="cls-5"
         d="m 128.42,87.9 h -1.56 c -1.75,-3.44 -5,-6.68 -9.66,-9.39 -15,-8.63 -39.21,-8.63 -54.17,0 -4.69,2.71 -7.91,5.95 -9.66,9.39 h -1.56 v 6.25 0 c 0,5.66 3.74,11.32 11.22,15.64 15,8.64 39.21,8.64 54.17,0 7.48,-4.32 11.22,-10 11.22,-15.64 v 0 z"
         id="path296" />
      <path
         class="cls-8"
         d="M 81.81,72.57 A 50.6,50.6 0 0 0 63,78.51 c -4.69,2.71 -7.91,5.95 -9.66,9.39 h -1.53 v 6.25 c 0,5.66 3.74,11.32 11.22,15.64 a 50.79,50.79 0 0 0 18.78,5.95 z"
         id="path298" />
      <path
         class="cls-4"
         d="m 117.3,109.73 c 7.41,-4.31 11.12,-10 11.12,-15.58 V 87.9 h -1.56 a 22.35,22.35 0 0 0 -7.69,-8.15 h -1.87 z"
         id="path300" />
      <g
         class="cls-14"
         id="g308">
        <path
           class="cls-4"
           d="m 126.45,87.17 a 18.2,18.2 0 0 0 -1.66,-2.41 v 18.8 a 18.2,18.2 0 0 0 1.66,-2.41 z"
           id="path302" />
        <path
           class="cls-4"
           d="m 63,78.51 a 30,30 0 0 0 -5.35,3.89 v 23.51 c 0.52,0.48 1.07,1 1.66,1.41 V 81.84 h 3.13 v 27.61 l 0.56,0.34 c 0.36,0.21 0.73,0.41 1.1,0.61 V 81.84 h 3.14 v 30.06 c 0.54,0.24 1.09,0.46 1.66,0.68 V 81.84 h 3.13 v 31.82 c 0.55,0.17 1.1,0.33 1.66,0.48 v -32.3 h 3.13 v 33.06 c 0.55,0.12 1.11,0.22 1.66,0.33 V 81.84 h 3.14 v 33.88 l 1.66,0.19 V 81.84 h 3.13 v 34.33 c 0.55,0 1.11,0 1.66,0.06 V 81.84 h 3.13 v 34.41 c 0.56,0 1.11,0 1.66,0 V 81.84 H 96 V 116 l 1.66,-0.17 v -34 h 3.13 v 33.55 l 1.66,-0.31 V 81.84 h 3.13 v 32.54 c 0.56,-0.15 1.12,-0.3 1.66,-0.46 V 81.84 h 3.14 v 31.07 l 1.66,-0.64 V 81.84 h 3.13 v 29 c 0.56,-0.29 1.12,-0.58 1.66,-0.88 V 81.84 H 120 V 108 c 0.59,-0.42 1.14,-0.85 1.67,-1.29 V 81.84 h 0.27 a 30.84,30.84 0 0 0 -4.73,-3.33 46.14,46.14 0 0 0 -11.75,-4.62 H 74.78 A 46.14,46.14 0 0 0 63,78.51 Z"
           id="path304" />
        <path
           class="cls-4"
           d="m 54.55,86 a 16.48,16.48 0 0 0 -1.18,1.94 h -0.49 v 11.42 a 16.63,16.63 0 0 0 1.67,3 z"
           id="path306" />
      </g>
      <ellipse
         class="cls-8"
         cx="90.110001"
         cy="87.900002"
         rx="38.310001"
         ry="22.120001"
         id="ellipse310" />
      <path
         class="cls-15"
         d="m 98.7,91.68 c 11,-6.36 13.9,-15.63 8.7,-23.52 C 93,64 75,65.33 63,72.26 52,78.62 49.09,87.88 54.29,95.77 68.69,100 86.69,98.61 98.7,91.68 Z"
         id="path312" />
      <path
         class="cls-16"
         d="m 117.2,103.53 c -15,8.64 -39.21,8.64 -54.17,0 -7.23,-4.17 -11,-9.6 -11.2,-15.06 -0.26,5.84 3.47,11.74 11.2,16.2 15,8.64 39.21,8.64 54.17,0 7.73,-4.46 11.46,-10.35 11.2,-16.2 -0.25,5.47 -3.97,10.89 -11.2,15.06 z"
         id="path314" />
      <ellipse
         class="cls-4"
         cx="90.110001"
         cy="87.900002"
         rx="27.190001"
         ry="15.7"
         id="ellipse316" />
      <path
         class="cls-5"
         d="m 70.89,78.23 c 10.62,-6.13 27.83,-6.13 38.45,0 5,2.88 7.64,6.61 7.94,10.38 0.33,-4.25 -2.31,-8.57 -7.94,-11.81 -10.62,-6.13 -27.83,-6.13 -38.45,0 -5.63,3.2 -8.27,7.56 -7.89,11.81 0.25,-3.77 2.9,-7.5 7.89,-10.38 z"
         id="path318" />
      <path
         class="cls-5"
         d="m 103.49,80.48 -2.11,0.61 0.6,0.23 -2.06,1.19 a 11.62,11.62 0 0 0 -5.22,-1.22 10,10 0 0 0 -5,1.36 7.87,7.87 0 0 0 -1.52,1.1 3.15,3.15 0 0 0 -0.81,1.16 4.41,4.41 0 0 0 -0.29,1.09 6.39,6.39 0 0 0 0,1.2 l 0.24,1.92 a 5.36,5.36 0 0 1 0,1.35 2.44,2.44 0 0 1 -0.32,1.12 3.83,3.83 0 0 1 -1.21,1 2.46,2.46 0 0 1 -2.59,0.19 C 82.63,92.45 82.48,92.04 82.77,91.54 A 6.56,6.56 0 0 1 85,89.72 v -1.44 l -1.8,0.68 -2.59,-1.1 a 8.25,8.25 0 0 0 -3.07,2.76 l -0.3,-0.34 v 1.42 0 c 0,1 0.75,1.92 2.23,2.86 l -1,0.59 -1.39,-0.63 V 96 l 1.24,0.72 2.44,-1.41 a 10.72,10.72 0 0 0 4.94,1 9.64,9.64 0 0 0 4.67,-1.31 7.68,7.68 0 0 0 1.63,-1.22 4.13,4.13 0 0 0 0.92,-1.34 5.4,5.4 0 0 0 0.34,-1.31 7.31,7.31 0 0 0 0,-1.4 l -0.21,-1.86 c 0,-0.37 0,-0.64 0,-0.81 a 4,4 0 0 1 0.09,-0.71 1.64,1.64 0 0 1 0.42,-0.8 3.75,3.75 0 0 1 2.28,-1.12 2.26,2.26 0 0 1 1.38,0.23 1.22,1.22 0 0 1 0.43,0.34 0.35,0.35 0 0 1 0.08,0.24 l -2.15,0.44 v 1.44 l 4.35,1.94 0.95,-0.63 a 9.89,9.89 0 0 0 0.87,-0.7 5.12,5.12 0 0 0 0.73,-0.79 2.74,2.74 0 0 0 0.41,-0.84 1.33,1.33 0 0 0 0.07,-0.43 v 0 -1.52 l -0.55,0.11 v 0 a 5.35,5.35 0 0 0 -1.16,-1 l 2.28,-1.32 z"
         id="path320" />
      <path
         class="cls-8"
         d="m 77.1,94.52 2.41,-1.4 c -1.65,-1 -2.39,-2.11 -2.21,-3.19 0.18,-1.08 1.28,-2.25 3.34,-3.51 L 85,88.28 a 6.67,6.67 0 0 0 -2.29,1.85 c -0.29,0.5 -0.14,0.91 0.43,1.24 a 2.46,2.46 0 0 0 2.59,-0.19 3.83,3.83 0 0 0 1.21,-1 2.44,2.44 0 0 0 0.45,-1.09 5.36,5.36 0 0 0 0,-1.35 l -0.24,-1.92 a 6.39,6.39 0 0 1 0,-1.2 4.41,4.41 0 0 1 0.27,-1.12 3.15,3.15 0 0 1 0.81,-1.16 8.19,8.19 0 0 1 1.52,-1.1 10,10 0 0 1 5,-1.36 11.62,11.62 0 0 1 5.22,1.22 l 2.29,-1.32 1.28,0.73 -2.28,1.32 a 5.35,5.35 0 0 1 1.16,1 2.59,2.59 0 0 1 0.52,0.95 1.61,1.61 0 0 1 0,0.92 2.74,2.74 0 0 1 -0.41,0.84 5.12,5.12 0 0 1 -0.73,0.79 9.89,9.89 0 0 1 -0.87,0.7 l -0.95,0.63 -4.35,-1.94 0.81,-0.5 0.65,-0.45 A 2.59,2.59 0 0 0 97.56,84.34 1.11,1.11 0 0 0 97.77,83.96 0.39,0.39 0 0 0 97.7,83.6 1.22,1.22 0 0 0 97.27,83.26 2.26,2.26 0 0 0 95.81,83 a 3.75,3.75 0 0 0 -2.28,1.12 1.64,1.64 0 0 0 -0.42,0.8 4,4 0 0 0 -0.09,0.71 c 0,0.17 0,0.44 0,0.81 l 0.21,1.86 a 7.31,7.31 0 0 1 0,1.4 5.4,5.4 0 0 1 -0.29,1.3 4.13,4.13 0 0 1 -0.94,1.34 7.68,7.68 0 0 1 -1.65,1.22 9.64,9.64 0 0 1 -4.65,1.25 10.72,10.72 0 0 1 -4.94,-1 l -2.44,1.41 z"
         id="path322" />
      <path
         class="cls-5"
         d="m 191.47,167.2 h -1.55 c -1.75,-3.43 -5,-6.67 -9.67,-9.38 -15,-8.64 -39.21,-8.64 -54.17,0 -4.69,2.71 -7.91,6 -9.66,9.38 h -1.56 v 6.26 0 c 0,5.66 3.74,11.32 11.22,15.63 15,8.64 39.22,8.64 54.18,0 7.47,-4.32 11.21,-10 11.21,-15.64 v 0 z"
         id="path324" />
      <path
         class="cls-8"
         d="m 144.86,151.87 a 50.85,50.85 0 0 0 -18.78,5.95 c -4.69,2.71 -7.91,6 -9.66,9.38 h -1.56 v 6.26 c 0,5.66 3.74,11.32 11.22,15.63 a 50.85,50.85 0 0 0 18.78,5.91 z"
         id="path326" />
      <path
         class="cls-4"
         d="m 180.36,189 c 7.41,-4.31 11.11,-9.94 11.11,-15.57 v -6.23 h -1.55 a 22.33,22.33 0 0 0 -7.69,-8.14 h -1.87 z"
         id="path328" />
      <g
         class="cls-14"
         id="g336">
        <path
           class="cls-4"
           d="m 189.5,166.47 a 18.79,18.79 0 0 0 -1.66,-2.4 v 18.8 a 18.2,18.2 0 0 0 1.66,-2.41 z"
           id="path330" />
        <path
           class="cls-4"
           d="m 126.08,157.82 a 30.49,30.49 0 0 0 -5.35,3.88 v 23.52 c 0.52,0.47 1.07,0.95 1.66,1.4 v -25.48 h 3.14 v 27.62 l 0.55,0.33 c 0.36,0.21 0.74,0.41 1.11,0.61 v -28.56 h 3.13 v 30.07 c 0.55,0.23 1.1,0.46 1.66,0.67 v -30.74 h 3.13 V 193 l 1.66,0.49 v -32.35 h 3.14 v 33.06 c 0.55,0.12 1.1,0.23 1.66,0.33 v -33.39 h 3.13 V 195 l 1.66,0.2 v -34.06 h 3.13 v 34.33 l 1.66,0.07 v -34.4 h 3.14 v 34.42 l 1.66,-0.05 v -34.37 h 3.13 v 34.16 l 1.66,-0.16 v -34 h 3.13 v 33.55 c 0.56,-0.09 1.11,-0.19 1.67,-0.3 v -33.25 h 3.13 v 32.54 c 0.56,-0.14 1.11,-0.29 1.66,-0.45 v -32.09 h 3.13 v 31.07 c 0.56,-0.2 1.12,-0.41 1.66,-0.63 v -30.44 h 3.13 v 29 c 0.57,-0.28 1.12,-0.57 1.67,-0.88 v -28.12 h 3.13 v 26.15 c 0.58,-0.42 1.13,-0.85 1.66,-1.29 V 161.14 H 185 a 30.92,30.92 0 0 0 -4.74,-3.32 46,46 0 0 0 -11.75,-4.63 h -30.67 a 46.08,46.08 0 0 0 -11.76,4.63 z"
           id="path332" />
        <path
           class="cls-4"
           d="m 117.6,165.26 a 19,19 0 0 0 -1.18,1.94 h -0.48 v 11.47 a 16.5,16.5 0 0 0 1.66,3 z"
           id="path334" />
      </g>
      <ellipse
         class="cls-8"
         cx="153.17"
         cy="167.2"
         rx="38.310001"
         ry="22.120001"
         id="ellipse338" />
      <path
         class="cls-15"
         d="m 161.75,171 c 11,-6.36 13.91,-15.62 8.7,-23.51 -14.37,-4.2 -32.36,-2.84 -44.37,4.09 -11,6.36 -13.9,15.63 -8.7,23.52 14.37,4.18 32.36,2.81 44.37,-4.1 z"
         id="path340" />
      <path
         class="cls-16"
         d="m 180.26,182.84 c -15,8.64 -39.22,8.64 -54.18,0 -7.23,-4.17 -11,-9.6 -11.19,-15.07 -0.26,5.85 3.46,11.75 11.19,16.21 15,8.64 39.22,8.64 54.18,0 7.73,-4.46 11.45,-10.36 11.19,-16.21 -0.24,5.47 -3.97,10.9 -11.19,15.07 z"
         id="path342" />
      <ellipse
         class="cls-4"
         cx="153.17"
         cy="167.2"
         rx="27.190001"
         ry="15.7"
         id="ellipse344" />
      <path
         class="cls-5"
         d="m 133.94,157.53 c 10.62,-6.13 27.84,-6.13 38.45,0 5,2.89 7.64,6.61 7.94,10.39 0.33,-4.25 -2.31,-8.57 -7.94,-11.82 -10.61,-6.13 -27.83,-6.13 -38.45,0 -5.62,3.25 -8.27,7.56 -7.93,11.82 0.3,-3.78 2.99,-7.5 7.93,-10.39 z"
         id="path346" />
      <path
         class="cls-5"
         d="m 166.54,159.79 -2.11,0.6 0.6,0.24 -2.03,1.19 a 11.48,11.48 0 0 0 -5.21,-1.22 10,10 0 0 0 -5,1.36 7.38,7.38 0 0 0 -1.51,1.1 3.31,3.31 0 0 0 -0.82,1.16 3.85,3.85 0 0 0 -0.26,1.11 6.41,6.41 0 0 0 0,1.21 l 0.25,1.92 a 6.4,6.4 0 0 1 0,1.34 2.42,2.42 0 0 1 -0.46,1.09 3.64,3.64 0 0 1 -1.21,1 2.44,2.44 0 0 1 -2.58,0.18 c -0.58,-0.33 -0.72,-0.74 -0.44,-1.23 a 6.54,6.54 0 0 1 2.29,-1.85 v -1.44 l -1.8,0.67 -2.59,-1.1 a 8.59,8.59 0 0 0 -3.07,2.76 l -0.3,-0.33 v 1.45 0 c 0,1 0.75,1.93 2.23,2.87 l -1,0.59 -1.39,-0.64 v 1.44 l 1.25,0.72 2.44,-1.41 a 10.56,10.56 0 0 0 4.93,1 9.86,9.86 0 0 0 4.65,-1.25 7.53,7.53 0 0 0 1.65,-1.23 4,4 0 0 0 0.92,-1.33 5,5 0 0 0 0.34,-1.32 7.31,7.31 0 0 0 0,-1.4 l -0.2,-1.85 c 0,-0.38 -0.05,-0.65 -0.05,-0.82 a 3.9,3.9 0 0 1 0.09,-0.7 1.59,1.59 0 0 1 0.42,-0.8 3.77,3.77 0 0 1 0.9,-0.68 3.45,3.45 0 0 1 1.38,-0.44 2.16,2.16 0 0 1 1.38,0.23 1.23,1.23 0 0 1 0.43,0.33 0.38,0.38 0 0 1 0.08,0.24 L 158.6,165 v 1.44 l 4.34,1.93 c 0.36,-0.22 0.67,-0.43 1,-0.63 a 8.13,8.13 0 0 0 0.88,-0.7 5,5 0 0 0 0.72,-0.78 2.7,2.7 0 0 0 0.42,-0.85 A 2.26,2.26 0 0 0 166,165 v 0 -1.52 l -0.55,0.12 v 0 a 5.12,5.12 0 0 0 -1.16,-1 l 2.28,-1.32 z"
         id="path348" />
      <path
         class="cls-8"
         d="m 140.15,173.82 2.41,-1.39 c -1.65,-1.05 -2.38,-2.11 -2.21,-3.19 0.17,-1.08 1.29,-2.26 3.34,-3.52 l 4.39,1.87 a 6.54,6.54 0 0 0 -2.29,1.85 c -0.28,0.49 -0.14,0.9 0.44,1.24 a 2.47,2.47 0 0 0 2.58,-0.19 3.64,3.64 0 0 0 1.21,-1 2.42,2.42 0 0 0 0.46,-1.09 6.42,6.42 0 0 0 0,-1.34 l -0.25,-1.92 a 6.38,6.38 0 0 1 0,-1.21 3.85,3.85 0 0 1 0.26,-1.11 3.31,3.31 0 0 1 0.82,-1.16 7.38,7.38 0 0 1 1.51,-1.1 10,10 0 0 1 5,-1.36 11.61,11.61 0 0 1 5.21,1.22 l 2.3,-1.33 1.27,0.74 -2.28,1.32 a 5.12,5.12 0 0 1 1.16,1 2.55,2.55 0 0 1 0.53,1 1.76,1.76 0 0 1 0,0.91 2.7,2.7 0 0 1 -0.42,0.85 5,5 0 0 1 -0.72,0.78 8.13,8.13 0 0 1 -0.88,0.7 c -0.28,0.2 -0.59,0.41 -1,0.63 l -4.38,-2.02 0.81,-0.51 a 7.56,7.56 0 0 0 0.64,-0.45 2.73,2.73 0 0 0 0.48,-0.42 1.27,1.27 0 0 0 0.2,-0.38 0.39,0.39 0 0 0 -0.07,-0.37 1.23,1.23 0 0 0 -0.43,-0.33 2.16,2.16 0 0 0 -1.38,-0.23 3.45,3.45 0 0 0 -1.38,0.44 3.77,3.77 0 0 0 -0.9,0.68 1.59,1.59 0 0 0 -0.42,0.8 3.9,3.9 0 0 0 -0.09,0.7 c 0,0.17 0,0.44 0.05,0.82 l 0.2,1.85 a 7.31,7.31 0 0 1 0,1.4 5,5 0 0 1 -0.34,1.32 4,4 0 0 1 -0.92,1.33 7.53,7.53 0 0 1 -1.65,1.23 9.86,9.86 0 0 1 -4.65,1.25 10.56,10.56 0 0 1 -4.93,-1 l -2.44,1.41 z"
         id="path350" />
      <path
         class="cls-5"
         d="m 191.47,160.94 h -1.55 c -1.75,-3.43 -5,-6.67 -9.67,-9.38 -15,-8.64 -39.21,-8.64 -54.17,0 -4.69,2.71 -7.91,5.95 -9.66,9.38 h -1.56 v 6.26 0 c 0,5.66 3.74,11.32 11.22,15.63 15,8.64 39.22,8.64 54.18,0 7.47,-4.31 11.21,-10 11.21,-15.63 v 0 z"
         id="path352" />
      <path
         class="cls-8"
         d="m 144.86,145.61 a 50.85,50.85 0 0 0 -18.78,5.95 c -4.69,2.71 -7.91,5.95 -9.66,9.38 h -1.56 v 6.26 c 0,5.66 3.74,11.32 11.22,15.63 a 50.85,50.85 0 0 0 18.78,5.95 z"
         id="path354" />
      <path
         class="cls-4"
         d="m 180.36,182.77 c 7.41,-4.31 11.11,-9.94 11.11,-15.57 v -6.26 h -1.55 a 22.33,22.33 0 0 0 -7.69,-8.14 h -1.87 z"
         id="path356" />
      <g
         class="cls-14"
         id="g364">
        <path
           class="cls-4"
           d="m 189.5,160.21 a 18.12,18.12 0 0 0 -1.66,-2.4 v 18.8 a 18.88,18.88 0 0 0 1.66,-2.41 z"
           id="path358" />
        <path
           class="cls-4"
           d="m 126.08,151.56 a 30.49,30.49 0 0 0 -5.35,3.88 V 179 c 0.52,0.47 1.07,0.95 1.66,1.4 v -25.52 h 3.14 v 27.62 l 0.55,0.33 c 0.36,0.21 0.74,0.41 1.11,0.61 v -28.56 h 3.13 V 185 c 0.55,0.23 1.1,0.46 1.66,0.67 v -30.79 h 3.13 v 31.82 l 1.66,0.49 v -32.31 h 3.14 v 33.06 c 0.55,0.12 1.1,0.23 1.66,0.33 v -33.39 h 3.13 v 33.88 l 1.66,0.2 v -34.08 h 3.13 v 34.33 l 1.66,0.07 v -34.4 h 3.14 v 34.42 l 1.66,-0.05 v -34.37 h 3.13 V 189 c 0.56,0 1.11,-0.1 1.66,-0.17 v -34 h 3.13 v 33.55 c 0.56,-0.09 1.11,-0.19 1.67,-0.3 v -33.2 h 3.13 v 32.54 c 0.56,-0.14 1.11,-0.29 1.66,-0.45 v -32.09 h 3.13 V 186 c 0.56,-0.2 1.12,-0.41 1.66,-0.63 v -30.49 h 3.13 v 29 c 0.57,-0.28 1.12,-0.57 1.67,-0.88 v -28.12 h 3.13 V 181 c 0.58,-0.42 1.13,-0.85 1.66,-1.29 V 154.88 H 185 a 30.92,30.92 0 0 0 -4.74,-3.32 46,46 0 0 0 -11.75,-4.63 h -30.67 a 46.08,46.08 0 0 0 -11.76,4.63 z"
           id="path360" />
        <path
           class="cls-4"
           d="m 117.6,159 a 19,19 0 0 0 -1.18,1.94 h -0.48 v 11.47 a 16.5,16.5 0 0 0 1.66,3 z"
           id="path362" />
      </g>
      <ellipse
         class="cls-8"
         cx="153.17"
         cy="160.94"
         rx="38.310001"
         ry="22.120001"
         id="ellipse366" />
      <path
         class="cls-15"
         d="m 161.75,164.72 c 11,-6.36 13.91,-15.62 8.7,-23.51 -14.37,-4.2 -32.36,-2.84 -44.37,4.09 -11,6.36 -13.9,15.63 -8.7,23.52 14.37,4.18 32.36,2.83 44.37,-4.1 z"
         id="path368" />
      <path
         class="cls-16"
         d="m 180.26,176.58 c -15,8.64 -39.22,8.64 -54.18,0 -7.23,-4.17 -11,-9.6 -11.19,-15.07 -0.26,5.85 3.46,11.75 11.19,16.21 15,8.64 39.22,8.64 54.18,0 7.73,-4.46 11.45,-10.36 11.19,-16.21 -0.24,5.49 -3.97,10.9 -11.19,15.07 z"
         id="path370" />
      <ellipse
         class="cls-4"
         cx="153.17"
         cy="160.94"
         rx="27.190001"
         ry="15.7"
         id="ellipse372" />
      <path
         class="cls-5"
         d="m 133.94,151.27 c 10.62,-6.13 27.84,-6.13 38.45,0 5,2.89 7.64,6.61 7.94,10.39 0.33,-4.25 -2.31,-8.57 -7.94,-11.82 -10.61,-6.13 -27.83,-6.13 -38.45,0 -5.62,3.25 -8.27,7.56 -7.93,11.82 0.3,-3.78 2.99,-7.5 7.93,-10.39 z"
         id="path374" />
      <path
         class="cls-5"
         d="m 166.54,153.53 -2.11,0.6 0.6,0.24 -2.03,1.19 a 11.48,11.48 0 0 0 -5.21,-1.22 10,10 0 0 0 -5,1.36 7.38,7.38 0 0 0 -1.51,1.1 3.31,3.31 0 0 0 -0.82,1.16 3.85,3.85 0 0 0 -0.26,1.11 6.41,6.41 0 0 0 0,1.21 l 0.25,1.92 a 6.4,6.4 0 0 1 0,1.34 2.42,2.42 0 0 1 -0.46,1.09 3.64,3.64 0 0 1 -1.21,1 2.44,2.44 0 0 1 -2.58,0.18 c -0.58,-0.33 -0.72,-0.74 -0.44,-1.23 a 6.54,6.54 0 0 1 2.29,-1.85 v -1.44 l -1.8,0.67 -2.59,-1.1 a 8.5,8.5 0 0 0 -3.07,2.76 l -0.3,-0.33 v 1.41 0 c 0,1 0.75,1.93 2.23,2.87 l -1,0.59 -1.39,-0.64 V 169 l 1.25,0.72 2.44,-1.41 a 10.56,10.56 0 0 0 4.93,1 9.86,9.86 0 0 0 4.65,-1.25 7.53,7.53 0 0 0 1.65,-1.23 4,4 0 0 0 0.92,-1.33 5,5 0 0 0 0.34,-1.32 7.31,7.31 0 0 0 0,-1.4 l -0.2,-1.85 c 0,-0.38 -0.05,-0.65 -0.05,-0.82 a 3.9,3.9 0 0 1 0.09,-0.7 1.59,1.59 0 0 1 0.42,-0.8 3.77,3.77 0 0 1 0.9,-0.68 3.45,3.45 0 0 1 1.38,-0.44 2.16,2.16 0 0 1 1.38,0.23 1.12,1.12 0 0 1 0.43,0.33 0.38,0.38 0 0 1 0.08,0.24 l -2.14,0.45 v 1.44 l 4.4,1.92 c 0.36,-0.22 0.67,-0.43 1,-0.63 a 8.13,8.13 0 0 0 0.88,-0.7 5,5 0 0 0 0.72,-0.78 2.7,2.7 0 0 0 0.42,-0.85 2.26,2.26 0 0 0 0.07,-0.43 v 0 -1.51 l -0.55,0.11 v 0 a 5.12,5.12 0 0 0 -1.16,-1 l 2.28,-1.32 z"
         id="path376" />
      <path
         class="cls-8"
         d="m 140.15,167.56 2.41,-1.39 c -1.65,-1 -2.38,-2.11 -2.21,-3.19 0.17,-1.08 1.29,-2.26 3.34,-3.52 l 4.39,1.87 a 6.54,6.54 0 0 0 -2.29,1.85 c -0.28,0.49 -0.14,0.9 0.44,1.23 a 2.44,2.44 0 0 0 2.58,-0.18 3.64,3.64 0 0 0 1.21,-1 2.42,2.42 0 0 0 0.46,-1.09 6.4,6.4 0 0 0 0,-1.34 l -0.25,-1.92 a 6.41,6.41 0 0 1 0,-1.21 3.85,3.85 0 0 1 0.26,-1.11 3.31,3.31 0 0 1 0.82,-1.16 7.38,7.38 0 0 1 1.51,-1.1 10,10 0 0 1 5,-1.36 11.48,11.48 0 0 1 5.21,1.22 l 2.3,-1.33 1.27,0.74 -2.28,1.32 a 5.12,5.12 0 0 1 1.16,1 2.48,2.48 0 0 1 0.53,0.95 1.76,1.76 0 0 1 0,0.91 2.7,2.7 0 0 1 -0.42,0.85 5,5 0 0 1 -0.72,0.78 8.13,8.13 0 0 1 -0.88,0.7 c -0.28,0.2 -0.59,0.41 -1,0.63 l -4.34,-1.93 0.81,-0.51 a 7.56,7.56 0 0 0 0.64,-0.45 2.73,2.73 0 0 0 0.48,-0.42 1.4,1.4 0 0 0 0.2,-0.38 0.38,0.38 0 0 0 -0.07,-0.37 1.12,1.12 0 0 0 -0.43,-0.33 2.16,2.16 0 0 0 -1.38,-0.23 3.45,3.45 0 0 0 -1.38,0.44 3.77,3.77 0 0 0 -0.9,0.68 1.59,1.59 0 0 0 -0.42,0.8 3.9,3.9 0 0 0 -0.09,0.7 c 0,0.17 0,0.44 0.05,0.82 l 0.2,1.85 a 7.31,7.31 0 0 1 0,1.4 5,5 0 0 1 -0.34,1.32 4,4 0 0 1 -0.92,1.33 7.53,7.53 0 0 1 -1.65,1.23 9.86,9.86 0 0 1 -4.65,1.25 10.56,10.56 0 0 1 -4.93,-1 l -2.44,1.41 z"
         id="path378" />
      <path
         class="cls-5"
         d="m 186.11,158 h -1.56 c -1.75,-3.44 -5,-6.67 -9.66,-9.38 -15,-8.64 -39.21,-8.64 -54.17,0 -4.69,2.71 -7.91,5.95 -9.66,9.39 h -1.56 v 6.25 0 c 0,5.66 3.74,11.32 11.22,15.64 15,8.64 39.21,8.64 54.17,0 7.48,-4.32 11.22,-10 11.22,-15.64 v 0 z"
         id="path380" />
      <path
         class="cls-8"
         d="m 139.5,142.67 a 50.79,50.79 0 0 0 -18.78,5.94 c -4.69,2.71 -7.91,5.95 -9.66,9.39 h -1.56 v 6.25 c 0,5.66 3.74,11.32 11.22,15.64 a 50.79,50.79 0 0 0 18.78,6 z"
         id="path382" />
      <path
         class="cls-4"
         d="m 175,179.83 c 7.4,-4.31 11.11,-9.94 11.11,-15.58 V 158 h -1.56 a 22.35,22.35 0 0 0 -7.69,-8.15 H 175 Z"
         id="path384" />
      <g
         class="cls-14"
         id="g392">
        <path
           class="cls-4"
           d="m 184.14,157.27 a 17.49,17.49 0 0 0 -1.66,-2.4 v 18.79 a 18.12,18.12 0 0 0 1.66,-2.4 z"
           id="path386" />
        <path
           class="cls-4"
           d="m 120.72,148.61 a 30,30 0 0 0 -5.35,3.89 V 176 c 0.52,0.48 1.07,1 1.66,1.41 v -25.47 h 3.13 v 27.61 l 0.56,0.34 c 0.36,0.21 0.73,0.41 1.1,0.61 V 151.94 H 125 V 182 c 0.54,0.24 1.1,0.46 1.66,0.68 v -30.74 h 3.13 v 31.82 c 0.55,0.17 1.1,0.33 1.66,0.48 v -32.3 h 3.13 V 185 c 0.55,0.12 1.11,0.23 1.66,0.33 v -33.39 h 3.14 v 33.88 c 0.55,0.07 1.1,0.14 1.66,0.19 v -34.07 h 3.13 v 34.33 l 1.66,0.07 v -34.4 h 3.13 v 34.41 c 0.56,0 1.11,0 1.67,0 v -34.41 h 3.13 v 34.16 c 0.55,0 1.11,-0.1 1.66,-0.17 v -34 h 3.13 v 33.55 c 0.56,-0.09 1.11,-0.2 1.66,-0.3 v -33.24 h 3.13 v 32.54 c 0.56,-0.14 1.12,-0.3 1.67,-0.45 v -32.09 h 3.13 V 183 c 0.56,-0.2 1.11,-0.42 1.66,-0.64 v -30.42 h 3.13 v 29 c 0.57,-0.28 1.12,-0.58 1.66,-0.88 v -28.12 h 3.13 v 26.15 c 0.59,-0.42 1.14,-0.85 1.67,-1.29 v -24.86 h 0.27 a 30.33,30.33 0 0 0 -4.73,-3.32 45.79,45.79 0 0 0 -11.79,-4.62 h -30.67 a 46.14,46.14 0 0 0 -11.75,4.61 z"
           id="path388" />
        <path
           class="cls-4"
           d="m 112.24,156.06 a 16.48,16.48 0 0 0 -1.18,1.94 h -0.48 v 11.46 a 16,16 0 0 0 1.66,3 z"
           id="path390" />
      </g>
      <ellipse
         class="cls-8"
         cx="147.81"
         cy="158"
         rx="38.310001"
         ry="22.120001"
         id="ellipse394" />
      <path
         class="cls-15"
         d="m 156.39,161.78 c 11,-6.36 13.9,-15.63 8.7,-23.52 -14.37,-4.19 -32.36,-2.83 -44.37,4.1 -11,6.36 -13.91,15.62 -8.71,23.51 14.38,4.2 32.37,2.84 44.38,-4.09 z"
         id="path396" />
      <path
         class="cls-16"
         d="m 174.89,173.64 c -15,8.63 -39.21,8.63 -54.17,0 -7.23,-4.18 -11,-9.6 -11.2,-15.07 -0.26,5.85 3.47,11.74 11.2,16.21 15,8.63 39.21,8.63 54.17,0 7.73,-4.47 11.46,-10.36 11.2,-16.21 -0.25,5.43 -3.97,10.89 -11.2,15.07 z"
         id="path398" />
      <path
         class="cls-4"
         d="m 167,169.1 c -10.62,6.13 -27.83,6.13 -38.45,0 -10.62,-6.13 -10.62,-16.07 0,-22.2 10.62,-6.13 27.83,-6.13 38.45,0 10.62,6.13 10.65,16.1 0,22.2 z"
         id="path400" />
      <path
         class="cls-5"
         d="m 128.58,148.33 c 10.62,-6.13 27.83,-6.13 38.45,0 5,2.88 7.64,6.61 7.94,10.39 0.33,-4.26 -2.31,-8.57 -7.94,-11.82 -10.62,-6.13 -27.83,-6.13 -38.45,0 -5.63,3.25 -8.27,7.56 -7.93,11.81 0.29,-3.77 2.94,-7.5 7.93,-10.38 z"
         id="path402" />
      <path
         class="cls-5"
         d="m 161.18,150.59 -2.11,0.6 0.6,0.24 -2.06,1.18 a 11.75,11.75 0 0 0 -5.22,-1.22 10.06,10.06 0 0 0 -5,1.36 8.19,8.19 0 0 0 -1.52,1.1 3.18,3.18 0 0 0 -0.87,1.15 4.25,4.25 0 0 0 -0.27,1.11 6.53,6.53 0 0 0 0,1.21 l 0.24,1.91 a 5.36,5.36 0 0 1 0.05,1.35 2.44,2.44 0 0 1 -0.45,1.09 3.71,3.71 0 0 1 -1.21,1 2.44,2.44 0 0 1 -2.58,0.19 c -0.58,-0.33 -0.73,-0.74 -0.44,-1.24 a 6.78,6.78 0 0 1 2.29,-1.85 v -1.44 l -1.8,0.68 -2.59,-1.1 a 8.25,8.25 0 0 0 -3.07,2.76 l -0.3,-0.33 v 1.41 0 c 0,1 0.75,1.92 2.23,2.86 l -1,0.59 -1.39,-0.63 v 1.44 l 1.25,0.72 2.43,-1.41 a 10.72,10.72 0 0 0 4.94,1 9.75,9.75 0 0 0 4.65,-1.26 7.68,7.68 0 0 0 1.65,-1.22 4,4 0 0 0 0.92,-1.34 5.29,5.29 0 0 0 0.34,-1.31 7.31,7.31 0 0 0 0,-1.4 l -0.21,-1.86 c 0,-0.37 0,-0.64 0,-0.81 a 3.79,3.79 0 0 1 0.09,-0.7 1.67,1.67 0 0 1 0.42,-0.81 3.76,3.76 0 0 1 0.89,-0.68 3.92,3.92 0 0 1 1.39,-0.44 2.26,2.26 0 0 1 1.38,0.23 1.22,1.22 0 0 1 0.43,0.34 0.35,0.35 0 0 1 0.08,0.24 l -2.15,0.44 v 1.44 l 4.35,1.94 0.95,-0.63 a 8.34,8.34 0 0 0 0.87,-0.7 4.7,4.7 0 0 0 0.73,-0.79 2.63,2.63 0 0 0 0.41,-0.84 1.33,1.33 0 0 0 0.07,-0.43 v 0 -1.51 l -0.55,0.11 v 0 a 5.12,5.12 0 0 0 -1.16,-1 l 2.28,-1.32 z"
         id="path404" />
      <path
         class="cls-8"
         d="m 134.79,164.62 2.41,-1.4 c -1.65,-1 -2.39,-2.11 -2.21,-3.19 0.18,-1.08 1.28,-2.25 3.34,-3.51 l 4.39,1.86 a 6.78,6.78 0 0 0 -2.29,1.85 c -0.29,0.5 -0.14,0.91 0.44,1.24 a 2.44,2.44 0 0 0 2.58,-0.19 3.71,3.71 0 0 0 1.21,-1 2.44,2.44 0 0 0 0.45,-1.09 5.36,5.36 0 0 0 -0.05,-1.35 l -0.24,-1.91 a 6.53,6.53 0 0 1 0,-1.21 4.25,4.25 0 0 1 0.27,-1.11 3.18,3.18 0 0 1 0.81,-1.17 8.19,8.19 0 0 1 1.52,-1.1 10.06,10.06 0 0 1 5,-1.36 11.75,11.75 0 0 1 5.22,1.22 l 2.29,-1.32 1.28,0.74 -2.28,1.31 a 5.12,5.12 0 0 1 1.16,1 2.59,2.59 0 0 1 0.52,1 1.61,1.61 0 0 1 0,0.92 2.63,2.63 0 0 1 -0.41,0.84 4.7,4.7 0 0 1 -0.73,0.79 8.34,8.34 0 0 1 -0.87,0.7 l -0.95,0.63 -4.35,-1.94 0.82,-0.5 0.64,-0.45 a 2.59,2.59 0 0 0 0.47,-0.43 1.07,1.07 0 0 0 0.21,-0.37 0.38,0.38 0 0 0 -0.07,-0.37 1.22,1.22 0 0 0 -0.43,-0.34 2.26,2.26 0 0 0 -1.38,-0.23 3.92,3.92 0 0 0 -1.39,0.44 3.76,3.76 0 0 0 -0.89,0.68 1.67,1.67 0 0 0 -0.42,0.81 3.79,3.79 0 0 0 -0.09,0.7 c 0,0.17 0,0.44 0,0.81 l 0.21,1.86 a 7.31,7.31 0 0 1 0,1.4 5.29,5.29 0 0 1 -0.34,1.31 4,4 0 0 1 -0.92,1.34 7.68,7.68 0 0 1 -1.65,1.22 9.75,9.75 0 0 1 -4.65,1.26 10.72,10.72 0 0 1 -4.94,-1 l -2.48,1.33 z"
         id="path406" />
      <path
         class="cls-5"
         d="m 191.47,148.42 h -1.55 c -1.75,-3.43 -5,-6.67 -9.67,-9.38 -15,-8.64 -39.21,-8.64 -54.17,0 -4.69,2.71 -7.91,6 -9.66,9.38 h -1.56 v 6.26 0 c 0,5.66 3.74,11.32 11.22,15.63 15,8.64 39.22,8.64 54.18,0 7.47,-4.31 11.21,-10 11.21,-15.63 v 0 z"
         id="path408" />
      <path
         class="cls-8"
         d="M 144.86,133.09 A 50.85,50.85 0 0 0 126.08,139 c -4.69,2.71 -7.91,6 -9.66,9.38 h -1.56 v 6.26 c 0,5.66 3.74,11.32 11.22,15.63 a 50.85,50.85 0 0 0 18.78,5.95 z"
         id="path410" />
      <path
         class="cls-4"
         d="m 180.36,170.25 c 7.41,-4.31 11.11,-9.94 11.11,-15.57 v -6.26 h -1.55 a 22.43,22.43 0 0 0 -7.69,-8.15 h -1.87 z"
         id="path412" />
      <g
         class="cls-14"
         id="g420">
        <path
           class="cls-4"
           d="m 189.5,147.69 a 18.12,18.12 0 0 0 -1.66,-2.4 v 18.8 a 18.88,18.88 0 0 0 1.66,-2.41 z"
           id="path414" />
        <path
           class="cls-4"
           d="m 126.08,139 a 30.49,30.49 0 0 0 -5.35,3.88 v 23.52 c 0.52,0.47 1.07,0.94 1.66,1.4 v -25.44 h 3.14 V 170 l 0.55,0.34 c 0.36,0.21 0.74,0.41 1.11,0.61 v -28.59 h 3.13 v 30.06 c 0.55,0.24 1.1,0.47 1.66,0.68 v -30.74 h 3.13 v 31.82 l 1.66,0.49 v -32.31 h 3.14 v 33.06 c 0.55,0.12 1.1,0.23 1.66,0.33 v -33.39 h 3.13 v 33.88 l 1.66,0.2 v -34.08 h 3.13 v 34.33 l 1.66,0.07 v -34.4 h 3.14 v 34.42 l 1.66,-0.05 v -34.37 h 3.13 v 34.16 c 0.56,-0.05 1.11,-0.1 1.66,-0.17 v -34 h 3.13 v 33.55 c 0.56,-0.09 1.11,-0.19 1.67,-0.3 v -33.24 h 3.13 v 32.54 c 0.56,-0.14 1.11,-0.29 1.66,-0.45 v -32.09 h 3.13 v 31.07 c 0.56,-0.2 1.12,-0.41 1.66,-0.63 v -30.44 h 3.13 v 29 c 0.57,-0.28 1.12,-0.57 1.67,-0.88 v -28.12 h 3.13 v 26.15 c 0.58,-0.42 1.13,-0.85 1.66,-1.29 V 142.36 H 185 a 30.92,30.92 0 0 0 -4.74,-3.32 45.65,45.65 0 0 0 -11.75,-4.63 H 137.84 A 45.72,45.72 0 0 0 126.08,139 Z"
           id="path416" />
        <path
           class="cls-4"
           d="m 117.6,146.48 a 19,19 0 0 0 -1.18,1.94 h -0.48 v 11.47 a 16.5,16.5 0 0 0 1.66,3 z"
           id="path418" />
      </g>
      <ellipse
         class="cls-8"
         cx="153.17"
         cy="148.42"
         rx="38.310001"
         ry="22.120001"
         id="ellipse422" />
      <path
         class="cls-15"
         d="m 161.75,152.2 c 11,-6.36 13.91,-15.62 8.7,-23.51 -14.37,-4.2 -32.36,-2.84 -44.37,4.09 -11,6.36 -13.9,15.62 -8.7,23.52 14.37,4.19 32.36,2.83 44.37,-4.1 z"
         id="path424" />
      <path
         class="cls-16"
         d="m 180.26,164.06 c -15,8.64 -39.22,8.64 -54.18,0 -7.23,-4.18 -11,-9.6 -11.19,-15.07 -0.26,5.85 3.46,11.75 11.19,16.21 15,8.64 39.22,8.64 54.18,0 7.73,-4.46 11.45,-10.36 11.19,-16.21 -0.24,5.47 -3.97,10.9 -11.19,15.07 z"
         id="path426" />
      <ellipse
         class="cls-4"
         cx="153.17"
         cy="148.42"
         rx="27.190001"
         ry="15.7"
         id="ellipse428" />
      <path
         class="cls-5"
         d="m 133.94,138.75 c 10.62,-6.13 27.84,-6.13 38.45,0 5,2.89 7.64,6.61 7.94,10.39 0.33,-4.26 -2.31,-8.57 -7.94,-11.82 -10.61,-6.13 -27.83,-6.13 -38.45,0 -5.62,3.25 -8.27,7.56 -7.93,11.82 0.3,-3.78 2.99,-7.5 7.93,-10.39 z"
         id="path430" />
      <path
         class="cls-5"
         d="m 166.54,141 -2.11,0.6 0.6,0.24 L 163,143 a 11.48,11.48 0 0 0 -5.21,-1.22 10,10 0 0 0 -5,1.36 7.38,7.38 0 0 0 -1.51,1.1 3.31,3.31 0 0 0 -0.82,1.16 3.85,3.85 0 0 0 -0.26,1.11 6.41,6.41 0 0 0 0,1.21 l 0.25,1.92 a 6.4,6.4 0 0 1 0,1.34 2.42,2.42 0 0 1 -0.46,1.09 3.64,3.64 0 0 1 -1.21,1 2.44,2.44 0 0 1 -2.58,0.18 c -0.58,-0.33 -0.72,-0.74 -0.44,-1.24 a 6.78,6.78 0 0 1 2.29,-1.85 v -1.36 l -1.8,0.68 -2.59,-1.1 a 8.5,8.5 0 0 0 -3.07,2.76 l -0.3,-0.33 v 1.41 0 c 0,1 0.75,1.92 2.23,2.87 l -1,0.59 -1.39,-0.64 v 1.44 l 1.25,0.72 2.44,-1.41 a 10.56,10.56 0 0 0 4.93,1 9.86,9.86 0 0 0 4.65,-1.25 7.53,7.53 0 0 0 1.65,-1.23 4,4 0 0 0 0.95,-1.31 5,5 0 0 0 0.34,-1.32 7.31,7.31 0 0 0 0,-1.4 l -0.2,-1.85 c 0,-0.38 -0.05,-0.65 -0.05,-0.82 a 3.79,3.79 0 0 1 0.09,-0.7 1.59,1.59 0 0 1 0.42,-0.8 3.77,3.77 0 0 1 0.9,-0.68 3.45,3.45 0 0 1 1.38,-0.44 2.16,2.16 0 0 1 1.38,0.23 1,1 0 0 1 0.43,0.33 0.38,0.38 0 0 1 0.08,0.24 l -2.14,0.45 v 1.44 l 4.34,1.93 c 0.36,-0.23 0.67,-0.43 1,-0.63 a 9.58,9.58 0 0 0 0.88,-0.7 5,5 0 0 0 0.72,-0.78 2.7,2.7 0 0 0 0.42,-0.85 2.26,2.26 0 0 0 0.07,-0.43 v 0 -1.51 l -0.55,0.11 v 0 a 5.4,5.4 0 0 0 -1.16,-1 l 2.28,-1.31 z"
         id="path432" />
      <path
         class="cls-8"
         d="m 140.15,155 2.41,-1.39 c -1.65,-1.05 -2.38,-2.11 -2.21,-3.2 0.17,-1.09 1.29,-2.25 3.34,-3.51 l 4.39,1.86 a 6.78,6.78 0 0 0 -2.29,1.85 c -0.28,0.5 -0.14,0.91 0.44,1.24 a 2.44,2.44 0 0 0 2.58,-0.18 3.64,3.64 0 0 0 1.21,-1 2.42,2.42 0 0 0 0.46,-1.09 6.4,6.4 0 0 0 0,-1.34 l -0.25,-1.92 a 6.41,6.41 0 0 1 0,-1.21 3.85,3.85 0 0 1 0.26,-1.11 3.31,3.31 0 0 1 0.82,-1.16 7.38,7.38 0 0 1 1.51,-1.1 10,10 0 0 1 5,-1.36 11.48,11.48 0 0 1 5.18,1.22 l 2.3,-1.33 1.27,0.74 -2.28,1.31 a 5.4,5.4 0 0 1 1.16,1 2.48,2.48 0 0 1 0.53,1 1.77,1.77 0 0 1 0,0.91 2.7,2.7 0 0 1 -0.42,0.85 5,5 0 0 1 -0.72,0.78 8.13,8.13 0 0 1 -0.88,0.7 c -0.28,0.2 -0.59,0.41 -1,0.63 l -4.34,-1.93 0.81,-0.51 a 7.56,7.56 0 0 0 0.64,-0.45 2.73,2.73 0 0 0 0.48,-0.42 1.4,1.4 0 0 0 0.2,-0.38 0.38,0.38 0 0 0 -0.07,-0.37 1.12,1.12 0 0 0 -0.43,-0.33 2.16,2.16 0 0 0 -1.38,-0.23 3.45,3.45 0 0 0 -1.38,0.44 3.77,3.77 0 0 0 -0.9,0.68 1.59,1.59 0 0 0 -0.42,0.8 3.79,3.79 0 0 0 -0.09,0.7 c 0,0.17 0,0.44 0.05,0.82 l 0.2,1.85 a 7.31,7.31 0 0 1 0,1.4 5,5 0 0 1 -0.34,1.32 4,4 0 0 1 -0.92,1.33 7.53,7.53 0 0 1 -1.65,1.23 9.86,9.86 0 0 1 -4.65,1.25 10.56,10.56 0 0 1 -4.93,-1 l -2.44,1.41 z"
         id="path434" />
      <path
         class="cls-5"
         d="M 249.57,201.3 H 248 c -1.75,-3.43 -5,-6.67 -9.66,-9.38 -15,-8.63 -39.21,-8.63 -54.17,0 -4.69,2.71 -7.91,6 -9.66,9.38 H 173 v 6.26 0 c 0,5.66 3.74,11.32 11.22,15.64 15,8.63 39.21,8.64 54.17,0 7.48,-4.32 11.22,-10 11.22,-15.64 v 0 z"
         id="path436" />
      <path
         class="cls-8"
         d="m 203,186 a 50.79,50.79 0 0 0 -18.78,5.95 c -4.69,2.71 -7.91,6 -9.66,9.38 H 173 v 6.26 c 0,5.66 3.74,11.32 11.22,15.64 a 50.79,50.79 0 0 0 18.78,6 z"
         id="path438" />
      <path
         class="cls-4"
         d="m 238.46,223.14 c 7.4,-4.32 11.11,-9.95 11.11,-15.58 V 201.3 H 248 a 22.4,22.4 0 0 0 -7.69,-8.14 h -1.86 z"
         id="path440" />
      <g
         class="cls-14"
         id="g448">
        <path
           class="cls-4"
           d="m 247.6,200.58 a 18.2,18.2 0 0 0 -1.66,-2.41 V 217 a 18.2,18.2 0 0 0 1.66,-2.41 z"
           id="path442" />
        <path
           class="cls-4"
           d="m 184.18,191.92 a 30,30 0 0 0 -5.35,3.89 v 23.51 c 0.52,0.48 1.07,1 1.66,1.41 v -25.49 h 3.13 v 27.62 l 0.56,0.34 c 0.36,0.21 0.73,0.41 1.1,0.6 v -28.56 h 3.14 v 30.07 l 1.66,0.68 v -30.75 h 3.13 v 31.83 c 0.55,0.17 1.1,0.33 1.66,0.48 V 195.24 H 198 v 33.07 l 1.66,0.32 v -33.39 h 3.14 v 33.89 l 1.66,0.19 v -34.08 h 3.13 v 34.33 c 0.55,0 1.11,0.06 1.66,0.07 v -34.4 h 3.13 v 34.42 h 1.66 v -34.42 h 3.14 v 34.17 l 1.66,-0.17 v -34 H 222 v 33.56 l 1.66,-0.31 v -33.25 h 3.13 v 32.54 c 0.56,-0.14 1.12,-0.29 1.67,-0.45 v -32.09 h 3.13 v 31.08 l 1.66,-0.64 v -30.44 h 3.13 v 29 c 0.57,-0.29 1.12,-0.58 1.66,-0.89 v -28.11 h 3.13 v 26.16 c 0.59,-0.42 1.14,-0.86 1.67,-1.29 v -24.87 h 0.27 a 31.52,31.52 0 0 0 -4.73,-3.32 46.52,46.52 0 0 0 -11.75,-4.63 h -30.7 a 46.52,46.52 0 0 0 -11.75,4.63 z"
           id="path444" />
        <path
           class="cls-4"
           d="m 175.7,199.37 a 16.37,16.37 0 0 0 -1.18,1.93 H 174 v 11.47 a 16.3,16.3 0 0 0 1.66,3 z"
           id="path446" />
      </g>
      <ellipse
         class="cls-8"
         cx="211.27"
         cy="201.3"
         rx="38.310001"
         ry="22.120001"
         id="ellipse450" />
      <path
         class="cls-15"
         d="m 219.85,205.08 c 11,-6.35 13.9,-15.62 8.7,-23.51 -14.37,-4.2 -32.36,-2.84 -44.37,4.1 -11,6.35 -13.91,15.62 -8.71,23.51 14.38,4.2 32.37,2.82 44.38,-4.1 z"
         id="path452" />
      <path
         class="cls-16"
         d="m 238.35,216.94 c -15,8.64 -39.21,8.64 -54.17,0 -7.23,-4.17 -11,-9.6 -11.2,-15.07 -0.26,5.85 3.47,11.75 11.2,16.21 15,8.64 39.21,8.64 54.17,0 7.73,-4.46 11.46,-10.36 11.2,-16.2 -0.25,5.46 -3.97,10.89 -11.2,15.06 z"
         id="path454" />
      <ellipse
         class="cls-4"
         cx="211.27"
         cy="201.3"
         rx="27.190001"
         ry="15.7"
         id="ellipse456" />
      <path
         class="cls-5"
         d="m 192,191.64 c 10.62,-6.13 27.83,-6.13 38.45,0 5,2.88 7.64,6.61 7.94,10.38 0.33,-4.25 -2.31,-8.57 -7.94,-11.82 -10.62,-6.13 -27.83,-6.13 -38.45,0 -5.63,3.25 -8.27,7.57 -7.93,11.82 0.33,-3.77 2.98,-7.5 7.93,-10.38 z"
         id="path458" />
      <path
         class="cls-5"
         d="m 224.64,193.89 -2.11,0.6 0.6,0.24 -2.06,1.19 a 11.62,11.62 0 0 0 -5.22,-1.22 10,10 0 0 0 -5,1.36 8.19,8.19 0 0 0 -1.52,1.1 3.15,3.15 0 0 0 -0.81,1.16 4.32,4.32 0 0 0 -0.27,1.12 6.39,6.39 0 0 0 0.05,1.2 l 0.24,1.92 a 5.36,5.36 0 0 1 0,1.35 2.44,2.44 0 0 1 -0.45,1.09 3.83,3.83 0 0 1 -1.21,1 2.47,2.47 0 0 1 -2.58,0.19 c -0.58,-0.33 -0.73,-0.75 -0.44,-1.24 a 6.66,6.66 0 0 1 2.29,-1.85 v -1.44 l -1.8,0.67 -2.59,-1.09 a 8.33,8.33 0 0 0 -3.07,2.75 l -0.3,-0.33 v 1.41 0 c 0,1 0.75,1.93 2.23,2.87 l -1,0.59 -1.39,-0.64 v 1.44 l 1.24,0.73 2.44,-1.41 a 10.72,10.72 0 0 0 4.94,1 9.75,9.75 0 0 0 4.65,-1.25 8,8 0 0 0 1.65,-1.22 4,4 0 0 0 0.92,-1.34 5.36,5.36 0 0 0 0.34,-1.32 7.21,7.21 0 0 0 0,-1.39 l -0.21,-1.86 c 0,-0.37 0,-0.65 0,-0.81 a 3.88,3.88 0 0 1 0.09,-0.71 1.59,1.59 0 0 1 0.42,-0.8 3.75,3.75 0 0 1 2.28,-1.12 2.19,2.19 0 0 1 1.38,0.23 1.33,1.33 0 0 1 0.43,0.33 0.38,0.38 0 0 1 0.08,0.24 l -2.15,0.45 v 1.44 l 4.35,1.93 0.95,-0.62 a 9.89,9.89 0 0 0 0.87,-0.7 5.12,5.12 0 0 0 0.73,-0.79 2.68,2.68 0 0 0 0.41,-0.85 1.25,1.25 0 0 0 0.07,-0.43 v 0 -1.52 l -0.55,0.12 c 0,0 0,0 0,0 a 5.12,5.12 0 0 0 -1.16,-1 l 2.28,-1.32 z"
         id="path460" />
      <path
         class="cls-8"
         d="m 198.25,207.92 2.41,-1.39 c -1.65,-1.05 -2.39,-2.11 -2.21,-3.19 0.18,-1.08 1.28,-2.25 3.34,-3.51 l 4.39,1.86 a 6.66,6.66 0 0 0 -2.29,1.85 c -0.29,0.49 -0.14,0.91 0.44,1.24 a 2.47,2.47 0 0 0 2.58,-0.19 3.83,3.83 0 0 0 1.21,-1 2.44,2.44 0 0 0 0.45,-1.09 5.36,5.36 0 0 0 0,-1.35 l -0.24,-1.92 a 6.39,6.39 0 0 1 -0.05,-1.2 4.32,4.32 0 0 1 0.27,-1.12 3.15,3.15 0 0 1 0.81,-1.16 8.19,8.19 0 0 1 1.52,-1.1 10,10 0 0 1 5,-1.36 11.62,11.62 0 0 1 5.22,1.22 l 2.29,-1.32 1.28,0.73 -2.28,1.32 a 5.12,5.12 0 0 1 1.16,1 2.59,2.59 0 0 1 0.52,1 1.57,1.57 0 0 1 0,0.91 2.68,2.68 0 0 1 -0.41,0.85 5.12,5.12 0 0 1 -0.73,0.79 9.89,9.89 0 0 1 -0.87,0.7 l -0.95,0.62 -4.35,-1.93 0.82,-0.5 0.64,-0.45 a 3,3 0 0 0 0.47,-0.43 1.11,1.11 0 0 0 0.21,-0.38 0.39,0.39 0 0 0 -0.07,-0.37 1.33,1.33 0 0 0 -0.43,-0.33 2.19,2.19 0 0 0 -1.38,-0.23 3.75,3.75 0 0 0 -2.28,1.12 1.59,1.59 0 0 0 -0.42,0.8 3.88,3.88 0 0 0 -0.09,0.71 c 0,0.17 0,0.44 0,0.81 l 0.21,1.86 a 7.21,7.21 0 0 1 0,1.39 5.36,5.36 0 0 1 -0.34,1.32 4,4 0 0 1 -0.92,1.34 8,8 0 0 1 -1.65,1.22 9.75,9.75 0 0 1 -4.65,1.25 10.72,10.72 0 0 1 -4.94,-1 l -2.44,1.41 z"
         id="path462" />
      <path
         class="cls-5"
         d="m 254.17,191.92 h -1.56 c -1.75,-3.44 -5,-6.68 -9.66,-9.39 -15,-8.63 -39.21,-8.63 -54.17,0 -4.7,2.71 -7.92,5.95 -9.66,9.39 h -1.56 v 6.25 0 c 0,5.66 3.74,11.32 11.22,15.64 15,8.64 39.21,8.64 54.17,0 7.48,-4.32 11.22,-10 11.22,-15.64 v 0 z"
         id="path464" />
      <path
         class="cls-8"
         d="m 207.55,176.59 a 50.74,50.74 0 0 0 -18.77,5.94 c -4.7,2.71 -7.92,5.95 -9.66,9.39 h -1.56 v 6.25 c 0,5.66 3.74,11.32 11.22,15.64 a 50.74,50.74 0 0 0 18.77,5.95 z"
         id="path466" />
      <path
         class="cls-4"
         d="m 243.05,213.75 c 7.41,-4.31 11.12,-9.95 11.12,-15.58 v -6.25 h -1.56 a 22.35,22.35 0 0 0 -7.69,-8.15 h -1.87 z"
         id="path468" />
      <g
         class="cls-14"
         id="g476">
        <path
           class="cls-4"
           d="m 252.2,191.19 a 18.3,18.3 0 0 0 -1.67,-2.41 v 18.8 a 16.81,16.81 0 0 0 1.67,-2.41 z"
           id="path470" />
        <path
           class="cls-4"
           d="m 188.78,182.53 a 30,30 0 0 0 -5.35,3.89 v 23.51 c 0.52,0.48 1.07,0.95 1.66,1.41 v -25.48 h 3.13 v 27.61 l 0.56,0.34 c 0.36,0.21 0.73,0.41 1.1,0.61 V 185.86 H 193 v 30.06 c 0.55,0.24 1.1,0.46 1.66,0.68 v -30.74 h 3.14 v 31.82 c 0.55,0.17 1.1,0.33 1.66,0.48 v -32.3 h 3.13 v 33.06 c 0.55,0.12 1.1,0.23 1.66,0.33 v -33.39 h 3.13 v 33.88 l 1.67,0.19 v -34.07 h 3.13 v 34.33 c 0.55,0 1.1,0.05 1.66,0.06 V 185.86 H 217 v 34.41 c 0.56,0 1.11,0 1.66,-0.05 v -34.36 h 3.13 V 220 l 1.67,-0.17 v -34 h 3.13 v 33.55 c 0.55,-0.09 1.11,-0.2 1.66,-0.31 v -33.21 h 3.13 v 32.54 l 1.66,-0.46 v -32.08 h 3.13 v 31.07 c 0.57,-0.2 1.12,-0.42 1.67,-0.64 V 185.86 H 241 v 29 c 0.56,-0.28 1.12,-0.58 1.66,-0.88 v -28.12 h 3.13 V 212 c 0.59,-0.42 1.14,-0.85 1.66,-1.29 v -24.85 h 0.28 a 30.84,30.84 0 0 0 -4.73,-3.33 46.06,46.06 0 0 0 -11.76,-4.62 h -30.71 a 46,46 0 0 0 -11.75,4.62 z"
           id="path472" />
        <path
           class="cls-4"
           d="m 180.29,190 a 16.38,16.38 0 0 0 -1.17,1.94 h -0.49 v 11.46 a 16.57,16.57 0 0 0 1.66,3 z"
           id="path474" />
      </g>
      <ellipse
         class="cls-8"
         cx="215.86"
         cy="191.92"
         rx="38.310001"
         ry="22.120001"
         id="ellipse478" />
      <path
         class="cls-15"
         d="m 224.44,195.7 c 11,-6.36 13.91,-15.63 8.71,-23.52 -14.37,-4.2 -32.37,-2.83 -44.37,4.1 -11,6.36 -13.91,15.62 -8.71,23.51 14.37,4.21 32.37,2.84 44.37,-4.09 z"
         id="path480" />
      <path
         class="cls-16"
         d="m 243,207.56 c -15,8.63 -39.21,8.63 -54.17,0 -7.23,-4.17 -11,-9.6 -11.2,-15.06 -0.26,5.84 3.47,11.74 11.2,16.2 15,8.64 39.21,8.64 54.17,0 7.73,-4.47 11.45,-10.36 11.19,-16.21 -0.29,5.51 -4.01,10.89 -11.19,15.07 z"
         id="path482" />
      <ellipse
         class="cls-4"
         cx="215.86"
         cy="191.92"
         rx="27.190001"
         ry="15.7"
         id="ellipse484" />
      <path
         class="cls-5"
         d="m 196.64,182.25 c 10.61,-6.13 27.83,-6.13 38.45,0 5,2.88 7.64,6.61 7.93,10.38 0.34,-4.25 -2.31,-8.57 -7.93,-11.81 -10.62,-6.13 -27.84,-6.13 -38.45,0 -5.63,3.24 -8.27,7.56 -7.94,11.81 0.3,-3.77 2.94,-7.5 7.94,-10.38 z"
         id="path486" />
      <path
         class="cls-5"
         d="m 229.23,184.5 -2.1,0.61 0.6,0.23 -2.06,1.19 a 11.68,11.68 0 0 0 -5.22,-1.22 10,10 0 0 0 -5,1.36 7.87,7.87 0 0 0 -1.52,1.1 3.23,3.23 0 0 0 -0.81,1.16 3.7,3.7 0 0 0 -0.27,1.12 5.64,5.64 0 0 0 0,1.2 l 0.24,1.92 a 5.88,5.88 0 0 1 0,1.35 2.36,2.36 0 0 1 -0.46,1.09 3.68,3.68 0 0 1 -1.2,1 2.46,2.46 0 0 1 -2.59,0.19 c -0.57,-0.33 -0.72,-0.74 -0.44,-1.24 a 6.85,6.85 0 0 1 2.3,-1.85 v -1.41 l -1.7,0.7 -2.59,-1.1 a 8.38,8.38 0 0 0 -3.08,2.76 l -0.29,-0.34 v 1.42 0 c 0,1 0.74,1.92 2.23,2.86 l -1,0.59 -1.39,-0.63 V 200 l 1.25,0.72 2.44,-1.41 a 10.7,10.7 0 0 0 4.93,1 9.68,9.68 0 0 0 4.66,-1.25 7.68,7.68 0 0 0 1.65,-1.22 3.94,3.94 0 0 0 0.91,-1.34 4.62,4.62 0 0 0 0.34,-1.31 6.54,6.54 0 0 0 0,-1.4 l -0.21,-1.86 c 0,-0.37 -0.05,-0.64 -0.05,-0.81 a 4,4 0 0 1 0.09,-0.71 1.72,1.72 0 0 1 0.42,-0.8 4.05,4.05 0 0 1 0.9,-0.68 3.73,3.73 0 0 1 1.38,-0.44 2.28,2.28 0 0 1 1.39,0.23 1.32,1.32 0 0 1 0.43,0.34 0.4,0.4 0 0 1 0.07,0.24 l -2.14,0.44 v 1.44 l 4.34,1.94 1,-0.63 a 9.89,9.89 0 0 0 0.87,-0.7 5.16,5.16 0 0 0 0.73,-0.79 2.74,2.74 0 0 0 0.41,-0.84 2.26,2.26 0 0 0 0.07,-0.43 v 0 -1.51 l -0.56,0.11 v 0 a 4.91,4.91 0 0 0 -1.16,-1 l 2.28,-1.32 z"
         id="path488" />
      <path
         class="cls-8"
         d="m 202.84,198.54 2.42,-1.4 c -1.65,-1 -2.39,-2.11 -2.22,-3.19 0.17,-1.08 1.29,-2.25 3.35,-3.51 l 4.39,1.86 a 6.85,6.85 0 0 0 -2.3,1.85 c -0.28,0.5 -0.13,0.91 0.44,1.24 a 2.46,2.46 0 0 0 2.59,-0.19 3.68,3.68 0 0 0 1.2,-1 2.36,2.36 0 0 0 0.46,-1.09 5.88,5.88 0 0 0 0,-1.35 l -0.24,-1.92 a 5.64,5.64 0 0 1 0,-1.2 3.7,3.7 0 0 1 0.27,-1.12 3.23,3.23 0 0 1 0.81,-1.16 7.87,7.87 0 0 1 1.52,-1.1 10,10 0 0 1 5,-1.36 11.68,11.68 0 0 1 5.22,1.22 l 2.29,-1.32 1.27,0.73 -2.31,1.29 a 4.91,4.91 0 0 1 1.16,1 2.49,2.49 0 0 1 0.53,0.95 1.8,1.8 0 0 1 0,0.92 2.74,2.74 0 0 1 -0.41,0.84 5.16,5.16 0 0 1 -0.73,0.79 9.89,9.89 0 0 1 -0.87,0.7 l -1,0.63 -4.34,-1.94 0.81,-0.5 0.65,-0.45 a 3,3 0 0 0 0.47,-0.43 1.3,1.3 0 0 0 0.21,-0.38 0.39,0.39 0 0 0 -0.07,-0.36 1.32,1.32 0 0 0 -0.43,-0.34 2.28,2.28 0 0 0 -1.39,-0.23 3.73,3.73 0 0 0 -1.38,0.44 4.05,4.05 0 0 0 -0.9,0.68 1.71,1.71 0 0 0 -0.42,0.81 3.79,3.79 0 0 0 -0.09,0.7 c 0,0.17 0,0.44 0.05,0.81 l 0.21,1.86 a 6.54,6.54 0 0 1 0,1.4 4.62,4.62 0 0 1 -0.34,1.31 3.94,3.94 0 0 1 -0.91,1.34 7.68,7.68 0 0 1 -1.65,1.22 9.68,9.68 0 0 1 -4.66,1.25 10.7,10.7 0 0 1 -4.93,-1 l -2.44,1.41 z"
         id="path490" />
      <path
         class="cls-17"
         d="m 153.53,141.76 c -0.25,0.62 -4.51,5.81 -8.78,7.11 a 10,10 0 0 1 -3.91,0.54 1.29,1.29 0 0 1 -1.05,-1.72 16.19,16.19 0 0 1 8.18,-9 c 7.23,-3.6 5.56,3.07 5.56,3.07 z"
         id="path492" />
      <path
         class="cls-17"
         d="m 155,143.75 a 35,35 0 0 0 -2.1,6.92 c -0.3,1.93 0.75,4.42 1.62,6.08 a 1.78,1.78 0 0 0 2.76,0.48 10.23,10.23 0 0 0 3.46,-6.62 c 0.5,-5.31 0,-6.24 0,-6.24 z"
         id="path494" />
      <path
         class="cls-8"
         d="m 165.22,79.53 a 102.26,102.26 0 0 1 0,14.12 c -0.56,7.41 -2.55,42.09 -2.92,50.43 0,0 0.19,2.52 -4.7,2 -4.89,-0.52 -4.5,-3.36 -4.5,-3.36 0,0 -6.86,-0.1 -7.08,-4.14 -0.22,-4.04 -7,-48.33 -7,-64.25 z"
         id="path496" />
      <path
         class="cls-18"
         d="m 153.1,142.69 a 15,15 0 0 1 -2,-0.21 v 0 l -1.3,-53.89 z"
         id="path498" />
      <path
         class="cls-17"
         d="m 158,30.86 c 11.21,4.65 11,11.27 11,11.27 0,0 -2.19,24.3 -1.44,40.53 0.31,6.79 -36,7.31 -30.63,-10.79 6.4,-21.35 4,-38.62 7,-41.23 3,-2.61 11.13,-0.99 14.07,0.22 z"
         id="path500" />
      <path
         class="cls-19"
         d="M 161.57,36.73 C 161,39 158,40.21 154.91,39.41 c -3.09,-0.8 -5.13,-3.29 -4.54,-5.56 0.59,-2.27 3.57,-3.48 6.66,-2.68 3.09,0.8 5.13,3.29 4.54,5.56 z"
         id="path502" />
      <path
         class="cls-20"
         d="m 156.8,40.19 a 7.94,7.94 0 0 1 -2,-0.26 c -3.38,-0.87 -5.59,-3.66 -4.93,-6.22 0.66,-2.56 3.94,-3.93 7.32,-3.06 3.38,0.87 5.58,3.66 4.92,6.22 v 0 c -0.54,2.04 -2.73,3.32 -5.31,3.32 z m -1.68,-8.73 c -2.09,0 -3.83,1 -4.23,2.52 -0.51,2 1.35,4.19 4.15,4.91 2.8,0.72 5.5,-0.3 6,-2.29 v 0 c 0.52,-2 -1.35,-4.19 -4.15,-4.91 a 7,7 0 0 0 -1.77,-0.23 z"
         id="path504" />
      <path
         class="cls-19"
         d="m 153.47,30.35 a 26.75,26.75 0 0 1 -0.1,4 c -0.06,1.12 3.85,2.16 4.86,1.15 1.01,-1.01 0.61,-2.06 0.85,-5.86 0.24,-3.8 -5.61,0.71 -5.61,0.71 z"
         id="path506" />
      <path
         class="cls-21"
         d="m 159.08,29.64 c 0,0 -1,3.52 -5.71,4.88 l 0.07,-3.21 z"
         id="path508" />
      <path
         class="cls-19"
         d="m 162.09,20.68 a 8.63,8.63 0 1 1 -10.52,-6.19 8.63,8.63 0 0 1 10.52,6.19 z"
         id="path510" />
      <path
         class="cls-21"
         d="m 155.72,23.16 c 0,0 -4.76,2 -8.05,2.06 -3.29,0.06 -2.56,-2.73 -2.56,-2.73 l 9.77,-1.42 z"
         id="path512" />
      <path
         class="cls-7"
         d="m 146.69,23.7 c 0,0 4.14,-1.76 7.77,-1 a 3.77,3.77 0 0 1 2.2,1.31 1.33,1.33 0 0 0 0.66,0.48 c 0.65,0.14 1.7,-2.53 3,-2.59 1.3,-0.06 2.09,0.82 1.06,2.47 -1.03,1.65 -0.68,3.48 -0.2,3.74 0.48,0.26 5.48,-3.57 1.06,-12.32 -4.42,-8.75 -15.64,-4 -17.39,-2.27 0,0 -1.84,1.61 -3.33,0.18 -0.05,-0.03 -1.73,12.53 5.17,10 z"
         id="path514" />
      <path
         class="cls-19"
         d="m 138.39,28.87 -6,-2.6 a 2.68,2.68 0 0 1 -1.47,-1.59 l -6,-17.25 -2.76,0.48 4.84,21.47 a 3.58,3.58 0 0 0 1.76,2.36 l 10,5.64 z"
         id="path516" />
      <path
         class="cls-19"
         d="m 201.12,31.67 1.39,-0.63 a 11.2,11.2 0 0 0 3.17,-2.2 l 1,-0.95 a 1.84,1.84 0 0 0 0.41,-2.05 v 0 a 1,1 0 0 0 -1.41,-0.52 l -2.89,1.46 c 0,0 0.45,-1.28 0.24,-1.61 -0.21,-0.33 -2.46,2.14 -3.49,3.89 -1.03,1.75 1.58,2.61 1.58,2.61 z"
         id="path518" />
      <path
         class="cls-19"
         d="M 177.06,38.57 182.22,38 a 9.2,9.2 0 0 0 3.46,-1.12 l 13.82,-7.82 1.62,2.61 L 187,42.58 a 6.35,6.35 0 0 1 -1.42,0.83 L 177.15,47 Z"
         id="path520" />
      <path
         class="cls-19"
         d="M 122.17,7.91 121.65,7.3 a 4.89,4.89 0 0 1 -1.14,-2.47 l -0.36,-2.52 a 2.15,2.15 0 0 1 0.82,-2 L 121,0.21 a 1.3,1.3 0 0 1 2,0.62 l 1.25,3 c 0,0 -0.4,-1.55 0.1,-1.72 0.5,-0.17 1.07,1.8 0.66,2.87 a 4.59,4.59 0 0 0 0,2.45 z"
         id="path522" />
      <path
         class="cls-20"
         d="m 150.31,28.79 -2.23,-0.62 a 5.32,5.32 0 0 0 2.62,2.1 c 1.55,0.43 1.79,-0.88 1.79,-0.88 z"
         id="path524" />
      <path
         class="cls-17"
         d="m 147,29.4 c 0,0 -10.08,-2 -13.15,-2.92 -3.07,-0.92 -4.36,7.51 -4.13,9.65 0.23,2.14 10.71,4.53 11.95,8.21 C 142.91,48.02 147,29.4 147,29.4 Z"
         id="path526" />
      <path
         class="cls-17"
         d="m 162.37,33.11 c 0,0 7.36,3.16 19.68,4.7 a 1.33,1.33 0 0 1 1.1,0.87 14.64,14.64 0 0 1 0.65,7.4 2.72,2.72 0 0 1 -2.7,2.14 c -3.85,0 -12.15,0.35 -13.5,4 -1.76,4.68 -5.23,-19.11 -5.23,-19.11 z"
         id="path528" />
      <path
         class="cls-20"
         d="m 162.09,25.22 a 1.18,1.18 0 1 1 -1.18,-1.17 1.17,1.17 0 0 1 1.18,1.17 z"
         id="path530" />
      <polygon
         class="cls-2"
         points="14.44,162.81 16.88,161.24 16.69,160.09 "
         id="polygon532" />
      <polygon
         class="cls-2"
         points="69.67,214.69 71.23,215.41 71.26,215.85 68.82,217.42 "
         id="polygon534" />
      <polygon
         class="cls-2"
         points="132.77,250.47 91.35,199.53 71.26,215.85 22.77,156.46 16.88,161.24 11.54,136.67 34.49,146.93 28.37,151.91 71.68,204.97 91.77,188.66 133.44,239.95 151.92,224.95 206.61,291.88 201.01,296.43 151.24,235.46 "
         id="polygon536" />
      <polygon
         class="cls-2"
         points="130.33,252.04 132.96,246.94 132.77,250.47 "
         id="polygon538" />
      <polygon
         class="cls-2"
         points="89.32,190.23 89.82,191.59 91.77,188.66 "
         id="polygon540" />
      <polygon
         class="cls-2"
         points="149.47,226.52 149.88,227.49 151.92,224.95 "
         id="polygon542" />
      <polygon
         class="cls-3"
         points="130.33,252.04 88.91,201.1 68.82,217.42 20.32,158.03 14.44,162.81 9.1,138.25 32.05,148.51 25.93,153.48 69.24,206.55 89.32,190.23 131,241.53 149.47,226.52 204.17,293.45 198.57,298 148.8,237.04 "
         id="polygon544" />
      <polygon
         class="cls-17"
         points="34.49,146.93 32.05,148.51 9.1,138.25 11.54,136.67 "
         id="polygon546" />
      <polygon
         class="cls-2"
         points="198.57,298 201.01,296.43 206.61,291.88 204.17,293.45 "
         id="polygon548" />
      <path
         class="cls-3"
         d="m 98.19,28.49 a 2.22,2.22 0 1 1 -1.29,-2.86 2.23,2.23 0 0 1 1.29,2.86 z"
         id="path550" />
      <rect
         class="cls-8"
         x="81.779999"
         y="10.13"
         width="9.2299995"
         height="9.2299995"
         transform="matrix(0.94,0.35,-0.35,0.94,10.76,-29.53)"
         id="rect552" />
    </g>
  </g>
</svg>
