<?xml version="1.0" encoding="UTF-8" standalone="no"?>
<svg
   version="1.0"
   width="5000.000000pt"
   height="934.000000pt"
   viewBox="0 0 5000.000000 934.000000"
   preserveAspectRatio="xMidYMid meet"
   id="svg10"
   sodipodi:docname="Spar_logo_white.svg"
   xml:space="preserve"
   inkscape:version="1.2.2 (732a01da63, 2022-12-09)"
   xmlns:inkscape="http://www.inkscape.org/namespaces/inkscape"
   xmlns:sodipodi="http://sodipodi.sourceforge.net/DTD/sodipodi-0.dtd"
   xmlns="http://www.w3.org/2000/svg"
   xmlns:svg="http://www.w3.org/2000/svg"><defs
     id="defs14" /><sodipodi:namedview
     id="namedview12"
     pagecolor="#ffffff"
     bordercolor="#000000"
     borderopacity="0.25"
     inkscape:showpageshadow="2"
     inkscape:pageopacity="0.0"
     inkscape:pagecheckerboard="0"
     inkscape:deskcolor="#d1d1d1"
     inkscape:document-units="pt"
     showgrid="false"
     inkscape:zoom="0.1815"
     inkscape:cx="3236.9146"
     inkscape:cy="655.64738"
     inkscape:window-width="1920"
     inkscape:window-height="1017"
     inkscape:window-x="-8"
     inkscape:window-y="-8"
     inkscape:window-maximized="1"
     inkscape:current-layer="layer1" /><g
     inkscape:groupmode="layer"
     id="layer1"
     inkscape:label="Layer 1"><rect
       style="fill:#ffffff;fill-opacity:1;stroke-width:0.75"
       id="rect5997"
       width="5177.686"
       height="1057.8516"
       x="-70.247932"
       y="-53.719009" /></g><g
     inkscape:groupmode="layer"
     id="layer2"
     inkscape:label="Layer 2"><path
       d="m 4488,85.6 c -74.5,6.4 -134.8,27.1 -192.8,66.1 -23.7,16 -37.3,27.2 -57.7,47.7 -14.5,14.6 -21.9,23 -31.6,35.6 -45.3,59.1 -70.5,122 -80.1,200 -2.1,16.7 -1.7,71 0.5,88.5 11.2,86 44,156.7 99.1,213.3 36.4,37.4 79.4,65.1 131.1,84.5 76.3,28.5 165.2,35.4 250,19.2 58.5,-11.2 114.6,-35 155.5,-65.8 85.3,-64.5 140,-170.1 144.8,-279.9 0.9,-18.8 0,-48.4 -1.8,-63.3 -11.1,-90.6 -50.8,-171.8 -114.7,-234.7 -62,-61.1 -140.1,-98.4 -228.8,-109.4 -12.3,-1.5 -62.5,-2.7 -73.5,-1.8 z m 69,79.8 c 34.3,5.2 62.5,13.7 92.5,28.1 124.9,59.9 198.8,198 176.4,329.5 -7,40.6 -24.2,86.7 -45.2,120.7 -33.5,54 -86.8,87.9 -147,93.4 -26.9,2.5 -45.9,-3.9 -61.4,-20.5 -8,-8.6 -12.4,-16.6 -15.3,-28 -1.8,-7.2 -2,-11.1 -2,-42.3 V 612 h 102.6 102.5 l -2.3,-2.9 c -1.3,-1.5 -6.2,-7.3 -10.9,-12.7 -18.5,-21.3 -39.6,-48.7 -60.1,-77.9 -74.4,-106.1 -139,-230.2 -169.3,-325.3 l -1.7,-5.2 -6.8,20.2 c -39.7,117.8 -136.6,286.5 -225.2,392 l -9.9,11.8 h 101.6 101.5 v 32 c 0,37.7 -0.7,42.5 -7.8,57 -9.1,18.7 -26,31.8 -46.1,35.7 -7.3,1.5 -10.3,1.5 -22,0.6 -57,-4.8 -106.7,-32.3 -138.7,-77.1 -18.6,-25.9 -41.6,-71.4 -49.8,-98.3 -12.1,-39.7 -14.5,-91.9 -6.6,-138.9 19.2,-113 99.9,-207.3 208.9,-244 20.7,-6.9 47.3,-12.6 69.6,-14.9 13.5,-1.4 60,-0.5 72.5,1.3 z"
       id="path2"
       style="fill:#008247;stroke:none;stroke-width:0.1;fill-opacity:1" /><path
       d="M 92,466.5 V 834 H 2016 3940 V 466.5 99 H 2016 92 Z M 2850.9,234.1 c 16.5,4.2 31.9,14.9 48.6,33.7 5.3,5.9 18.7,23.7 29.9,39.7 25.7,36.7 79.8,114.1 146.4,209.5 28.6,41 55.1,78.8 58.9,84 3.7,5.2 8.5,13 10.7,17.3 3.6,7.2 4,8.7 4.4,17.5 0.5,11.2 -1.5,18.6 -7.2,27.6 -16.7,26.1 -54.3,31.5 -75.2,10.8 -2.7,-2.7 -17.3,-22 -32.4,-43 L 3007.5,593 H 2826 2644.5 l -7.9,11.3 c -4.4,6.1 -16.7,23.6 -27.3,38.7 -11.6,16.5 -21.5,29.6 -24.8,32.6 -15.7,14.6 -33.4,17 -52.9,7 -25.3,-12.9 -35.5,-40.3 -23.6,-63.6 1.2,-2.4 21.9,-32.3 45.8,-66.5 24,-34.1 49.4,-70.4 56.6,-80.7 7.2,-10.3 28.2,-40.2 46.6,-66.5 18.4,-26.2 35.7,-50.9 38.4,-54.8 19.5,-28 47.7,-68 51.5,-73 21.4,-28.4 42,-42.4 66.7,-45.4 10.6,-1.3 28.1,-0.3 37.3,2 z m 898.6,-0.4 c 26.9,6.4 48.6,18.4 67.6,37.3 20.1,20 33.2,45 38.5,74 2.6,13.9 2.6,50.2 0.1,61.8 -3.4,15.4 -8.8,29.2 -16.4,42.1 -12.8,21.7 -32.8,41 -55.1,53.3 -4.9,2.7 -7,4.4 -6.4,5.2 0.5,0.6 7.1,9.6 14.8,20.1 7.6,10.4 24.5,33.5 37.6,51.3 13.1,17.8 24.7,34 25.7,36 4.8,9.4 5.2,26.4 1,37.8 -8.3,22.5 -30.3,36.5 -54.9,35.1 -14.2,-0.8 -22.2,-5.2 -33.5,-18.3 -7.9,-9.2 -28.9,-35.4 -46.2,-57.4 -6.7,-8.5 -25.9,-33.1 -42.7,-54.5 l -30.6,-39 -73.3,-0.5 c -71.7,-0.6 -73.4,-0.6 -81.2,-2.8 -40.2,-11.2 -66.9,-44.1 -69.2,-85.5 l -0.6,-9.7 h 146.4 c 155.4,0 149.8,0.1 159,-4.5 5.6,-2.9 14,-10.6 17.4,-15.9 10.5,-16.6 9.1,-37.8 -3.5,-53.3 -6.3,-7.5 -13.7,-12.8 -21.9,-15.4 -6.1,-1.8 -10.6,-1.9 -166.7,-1.9 H 3395 v 154.2 c 0,169 0.2,161.3 -6,174.2 -3.8,8 -11.6,16.7 -19.4,21.8 -28,18.1 -65.4,4 -76.8,-29.1 l -2.3,-6.6 v -165 c 0,-185.4 -0.6,-169.6 7.5,-187.1 5.4,-11.7 11.1,-19.7 21.4,-29.9 16,-15.8 35.2,-26.4 53.4,-29.5 2.6,-0.4 86.4,-0.7 186.2,-0.6 l 181.5,0.2 z M 1615,235.3 c 21,7 37.2,21.2 48.8,42.7 6.6,12.2 12.4,30 14.5,45.2 l 0.6,3.8 h -207.3 c -199.7,0 -207.5,0.1 -212.9,1.9 -10.7,3.5 -17.9,10.1 -23,20.9 -5.6,12 -4.7,30.7 2,42.2 4.4,7.5 11.8,14.5 18.6,17.6 l 6.2,2.9 156,0.5 c 145.5,0.6 156.5,0.7 163.5,2.4 13,3.1 23.2,6.7 34.6,12 43.7,20.7 72.7,57.7 78.4,99.9 3.8,28.7 -3.3,64.7 -17.6,89.2 -19.7,33.7 -53.5,58.9 -92,68.7 l -8.9,2.3 h -180 c -169.3,0 -180.5,-0.1 -188.8,-1.8 -42.9,-8.7 -67.8,-38.3 -71.3,-84.5 l -0.7,-9.2 h 209.9 c 185.4,0 210.7,-0.2 215.9,-1.5 22.1,-5.8 36.7,-25.8 33.5,-46 -2,-12.6 -11.9,-25.9 -23.7,-32 l -5.8,-3 L 1412,509 c -171.9,-0.6 -160.3,-0.1 -184.1,-8 -13.9,-4.6 -22.5,-8.8 -34.5,-16.8 -31,-20.9 -51.8,-53.5 -58,-91 -2.3,-13.4 -2.3,-37.9 0,-50.2 6.2,-34.6 26.7,-67 55.1,-87.2 15.1,-10.6 36.8,-20.2 51.8,-22.7 2.9,-0.5 86,-0.8 184.7,-0.7 l 179.5,0.1 z m 724.2,-0.6 c 17.8,4.5 37.1,13.4 52,24.3 13.8,10 28.6,26.9 36.8,42 12.8,23.3 18,45.5 18,76.5 0,25.7 -3.1,41.1 -12.5,61.2 -12.4,26.5 -38.9,53.6 -65,66.4 -3.3,1.6 -12.1,4.5 -19.5,6.4 -26.6,6.8 -21.2,6.6 -146.5,6.3 l -113,-0.3 -7.4,-2.3 c -30.7,-9.5 -51.5,-29.6 -61.6,-59.7 -2.7,-7.8 -5.5,-24 -5.5,-31.3 V 420 h 142.3 c 88.2,0 144.5,-0.4 148.2,-1 17,-2.8 32.8,-17.1 36.5,-33.2 4.2,-18.5 -5.8,-40.6 -22.8,-50.3 -10.2,-5.8 -0.4,-5.5 -175.4,-5.5 H 1983 v 155.2 c 0,134.9 -0.2,156.1 -1.5,161.7 -4,16.9 -17.2,32 -33.5,38.2 -7.8,3 -21.8,3.7 -29.6,1.4 -18.5,-5.3 -32.3,-19 -38.1,-38 -1.7,-5.7 -1.8,-13.6 -1.8,-169.5 V 315.5 l 2.3,-8.5 c 5.9,-22.3 22.3,-44.4 43.7,-58.7 10.5,-7.1 19.5,-11.1 32,-14.4 6.6,-1.7 16.3,-1.8 190.5,-1.6 l 183.5,0.3 z"
       id="path4"
       style="fill:#ef3f41;stroke:none;stroke-width:0.1;fill-opacity:1" /><path
       d="m 2819.9,345.5 c -4.4,2.4 -7.2,6.2 -50.4,69.5 -12.6,18.4 -30.8,45 -40.5,59 l -17.6,25.5 114.9,0.3 c 63.3,0.1 115.2,0 115.4,-0.2 0.2,-0.2 -4,-6.6 -9.3,-14.2 -21.8,-31.1 -77.4,-111.6 -83.9,-121.3 -3.9,-5.8 -9.1,-12.7 -11.6,-15.3 -4.2,-4.5 -4.9,-4.8 -9.5,-4.8 -2.7,0.1 -6.1,0.7 -7.5,1.5 z"
       id="path6"
       style="fill:#ef3f41;stroke:none;stroke-width:0.1;fill-opacity:1" /></g></svg>
