<?xml version="1.0" encoding="UTF-8" standalone="no"?>
<svg
   height="480pt"
   viewBox="-120 0 480 480"
   width="480pt"
   version="1.1"
   id="svg9"
   sodipodi:docname="total-profit.svg"
   inkscape:version="1.1 (c68e22c387, 2021-05-23)"
   xmlns:inkscape="http://www.inkscape.org/namespaces/inkscape"
   xmlns:sodipodi="http://sodipodi.sourceforge.net/DTD/sodipodi-0.dtd"
   xmlns="http://www.w3.org/2000/svg"
   xmlns:svg="http://www.w3.org/2000/svg">
  <defs
     id="defs13" />
  <sodipodi:namedview
     id="namedview11"
     pagecolor="#ffffff"
     bordercolor="#666666"
     borderopacity="1.0"
     inkscape:pageshadow="2"
     inkscape:pageopacity="0.0"
     inkscape:pagecheckerboard="0"
     inkscape:document-units="pt"
     showgrid="false"
     inkscape:zoom="0.8125"
     inkscape:cx="319.38462"
     inkscape:cy="320.61538"
     inkscape:window-width="1366"
     inkscape:window-height="705"
     inkscape:window-x="-8"
     inkscape:window-y="-8"
     inkscape:window-maximized="1"
     inkscape:current-layer="svg9" />
  <linearGradient
     id="a"
     gradientUnits="userSpaceOnUse"
     x1="-36.48"
     x2="276.48"
     y1="374.832"
     y2="61.864">
    <stop
       offset="0"
       stop-color="#41dfd0"
       id="stop2"
       style="stop-color:#4304fa;stop-opacity:1" />
    <stop
       offset="1"
       stop-color="#ee83ef"
       id="stop4"
       style="stop-color:#c63c96;stop-opacity:1" />
  </linearGradient>
  <path
     d="m24 296c-13.253906 0-24 10.746094-24 24s10.746094 24 24 24v48.550781c.035156 24.75 16.289062 46.550781 40 53.648438v25.800781c0 4.417969 3.582031 8 8 8h96c4.417969 0 8-3.582031 8-8v-25.800781c23.710938-7.097657 39.964844-28.898438 40-53.648438v-48.550781c13.253906 0 24-10.746094 24-24s-10.746094-24-24-24h-88v-16h8c27.8125-.03125 51.386719-20.472656 55.359375-48h7.039063c18.558593 0 33.601562-15.042969 33.601562-33.601562v-30.398438c0-4.417969-3.582031-8-8-8h-14.398438c-17.265624.054688-31.664062 13.210938-33.273437 30.398438-.167969.519531-.277344 1.058593-.328125 1.601562v32c-.027344 22.082031-17.917969 39.972656-40 40h-8v-136h80c8.835938 0 16-7.164062 16-16v-96c0-8.835938-7.164062-16-16-16h-176c-8.835938 0-16 7.164062-16 16v96c0 8.835938 7.164062 16 16 16h80v136h-8c-22.082031-.027344-39.972656-17.917969-40-40v-32c-.050781-.542969-.160156-1.082031-.328125-1.601562-1.609375-17.1875-16.007813-30.34375-33.273437-30.398438h-14.398438c-4.417969 0-8 3.582031-8 8v30.398438c0 18.558593 15.042969 33.601562 33.601562 33.601562h7.039063c3.972656 27.527344 27.546875 47.96875 55.359375 48h8v16zm168-102.398438c0-9.722656 7.878906-17.601562 17.601562-17.601562h6.398438v22.398438c0 9.722656-7.878906 17.601562-17.601562 17.601562h-6.398438zm-144 22.398438h-6.398438c-9.722656 0-17.601562-7.878906-17.601562-17.601562v-22.398438h6.398438c9.722656 0 17.601562 7.878906 17.601562 17.601562zm112 248h-80v-15.449219h80zm40-71.449219c-.058594 19.917969-14.78125 36.746094-34.511719 39.449219h-90.976562c-19.730469-2.703125-34.453125-19.53125-34.511719-39.449219v-48.550781h160zm8-280.550781h-22.992188c2.933594-11.261719 11.730469-20.058594 22.992188-22.992188zm0-96v22.992188c-11.261719-2.933594-20.058594-11.730469-22.992188-22.992188zm-176 0h22.992188c-2.933594 11.261719-11.730469 20.058594-22.992188 22.992188zm0 96v-22.992188c11.261719 2.933594 20.058594 11.730469 22.992188 22.992188zm39.28125 0c-3.4375-20.101562-19.179688-35.84375-39.28125-39.28125v-17.4375c20.101562-3.4375 35.84375-19.179688 39.28125-39.28125h97.4375c3.433594 20.101562 19.179688 35.847656 39.28125 39.28125v17.4375c-20.101562 3.433594-35.847656 19.179688-39.28125 39.28125zm144.71875 200c4.417969 0 8 3.582031 8 8s-3.582031 8-8 8h-192c-4.417969 0-8-3.582031-8-8s3.582031-8 8-8zm-96-280c-17.671875 0-32 14.328125-32 32s14.328125 32 32 32 32-14.328125 32-32-14.328125-32-32-32zm0 48c-8.835938 0-16-7.164062-16-16s7.164062-16 16-16 16 7.164062 16 16-7.164062 16-16 16zm40 128h-16v-16h16zm-16 16h16v16h-16zm16-48h-16v-24c0-4.417969 3.582031-8 8-8h24v16h-16zm0 0"
     fill="url(#a)"
     id="path7" />
</svg>
