<?xml version="1.0" encoding="UTF-8" standalone="no"?>
<svg
   id="svg"
   width="430.51904"
   height="430.43607"
   viewBox="0 0 430.51904 430.43607"
   version="1.1"
   sodipodi:docname="user2.svg"
   inkscape:version="1.1 (c68e22c387, 2021-05-23)"
   xmlns:inkscape="http://www.inkscape.org/namespaces/inkscape"
   xmlns:sodipodi="http://sodipodi.sourceforge.net/DTD/sodipodi-0.dtd"
   xmlns:xlink="http://www.w3.org/1999/xlink"
   xmlns="http://www.w3.org/2000/svg"
   xmlns:svg="http://www.w3.org/2000/svg">
  <defs
     id="defs7">
    <linearGradient
       inkscape:collect="always"
       id="linearGradient858">
      <stop
         style="stop-color:#4505f8;stop-opacity:1"
         offset="0"
         id="stop854" />
      <stop
         style="stop-color:#c63c96;stop-opacity:1"
         offset="1"
         id="stop856" />
    </linearGradient>
    <linearGradient
       inkscape:collect="always"
       xlink:href="#linearGradient858"
       id="linearGradient859"
       gradientUnits="userSpaceOnUse"
       x1="192.85699"
       y1="0.107"
       x2="187.85025"
       y2="240.14946"
       gradientTransform="translate(-20.676468,-19.682522)" />
    <filter
       style="color-interpolation-filters:sRGB"
       inkscape:label="Feather"
       id="filter2290"
       x="-0.038120688"
       y="-0.038128598"
       width="1.0762414"
       height="1.0762572">
      <feGaussianBlur
         stdDeviation="6.35378"
         result="blur"
         id="feGaussianBlur2282" />
      <feComposite
         in="SourceGraphic"
         in2="blur"
         operator="atop"
         result="composite1"
         id="feComposite2284" />
      <feComposite
         in2="composite1"
         operator="in"
         result="composite2"
         id="feComposite2286" />
      <feComposite
         in2="composite2"
         operator="in"
         result="composite3"
         id="feComposite2288" />
    </filter>
  </defs>
  <sodipodi:namedview
     id="namedview5"
     pagecolor="#ffffff"
     bordercolor="#666666"
     borderopacity="1.0"
     inkscape:pageshadow="2"
     inkscape:pageopacity="0.0"
     inkscape:pagecheckerboard="0"
     showgrid="false"
     inkscape:zoom="0.93691649"
     inkscape:cx="224.13951"
     inkscape:cy="226.80783"
     inkscape:window-width="1366"
     inkscape:window-height="715"
     inkscape:window-x="-8"
     inkscape:window-y="-8"
     inkscape:window-maximized="1"
     inkscape:current-layer="layer1" />
  <g
     inkscape:groupmode="layer"
     id="layer1"
     inkscape:label="Layer 1"
     transform="translate(80.917278,41.974502)">
    <path
       id="path0"
       d="m 127.21116,-26.576273 c -119.4089973,4.843 -207.746993,110.706986 -190.790993,228.642993 9.355999,65.073 50.604996,121.719 109.808996,150.797 24.049002,11.811 47.531002,18.009 76.249997,20.126 4.032,0.297 19.718,0.297 23.75,0 22.109,-1.63 40.514,-5.559 58.929,-12.582 87.88,-33.514 140.499,-122.85 127.13,-215.841 -8.962,-62.331007 -47.145,-116.993992 -102.845,-147.2289927 -30.821,-16.7300003 -67.545,-25.3210003 -102.232,-23.9140003 m 15.179,78.912001 c 47.366,5.70399 75.995,54.259992 57.958,98.301992 -14.651,35.775 -55.988,53.358 -92.065,39.16 -31.801995,-12.515 -50.339995,-45.806 -44.177995,-79.338 5.931,-32.276002 32.721,-56.082992 65.784995,-58.459992 2.188,-0.158 10.188,0.057 12.5,0.336 m 1.964,164.193992 c 50.756,4.024 94.228,34.908 114.545,81.377 l 1.031,2.359 -2.119,2.032 c -40.732,39.076 -97.319,56.445 -153.357,47.073 -29.956995,-5.01 -58.416997,-17.849 -82.242997,-37.102 -3.833,-3.097 -6.795,-5.713 -12.2190003,-10.793 l -1.236,-1.158 1.042,-2.385 c 20.3610003,-46.57 64.9690023,-78.145 115.0019973,-81.401 1.572,-0.102 3.3,-0.215 3.84,-0.252 1.845,-0.123 13.299,0.059 15.714,0.25"
       stroke="none"
       fill="#000000"
       fill-rule="evenodd"
       style="fill:#000003;fill-opacity:0.829412;filter:url(#filter2290)" />
  </g>
  <g
     id="svgg"
     transform="translate(22.214074,18.493221)">
    <path
       id="path0-4"
       d="m 172.18053,-19.575522 c -119.408998,4.843 -207.746998,110.707 -190.790998,228.643002 9.356,65.073 50.605,121.719 109.809,150.797 24.048998,11.811 47.530998,18.009 76.249998,20.126 4.032,0.297 19.718,0.297 23.75,0 22.109,-1.63 40.514,-5.559 58.929,-12.582 87.88,-33.514 140.499,-122.85 127.13,-215.841 -8.962,-62.331002 -47.145,-116.994002 -102.845,-147.229002 -30.821,-16.73 -67.545,-25.321 -102.232,-23.914 m 15.179,78.912 c 47.366,5.704 75.995,54.260002 57.958,98.302002 -14.651,35.775 -55.988,53.358 -92.065,39.16 -31.802,-12.515 -50.34,-45.806 -44.178,-79.338 5.931,-32.276002 32.721,-56.083002 65.785,-58.460002 2.188,-0.158 10.188,0.057 12.5,0.336 m 1.964,164.194002 c 50.756,4.024 94.228,34.908 114.545,81.377 l 1.031,2.359 -2.119,2.032 c -40.732,39.076 -97.319,56.445 -153.357,47.073 -29.957,-5.01 -58.416998,-17.849 -82.242998,-37.102 -3.833,-3.097 -6.795,-5.713 -12.219,-10.793 l -1.236,-1.158 1.042,-2.385 c 20.361,-46.57 64.968998,-78.145 115.001998,-81.401 1.572,-0.102 3.3,-0.215 3.84,-0.252 1.845,-0.123 13.299,0.059 15.714,0.25"
       stroke="none"
       fill="#000000"
       fill-rule="evenodd"
       style="fill:url(#linearGradient859);fill-opacity:1" />
  </g>
</svg>
