<?xml version="1.0" encoding="UTF-8" standalone="no"?>
<svg
   id="svg"
   width="400"
   height="400"
   viewBox="0, 0, 400,400"
   version="1.1"
   sodipodi:docname="user.svg"
   inkscape:version="1.1 (c68e22c387, 2021-05-23)"
   xmlns:inkscape="http://www.inkscape.org/namespaces/inkscape"
   xmlns:sodipodi="http://sodipodi.sourceforge.net/DTD/sodipodi-0.dtd"
   xmlns:xlink="http://www.w3.org/1999/xlink"
   xmlns="http://www.w3.org/2000/svg"
   xmlns:svg="http://www.w3.org/2000/svg">
  <defs
     id="defs7">
    <linearGradient
       inkscape:collect="always"
       id="linearGradient877">
      <stop
         style="stop-color:#d9009a;stop-opacity:1"
         offset="0"
         id="stop873" />
      <stop
         style="stop-color:#5e009c;stop-opacity:1"
         offset="1"
         id="stop875" />
    </linearGradient>
    <linearGradient
       inkscape:collect="always"
       xlink:href="#linearGradient877"
       id="linearGradient879"
       x1="189.196"
       y1="0.197"
       x2="198.52357"
       y2="375.70053"
       gradientUnits="userSpaceOnUse" />
  </defs>
  <sodipodi:namedview
     id="namedview5"
     pagecolor="#ffffff"
     bordercolor="#666666"
     borderopacity="1.0"
     inkscape:pageshadow="2"
     inkscape:pageopacity="0.0"
     inkscape:pagecheckerboard="0"
     showgrid="false"
     inkscape:zoom="0.46845824"
     inkscape:cx="326.60328"
     inkscape:cy="272.1694"
     inkscape:window-width="1366"
     inkscape:window-height="715"
     inkscape:window-x="-8"
     inkscape:window-y="-8"
     inkscape:window-maximized="1"
     inkscape:current-layer="svgg" />
  <g
     id="svgg">
    <path
       id="path0"
       d="M189.196 0.197 C 128.425 3.456,72.571 34.142,37.116 83.750 C -15.957 158.008,-11.855 259.443,47.035 329.018 C 50.819 333.488,58.135 341.389,58.320 341.204 C 58.349 341.175,58.814 339.627,59.354 337.763 C 76.454 278.767,129.567 236.065,190.272 232.505 C 192.136 232.396,194.263 232.254,195.000 232.189 L 196.339 232.072 194.286 231.938 C 133.521 227.952,98.122 160.059,129.544 107.768 C 162.705 52.583,244.004 55.412,273.215 112.768 C 299.803 164.975,264.041 228.112,205.714 231.938 L 203.661 232.072 205.000 232.189 C 205.737 232.254,207.864 232.396,209.728 232.505 C 270.428 236.065,323.547 278.772,340.646 337.763 C 341.186 339.627,341.652 341.176,341.682 341.205 C 341.863 341.386,349.246 333.411,352.965 329.018 C 411.854 259.444,415.956 158.007,362.884 83.750 C 323.021 27.975,257.645 -3.475,189.196 0.197 "
       stroke="none"
       fill="#000000"
       fill-rule="evenodd"
       style="fill-opacity:1;fill:url(#linearGradient879)" />
  </g>
</svg>
