<?xml version="1.0" encoding="utf-8"?>
<!-- Generator: Adobe Illustrator 25.0.0, SVG Export Plug-In . SVG Version: 6.00 Build 0)  -->
<svg version="1.1" id="Layer_1" xmlns="http://www.w3.org/2000/svg" xmlns:xlink="http://www.w3.org/1999/xlink" x="0px" y="0px"
	 viewBox="0 0 601.1 400" style="enable-background:new 0 0 601.1 400;" xml:space="preserve">
<style type="text/css">
	.st0{fill:#FFFFFF;}
	.st1{fill-rule:evenodd;clip-rule:evenodd;fill:#E1E8F6;}
	.st2{fill:#C0CDEA;}
	.st3{fill-rule:evenodd;clip-rule:evenodd;fill:#C0CDEA;}
	.st4{fill:#00000F;}
	.st5{fill:#626687;}
	.st6{fill:#101537;}
	.st7{fill-rule:evenodd;clip-rule:evenodd;fill:#00000F;}
	.st8{fill:#C7CAE0;}
	.st9{fill:#BEC4DC;}
	.st10{fill:#B5B9D1;}
	.st11{fill:#CCD3E5;}
	.st12{fill:#BABFD6;}
	.st13{fill-rule:evenodd;clip-rule:evenodd;fill:#B0B7CF;}
	.st14{fill-rule:evenodd;clip-rule:evenodd;fill:#B0B7CE;}
	.st15{fill:#DBE1F1;}
	.st16{fill:#D6DCEA;}
	.st17{fill:#C7CADE;}
	.st18{fill:#C7CADB;}
	.st19{fill:#BDC1D5;}
	.st20{fill:#B5BED8;}
	.st21{fill:#CED2E1;}
	.st22{fill:#B6B7CB;}
	.st23{fill-rule:evenodd;clip-rule:evenodd;fill:#AAAEC3;}
	.st24{fill-rule:evenodd;clip-rule:evenodd;fill:#101537;}
	.st25{fill-rule:evenodd;clip-rule:evenodd;fill:#EAEEF4;}
	.st26{fill-rule:evenodd;clip-rule:evenodd;fill:#EC6957;}
	.st27{fill-rule:evenodd;clip-rule:evenodd;fill:#D84743;}
	.st28{fill-rule:evenodd;clip-rule:evenodd;fill:#EE9073;}
	.st29{fill-rule:evenodd;clip-rule:evenodd;fill:#DBD7D7;}
	.st30{fill-rule:evenodd;clip-rule:evenodd;fill:#3B405F;}
	.st31{fill-rule:evenodd;clip-rule:evenodd;fill:#FFFFFF;}
	.st32{fill-rule:evenodd;clip-rule:evenodd;fill:#E27E67;}
	.st33{fill-rule:evenodd;clip-rule:evenodd;fill:#F5AC83;}
	.st34{fill-rule:evenodd;clip-rule:evenodd;fill:#F6F5F4;}
	.st35{fill-rule:evenodd;clip-rule:evenodd;fill:#080321;}
	.st36{fill-rule:evenodd;clip-rule:evenodd;fill:#DBE2F3;}
	.st37{fill-rule:evenodd;clip-rule:evenodd;fill:#EAEEF8;}
	.st38{fill-rule:evenodd;clip-rule:evenodd;fill:#003053;}
	.st39{fill-rule:evenodd;clip-rule:evenodd;fill:#1874BA;}
	.st40{fill-rule:evenodd;clip-rule:evenodd;fill:#B83470;}
	.st41{fill-rule:evenodd;clip-rule:evenodd;fill:#E13C83;}
	.st42{fill-rule:evenodd;clip-rule:evenodd;fill:#E94D90;}
	.st43{fill-rule:evenodd;clip-rule:evenodd;fill:#EE788F;}
	.st44{fill-rule:evenodd;clip-rule:evenodd;fill:#F5C8B4;}
	.st45{fill-rule:evenodd;clip-rule:evenodd;fill:#F4BCA3;}
	.st46{fill:#E1E8F6;}
	.st47{fill:#F06597;}
	.st48{fill:#383838;}
	.st49{fill:#565656;}
	.st50{enable-background:new    ;}
	.st51{fill:#444444;}
</style>
<g id="Layer_2_1_">
	<g id="OBJECTS">
		<rect class="st0" width="601.1" height="400"/>
		<path class="st1" d="M74.3,350.8C38.2,350.7,9,321.4,8.9,285.4l0,0C9,249.3,38.2,220.1,74.3,220l0,0c15.3,0,27.6-12.4,27.6-27.6
			l0,0c0-15.3-12.4-27.6-27.6-27.6H71c-15.9,0-28.7-12.9-28.8-28.7l0,0c0-15.9,12.9-28.7,28.8-28.7h10.1c6.2,0,11.2-5,11.2-11.2l0,0
			c0-6.2-5-11.2-11.2-11.2h-7.4c-4.3,0-7.7-3.5-7.7-7.7l0,0c0-4.3,3.5-7.7,7.7-7.7h49.8c6.7,0,12.1-5.4,12.1-12.1l0,0
			c0-6.7-5.4-12.1-12.1-12.1h-14.9c-4.3,0-7.7-3.5-7.7-7.7l0,0c0-4.3,3.5-7.7,7.7-7.7H297c5.5,0.1,10,4.5,10,10.1l0,0
			c0,5.5-4.5,10-10,10.1h-30.6c-8.7,0-15.8,7.1-15.8,15.8l0,0c0,8.7,7.1,15.8,15.8,15.8h54c5.6,0,10.1,4.5,10.1,10.1l0,0
			c0,5.6-4.5,10.1-10.1,10.1h-9.7c-8,0-14.6,6.6-14.6,14.6l0,0c0,8.1,6.5,14.6,14.6,14.6H422c20.7,0.1,37.4,16.8,37.5,37.5l0,0
			c-0.1,20.7-16.8,37.4-37.5,37.5h-26.3c-19.9,0.1-36,16.2-36.1,36.1l0,0c0.1,19.9,16.2,36,36.1,36h122.7
			c20.1,0.1,36.3,16.3,36.4,36.4l0,0c0,20.1-16.3,36.3-36.4,36.4L74.3,350.8z M322.8,49.9c5.6,0,10.1-4.5,10.1-10.1
			s-4.5-10.1-10.1-10.1c-5.6,0-10.1,4.5-10.1,10.1l0,0C312.7,45.4,317.2,49.9,322.8,49.9z M52,84.9c4.3,0,7.7-3.4,7.7-7.7
			s-3.5-7.7-7.7-7.7c-4.3,0-7.7,3.4-7.7,7.7c0,0,0,0,0,0C44.3,81.4,47.7,84.9,52,84.9L52,84.9z"/>
		<path class="st2" d="M367.1,141.7h64.7c2.4,0,4.4,2,4.4,4.4v26c0,2.4-2,4.4-4.4,4.4h-64.7c-2.4,0-4.4-2-4.4-4.4v-26
			C362.7,143.6,364.6,141.7,367.1,141.7z"/>
		<polygon class="st3" points="99,164.4 92,166.3 103.5,177.8 290.9,177.8 284.3,166.4 		"/>
		<path class="st4" d="M91.1,161.6h193.2c0.5,0,1,0.4,1,1v2.7c0,0.6-0.5,1-1,1H91.1c-0.6,0-1-0.4-1-1v-2.7
			C90.1,162.1,90.6,161.6,91.1,161.6z"/>
		<path class="st5" d="M127.7,170.4h5.7c0.4,0,0.7,0.3,0.7,0.7v9.8c0,0.4-0.3,0.7-0.7,0.7h-5.7c-0.4,0-0.7-0.3-0.7-0.7v-9.8
			C127,170.7,127.3,170.4,127.7,170.4z"/>
		<path class="st5" d="M242,170.4h5.7c0.4,0,0.7,0.3,0.7,0.7v9.8c0,0.4-0.3,0.7-0.7,0.7H242c-0.4,0-0.7-0.3-0.7-0.7v-9.8
			C241.3,170.7,241.6,170.4,242,170.4z"/>
		<path class="st4" d="M241.2,164.3h7.4c0.5,0,0.9,0.4,0.9,0.9v6.6c0,0.5-0.4,0.9-0.9,0.9h-7.4c-0.5,0-0.9-0.4-0.9-0.9v-6.6
			C240.4,164.7,240.7,164.3,241.2,164.3z"/>
		<polygon class="st3" points="99,108.5 92,110.4 103.5,121.9 290.9,121.9 284.3,110.4 		"/>
		<path class="st4" d="M91.1,105.7h193.2c0.5,0,1,0.4,1,1v2.7c0,0.6-0.5,1-1,1H91.1c-0.6,0-1-0.4-1-1v-2.7
			C90.1,106.1,90.6,105.7,91.1,105.7z"/>
		<path class="st5" d="M127.7,114.4h5.7c0.4,0,0.7,0.3,0.7,0.7v9.8c0,0.4-0.3,0.7-0.7,0.7h-5.7c-0.4,0-0.7-0.3-0.7-0.7v-9.8
			C127,114.7,127.3,114.4,127.7,114.4z"/>
		<path class="st5" d="M242,114.4h5.7c0.4,0,0.7,0.3,0.7,0.7v9.8c0,0.4-0.3,0.7-0.7,0.7H242c-0.4,0-0.7-0.3-0.7-0.7v-9.8
			C241.3,114.7,241.6,114.4,242,114.4z"/>
		<path class="st4" d="M233.6,98.8h45c0.6,0,1.1,0.5,1.1,1.1v5c0,0.6-0.5,1.1-1.1,1.1h-45c-0.6,0-1.1-0.5-1.1-1.1v-5
			C232.5,99.3,232.9,98.8,233.6,98.8z"/>
		<path class="st6" d="M238.9,92h34.2c0.6,0,1.1,0.5,1.1,1.1l0,0V98c0,0.6-0.5,1.1-1.1,1.1l0,0h-34.2c-0.6,0-1.1-0.5-1.1-1.1v-4.9
			C237.8,92.5,238.3,92,238.9,92C238.9,92,238.9,92,238.9,92z"/>
		<path class="st7" d="M240.8,74.3L223.7,104c-0.3,0.5-0.1,1.2,0.4,1.5l4.3,2.5c0.5,0.3,1.2,0.1,1.5-0.4L247,77.9
			c0.3-0.5,0.1-1.2-0.4-1.5l-4.3-2.4C241.8,73.7,241.1,73.8,240.8,74.3z"/>
		<path class="st4" d="M246.4,88.1h23.1c0.4,0,0.6,0.3,0.6,0.7v3c0,0.4-0.3,0.7-0.6,0.7h-23.1c-0.4,0-0.6-0.3-0.6-0.7v-3
			C245.7,88.4,246,88.1,246.4,88.1z"/>
		<path class="st7" d="M233.1,74.7L216,104.3c-0.3,0.5-0.1,1.2,0.4,1.5l4.3,2.5c0.5,0.3,1.2,0.1,1.5-0.4l17.1-29.6
			c0.3-0.5,0.1-1.2-0.4-1.5l-4.3-2.5C234.1,73.9,233.4,74.1,233.1,74.7C233.1,74.6,233.1,74.6,233.1,74.7z"/>
		<path class="st4" d="M241.2,108.4h7.4c0.5,0,0.9,0.4,0.9,0.9v6.6c0,0.5-0.4,0.9-0.9,0.9h-7.4c-0.5,0-0.9-0.4-0.9-0.9v-6.6
			C240.4,108.8,240.7,108.4,241.2,108.4z"/>
		<path class="st8" d="M145.6,73.1h18.4c0.9,0,1.6,0.7,1.6,1.6v29.4c0,0.9-0.7,1.6-1.6,1.6h-18.4c-0.9,0-1.6-0.7-1.6-1.6V74.7
			C144.1,73.8,144.8,73.1,145.6,73.1z"/>
		<path class="st9" d="M168.1,73.1h9.4c0.4,0,0.8,0.4,0.8,0.8v30.9c0,0.4-0.4,0.8-0.8,0.8h-9.4c-0.4,0-0.8-0.4-0.8-0.8V73.9
			C167.3,73.5,167.7,73.1,168.1,73.1z"/>
		<path class="st10" d="M176,67h10.9c0.5,0,0.9,0.4,0.9,0.9v36.8c0,0.5-0.4,0.9-0.9,0.9H176c-0.5,0-0.9-0.4-0.9-0.9V67.9
			C175.1,67.4,175.5,67,176,67z"/>
		<path class="st11" d="M172,90.6h18.9c0.6,0,1.1,0.5,1.1,1.1v12.9c0,0.6-0.5,1.1-1.1,1.1H172c-0.6,0-1.1-0.5-1.1-1.1V91.7
			C170.9,91.1,171.4,90.6,172,90.6z"/>
		<path class="st8" d="M195.2,78.1h9.4c0.4,0,0.8,0.4,0.8,0.8v26c0,0.4-0.4,0.8-0.8,0.8h-9.4c-0.4,0-0.8-0.4-0.8-0.8v-26
			C194.4,78.4,194.8,78.1,195.2,78.1z"/>
		<path class="st12" d="M149.2,80.4h11.2c0.6,0,1.1,0.5,1.1,1.1v6.2c0,0.6-0.5,1.1-1.1,1.1h-11.2c-0.6,0-1.1-0.5-1.1-1.1v-6.2
			C148.2,80.9,148.6,80.4,149.2,80.4z"/>
		<path class="st12" d="M149.1,90.6h11.6c0.5,0,0.9,0.4,0.9,0.9v0.8c0,0.5-0.4,0.9-0.9,0.9h-11.6c-0.5,0-0.9-0.4-0.9-0.9v-0.8
			C148.2,91,148.6,90.6,149.1,90.6z"/>
		<path class="st12" d="M149.1,95.7h11.6c0.5,0,0.9,0.4,0.9,0.9v0.8c0,0.5-0.4,0.9-0.9,0.9h-11.6c-0.5,0-0.9-0.4-0.9-0.9v-0.8
			C148.2,96.1,148.6,95.7,149.1,95.7z"/>
		<path class="st13" d="M199.9,94.6c1.5,0.3,2.9-0.8,3.2-2.3c0.3-1.5-0.8-2.9-2.3-3.2c-1.5-0.3-2.9,0.8-3.2,2.3c0,0.2,0,0.3,0,0.5
			C197.5,93.3,198.5,94.5,199.9,94.6z"/>
		<path class="st14" d="M165.1,137.6h0.9V136h-0.3c-0.6,0-1-0.5-1-1.1c0,0,0,0,0,0l0,0c-0.1-0.6,0.4-1.1,1-1.2c0,0,0,0,0,0h1.1v-6.8
			c-0.1-0.6,0.4-1.1,1-1.2c0,0,0,0,0,0l0,0c0.6,0,1,0.6,1,1.2c0,0,0,0,0,0v6.8h1.1c0.6,0,1,0.6,1,1.1c0,0,0,0,0,0l0,0
			c0.1,0.6-0.4,1.1-1,1.1c0,0,0,0,0,0h-0.3v1.6h0.9c0.6,0.1,1.1,0.6,1.1,1.3v21.4c0.1,0.6-0.4,1.2-1.1,1.3h-5.2
			c-0.6-0.1-1.1-0.6-1.1-1.3v-21.4C164.1,138.3,164.5,137.7,165.1,137.6z"/>
		<path class="st14" d="M156.7,140.1h0.8v-1.4h-0.3c-0.5-0.1-0.9-0.5-0.9-1l0,0c0-0.5,0.4-0.9,0.9-1h1v-6.1c0-0.5,0.4-0.9,0.9-1l0,0
			c0.5,0.1,0.9,0.5,0.9,1v6.1h0.9c0.5,0.1,0.9,0.5,0.9,1l0,0c0,0.5-0.4,0.9-0.9,1h-0.3v1.4h0.8c0.6,0,1,0.5,1,1.1c0,0,0,0,0,0v19.2
			c0.1,0.6-0.4,1.1-1,1.1c0,0,0,0,0,0h-4.7c-0.6,0-1-0.6-1-1.1v-19.2C155.7,140.7,156.1,140.2,156.7,140.1z"/>
		<path class="st15" d="M142.3,138.9h12.9c0.6,0,1.1,0.5,1.1,1.1v20.5c0,0.6-0.5,1.1-1.1,1.1h-12.9c-0.6,0-1.1-0.5-1.1-1.1V140
			C141.2,139.4,141.6,138.9,142.3,138.9z"/>
		<path class="st16" d="M144.8,144h7.8c0.4,0,0.7,0.3,0.7,0.7v4.3c0,0.4-0.3,0.7-0.7,0.7h-7.8c-0.4,0-0.7-0.3-0.7-0.7v-4.3
			C144,144.3,144.4,144,144.8,144z"/>
		<path class="st16" d="M144.6,151.1h8.1c0.3,0,0.6,0.3,0.6,0.6v0.6c0,0.3-0.3,0.6-0.6,0.6h-8.1c-0.3,0-0.6-0.3-0.6-0.6v-0.6
			C144,151.4,144.3,151.1,144.6,151.1z"/>
		<path class="st16" d="M144.6,154.7h8.1c0.3,0,0.6,0.3,0.6,0.6v0.6c0,0.3-0.3,0.6-0.6,0.6h-8.1c-0.3,0-0.6-0.3-0.6-0.6v-0.6
			C144,154.9,144.3,154.7,144.6,154.7z"/>
		<path class="st17" d="M158.1,147.7h7.9c0.4,0,0.7,0.3,0.7,0.7v12.6c0,0.4-0.3,0.7-0.7,0.7h-7.9c-0.4,0-0.7-0.3-0.7-0.7v-12.6
			C157.5,148,157.8,147.7,158.1,147.7z"/>
		<path class="st17" d="M174,140.9h16.2c0.8,0,1.4,0.6,1.4,1.4v17.9c0,0.8-0.6,1.4-1.4,1.4H174c-0.8,0-1.4-0.6-1.4-1.4v-17.9
			C172.6,141.6,173.3,140.9,174,140.9z"/>
		<path class="st15" d="M169.8,147.7h7.9c0.4,0,0.7,0.3,0.7,0.7v12.6c0,0.4-0.3,0.7-0.7,0.7h-7.9c-0.4,0-0.7-0.3-0.7-0.7v-12.6
			C169.1,148,169.4,147.7,169.8,147.7z"/>
		<path class="st18" d="M243.2,136h18.4c0.9,0,1.6,0.7,1.6,1.6V160c0,0.9-0.7,1.6-1.6,1.6h-18.4c-0.9,0-1.6-0.7-1.6-1.6v-22.4
			C241.6,136.7,242.3,136,243.2,136z"/>
		<path class="st19" d="M229.8,136h9.4c0.4,0,0.8,0.4,0.8,0.8v24c0,0.4-0.4,0.8-0.8,0.8h-9.4c-0.4,0-0.8-0.4-0.8-0.8v-24
			C229,136.4,229.3,136,229.8,136z"/>
		<path class="st20" d="M220.3,131.2h10.9c0.5,0,0.9,0.4,0.9,0.9v28.6c0,0.5-0.4,0.9-0.9,0.9h-10.9c-0.5,0-0.9-0.4-0.9-0.9v-28.6
			C219.4,131.6,219.8,131.2,220.3,131.2z"/>
		<path class="st21" d="M216.1,149.8h19.3c0.5,0,0.9,0.4,0.9,0.9v10.1c0,0.5-0.4,0.9-0.9,0.9h-19.3c-0.5,0-0.9-0.4-0.9-0.9v-10.1
			C215.3,150.1,215.6,149.8,216.1,149.8z"/>
		<path class="st18" d="M202.7,139.9h9.4c0.4,0,0.8,0.4,0.8,0.8v20.1c0,0.4-0.4,0.8-0.8,0.8h-9.4c-0.4,0-0.8-0.4-0.8-0.8v-20.1
			C201.9,140.3,202.2,139.9,202.7,139.9z"/>
		<path class="st22" d="M246.5,141.8h11.7c0.5,0,0.8,0.4,0.8,0.8v4.9c0,0.5-0.4,0.8-0.8,0.8h-11.7c-0.5,0-0.8-0.4-0.8-0.8v-4.9
			C245.7,142.1,246.1,141.8,246.5,141.8z"/>
		<path class="st22" d="M246.4,149.8h12c0.4,0,0.7,0.3,0.7,0.7v0.7c0,0.4-0.3,0.7-0.7,0.7h-12c-0.4,0-0.7-0.3-0.7-0.7v-0.7
			C245.7,150.1,246,149.8,246.4,149.8z"/>
		<path class="st22" d="M246.4,153.8h12c0.4,0,0.7,0.3,0.7,0.7v0.7c0,0.4-0.3,0.7-0.7,0.7h-12c-0.4,0-0.7-0.3-0.7-0.7v-0.7
			C245.7,154.1,246,153.8,246.4,153.8z"/>
		<path class="st23" d="M207.4,152.9c1.2-0.1,2.1-1.1,2-2.3s-1.1-2.1-2.3-2c-1.1,0.1-2,1-2,2.1C205.1,152,206.1,152.9,207.4,152.9z"
			/>
		<path class="st4" d="M126.5,164.3h7.3c0.5,0,0.9,0.4,0.9,0.9v6.6c0,0.5-0.4,0.9-0.9,0.9h-7.3c-0.5,0-0.9-0.4-0.9-0.9v-6.6
			C125.7,164.7,126.1,164.3,126.5,164.3z"/>
		<path class="st4" d="M126.5,108.4h7.3c0.5,0,0.9,0.4,0.9,0.9v6.6c0,0.5-0.4,0.9-0.9,0.9h-7.3c-0.5,0-0.9-0.4-0.9-0.9v-6.6
			C125.7,108.8,126.1,108.4,126.5,108.4z"/>
		<path class="st24" d="M169.8,215.1l1.6,8.3c0,0,10.1,5.6,11.1,15.6c1.4,13.3,3.6,31.4,6.8,43.5c2.3,8.4,5.5,18.2,8.7,27.2h-12.5
			c-5.6-14.5-11.2-32.3-13.8-49.3C165.8,222.7,169.8,215.1,169.8,215.1z"/>
		<path class="st7" d="M165.5,204c5.6,4,14.7,11.4,16.3,29.3c0.4,4.9,1.1,11,1.9,17.4c-1.5,5.8-2.4,14.1-1.1,25.7
			c1.2,11.3,3.5,22.4,6.8,33.3h-4c-5.6-14.5-11.2-32.3-13.8-49.3c-4.4-28.5-3.2-39.8-2.4-43.6C170,216.6,164.7,204.3,165.5,204z"/>
		<path class="st25" d="M165.4,222.4c-3.4-2.2-9.4-27.2-13.1-23.2s-19.6,7.5-21.6,8.4s14.2,61.2,27.7,66.9c5,2.1,8.1-0.1,10-4.5
			C171.9,262.1,174.3,228.1,165.4,222.4z"/>
		<path class="st26" d="M146.6,212.1l0.6,1.1c0,0,9.2,27.8,8.8,50s-11.6,3.2-11.4,1.3s2.2-38.1,0.2-51.2
			C144.9,213.3,145,211.6,146.6,212.1z"/>
		<path class="st27" d="M146.6,212.1l0.6,1.1c0,0,0.3,1,0.9,2.8c-0.7,0.5-1.5,1.7-1.5,4.4c0,3.9-0.3,19.3,8.4,27.1
			c0.7,5.2,1,10.5,1,15.7c-0.4,22.3-11.6,3.2-11.4,1.3s2.2-38.1,0.2-51.2C144.9,213.3,145,211.6,146.6,212.1z"/>
		<path class="st24" d="M152,198.4c0,0,9,21.3,5.6,45.6c-2,14.7-5.6,29.1-10.6,43v22.7h30.2c-0.4-7.4-0.3-14.8,0.4-22.1
			C180.1,260.6,187.7,203.1,152,198.4z"/>
		<path class="st7" d="M158.3,236.4c-0.1,2.6-0.3,5.1-0.7,7.6c-2,14.7-5.6,29.1-10.6,43v22.7h14.6c-4.9-33.9,5.4-59.9,6.6-66.4
			c0.6-3.1,1.1-6.2,1.3-9.3l-7.7-7.8l-0.9,9.8L158.3,236.4z"/>
		<path class="st24" d="M157.3,309.7c-0.8-5.4-1.5-9.9-1.8-12.9c-3.5-39.5-1.8-65.9-28.8-97.1c-6.3,1.2-16.3,6.6-16.3,6.6
			c-5,2.6-11.3,7.1-12.1,12.8c-1.2,8.1,7.8,36,13.3,53.5c4.1,13.1,2.8,25.8,0.5,37L157.3,309.7z"/>
		<path class="st7" d="M120.3,309.7c0.2-2.6,0.5-5.3,0.8-8c4.2-30.7-5.7-66.8-5.7-66.8l-4.6,3.9l-8.4,3.4
			c2.8,10.2,6.4,21.7,9.2,30.5c4.1,13.1,2.8,25.8,0.5,37L120.3,309.7z"/>
		<path class="st28" d="M130.2,173.6l0.3,6.3v14.9c0,1-0.9,2.3-2.4,3.5c2.3,2.5,8.1,8.4,11.7,9c4.6,0.7,9.9-1.3,11.3-2.5
			c0.9-0.8,1-4.9,1.6-7.2c-0.4-0.1,0.1,0-0.4-0.1c-1.1-0.3-2.1-0.9-2.9-1.7c-2.2-2.4-2.1-12.9,0.1-15.6S130.2,173.6,130.2,173.6z"/>
		<path class="st29" d="M147.5,204.5l-2.6-1.4c0,0-0.2,2.9-0.5,3s-0.7-1.8-1.9-2.5s-4.1,3.4-4.1,3.4s1.1,3.2,2.7,3.4
			s6.5,0.8,6.6-0.7S147.5,204.5,147.5,204.5z"/>
		<path class="st27" d="M144.2,207.9c-1.5-0.1-2.9-0.6-4.2-1.4c-1-0.7-2.5-0.6-3.4,0.3l1.9,2.1l0.1,0.9c0,0,2.8-0.5,4.5,0.8
			S144.2,207.9,144.2,207.9z"/>
		<path class="st30" d="M152.3,199.3c0,0,12.5,30.3-0.2,71.5v3.1c0,0,10.5-19.1,15.5-34.7c0,0,0.4-1.5-0.6-2.1s-3.2-2.2-4.4-2.2
			s0.6-1.5,5.3,0.4c0.7-0.1,1.2-0.6,1.5-1.3c0.3-1.1-1.1-18.5-13.5-34.8c0,0-0.2-0.4-1.1-0.7S152,197.7,152.3,199.3z"/>
		<path class="st31" d="M129.2,195.4c0,0,3.3,5.9,12,7.4c1,0.2,1.8,1.1,1.9,2.1c0,1.8-5.1,6.5-5.6,9.1s-11-10.8-11.6-15
			C125.8,199,127.6,195.9,129.2,195.4z"/>
		<path class="st26" d="M147.8,208.1c-0.5-0.4-1.1-0.7-1.8-0.8c-0.8,0-2.3,0-2.9,0.6c-0.6,0.6-1.1,1.4-1.4,2.2
			c0,0.4,2.4,2.9,3.2,3.2s1.6-0.2,2.4-0.1S148.3,209,147.8,208.1z"/>
		<path class="st27" d="M144,207.5c-0.3,0.1-0.6,0.2-0.9,0.4c-0.6,0.6-1.1,1.4-1.4,2.2c0,0.4,2.4,2.9,3.2,3.2s1.6-0.2,2.4-0.1
			c0.2,0,0.4-0.2,0.5-0.6C142,211.6,143.6,208.2,144,207.5z"/>
		<path class="st30" d="M126.7,199.8c0,0,24.8,17.4,27,77.3c0,0,0.1,1.2-0.5,1.3s-11.8-32-19.1-37.7c-0.6-0.5-0.9-1.4-0.7-2.1
			c0.5-1.3,4-3.8,5.6-4.7s-4.6,0-6.8,1.2s-3.7,0-5.2-2.2s0.5-27.6-5.7-31.6c-0.1-0.2-0.1-0.5,0.1-0.7c1.3-0.6,2.6-1,3.9-1.3
			C125.8,199.3,126.3,199.4,126.7,199.8z"/>
		<path class="st31" d="M149.8,195.2c0,0-0.2,5.3-4.3,7.2c-0.5,0.2-0.7,0.8-0.5,1.2c0.1,0.1,0.2,0.3,0.3,0.4c0.9,1,2.3,5.1,2.7,6.9
			s5.5-7.4,5.1-13.1C153.1,197.7,151.2,195.5,149.8,195.2z"/>
		<path class="st24" d="M102.3,218.4c0,0,0.5-7.2-3.2-1.9s-15.9,76.4-14.3,83.3c0.4,1.7,2.6,5.3,5.8,10h18.6
			c-3.2-5.2-5.8-9.8-7-12.3c-3.9-8.1,11.6-42.6,12.9-48.7S116.5,225.2,102.3,218.4z"/>
		<path class="st7" d="M102.2,297.4c-2.7-5.5,3.7-23.3,8.4-36l1.6-4.2c1.1-2.8,2.1-5.7,2.9-8.6c0.1-0.5,0.2-1,0.3-1.6
			c0.1-0.9,0.2-1.9,0.3-3.1c0.1-1.6,1.1-2.5,0.9-4.4c-0.9-7.7-4.9-10.6-5.9-9.7s-0.4,7.8-0.6,9.5c-0.2,1.4-0.4,3.2-0.8,5.9
			c-0.2,0.9-0.3,1.9-0.5,3c-0.4,1.9-0.8,4-1.4,6.5c-0.8,3.4-2,7.5-3.5,12.3c-7.8,24.4-0.9,31.5-0.9,31.5
			C102.6,298.1,102.4,297.7,102.2,297.4L102.2,297.4z M84.8,298.8c0,0.3,0.1,0.6,0.1,0.9c0.4,1.7,2.6,5.3,5.8,10h2
			C88.1,303.5,84.8,298.9,84.8,298.8z"/>
		<path class="st7" d="M167.9,129.9c0,0,4,4.6,4.1,8.1s-4.5,18.5-4.5,20.8s-3.8,1.6-4.1-1.6S154.2,135,167.9,129.9z"/>
		<path class="st32" d="M164.9,157c-4.1,0-7.4,3.3-7.4,7.4s3.3,7.4,7.4,7.4s7.4-3.3,7.4-7.4l0,0C172.3,160.3,169,157,164.9,157z"/>
		<path class="st32" d="M114.2,157c-4.1,0-7.4,3.3-7.4,7.4s3.3,7.4,7.4,7.4s7.4-3.3,7.4-7.4l0,0C121.6,160.3,118.3,157,114.2,157z"
			/>
		<path class="st33" d="M141.3,119.6L141.3,119.6c-14,0-25.3,11.4-25.3,25.3v23c0,14,11.3,25.3,25.3,25.3l0,0
			c14,0,25.3-11.4,25.3-25.3v-23C166.5,130.9,155.2,119.6,141.3,119.6z"/>
		<path class="st28" d="M116.6,139.3c-0.4,1.8-0.6,3.7-0.6,5.6v23c0,14,11.3,25.3,25.3,25.3c-27.1-5.3-18.4-39.6-10-42.6
			s26-3.7,30.8-2.8c4,0.8,4.5,3.8,4.5,4.8v-7.7c0-2.8-0.5-5.5-1.4-8.2c-5.1-0.7-18.5,0.1-30.7,0.1
			C128.5,136.8,122.4,137.6,116.6,139.3z"/>
		<path class="st7" d="M158.8,157.6L158.8,157.6c-1.4,0-2.5,1.1-2.5,2.5v3.2c0,1.4,1.1,2.5,2.5,2.5l0,0c1.4,0,2.5-1.1,2.5-2.5v-3.2
			C161.2,158.7,160.1,157.6,158.8,157.6z"/>
		<path class="st7" d="M130.5,157.6L130.5,157.6c-1.4,0-2.5,1.1-2.5,2.5v3.2c0,1.4,1.1,2.5,2.5,2.5l0,0c1.4,0,2.5-1.1,2.5-2.5v-3.2
			C132.9,158.7,131.9,157.6,130.5,157.6z"/>
		<path class="st7" d="M162.3,151.4h-7c-0.7,0-1.3,0.6-1.4,1.4l0,0c0,0.7,0.6,1.3,1.4,1.3h7c0.7,0,1.3-0.6,1.4-1.3l0,0
			C163.6,152,163,151.4,162.3,151.4z"/>
		<path class="st7" d="M134,151.4h-7c-0.8,0-1.3,0.6-1.3,1.4l0,0l0,0c0,0.7,0.6,1.3,1.3,1.3h0h7c0.7,0,1.3-0.6,1.4-1.3l0,0
			C135.3,152,134.7,151.4,134,151.4z"/>
		<path class="st31" d="M136.6,171.7c0,4.4,3.6,8.1,8.1,8.1s8.1-3.6,8.1-8.1l0,0c0-0.8-0.6-1.4-1.4-1.4H138
			C137.2,170.3,136.6,170.9,136.6,171.7L136.6,171.7z"/>
		<path class="st32" d="M160.4,167.4c-2,0-3.7,1.6-3.7,3.7s1.6,3.7,3.7,3.7s3.7-1.6,3.7-3.7v0C164.1,169,162.4,167.4,160.4,167.4z"
			/>
		<path class="st32" d="M128.9,167.4c-2,0-3.7,1.6-3.7,3.7s1.6,3.7,3.7,3.7s3.7-1.6,3.7-3.7l0,0C132.5,169,130.9,167.4,128.9,167.4
			C128.9,167.4,128.9,167.4,128.9,167.4z"/>
		<path class="st24" d="M115.9,163.7c3.8-3.3,5.6-8.4,4.8-13.4c0,0,4.5-5.9,1.7-10.5c0,0,24.9,5.6,40.4,0.5s14-24.4,4.4-33.2
			c-4.6-4.2-8.9-4.8-10.8-2.2c-11,14.9-48.8-1.6-43.1,24.1c0,0-10.2,6.4-0.6,28C112.8,157.1,116.6,156.7,115.9,163.7z"/>
		<path class="st7" d="M115.9,163.7c3.8-3.3,5.6-8.4,4.8-13.4c0,0,4.5-5.9,1.7-10.5c7.3,1.5,14.7,2.4,22.1,2.6
			c-9.6-1.6-19-5.5-25.9-12.6c-3.9-4-4.8-7.8-4.5-11c-1.4,2.3-1.8,5.6-0.8,10.2c0,0-10.2,6.4-0.6,28
			C112.8,157.1,116.6,156.7,115.9,163.7z"/>
		<path class="st30" d="M117.8,115.5c6.8,27,33.6,25.2,56.5,10.6c0.5-5-0.7-10.1-3.3-14.4h-0.1c-17.7,24-45.4,21.7-50.8,2.9
			C119.3,114.9,118.5,115.2,117.8,115.5z"/>
		<path class="st24" d="M285.9,215.1l-1.6,8.3c0,0-10.1,5.6-11.1,15.6c-1.4,13.3-3.6,31.4-6.8,43.5c-2.3,8.4-5.5,18.2-8.7,27.2h12.5
			c5.6-14.5,11.2-32.3,13.8-49.3C289.8,222.7,285.9,215.1,285.9,215.1z"/>
		<path class="st7" d="M290.1,204c-5.6,4-14.7,11.4-16.3,29.3c-0.5,4.9-1.1,11-1.9,17.4c1.5,5.8,2.4,14.1,1.1,25.7
			c-1.2,11.3-3.5,22.4-6.8,33.3h4c5.6-14.5,11.2-32.3,13.8-49.3c4.4-28.5,3.2-39.8,2.4-43.6C285.6,216.6,290.9,204.3,290.1,204z"/>
		<path class="st29" d="M352.8,219.4l-10.4-13.2l-2.3-2l-23.2-8.7l-10.7,1.7l0,0c0,0-10.7,5.2-11.6,5.1c-0.2,0-0.3-0.1-0.5-0.2
			l-6.3,18.2c0,0-3.8,26.3-4.4,28.1s-1,27.1,1,30.7s0.3,9.3,8,11.6s24.1,6.9,35.1-4.7s13.3-18.1,16-22S352.8,219.4,352.8,219.4z"/>
		<path class="st34" d="M290.2,222.4c3.5-2.2,12.8-28.6,16.6-24.6s21.2,5.8,23.3,6.6s-19.4,64.3-32.9,70c-5,2.1-8.1-0.1-10-4.5
			C283.7,262.1,281.3,228.1,290.2,222.4z"/>
		<path class="st26" d="M309,212.1l-0.6,1.1c0,0-9.2,27.8-8.8,50s11.6,3.2,11.4,1.3s-2.2-38.1-0.2-51.2
			C310.7,213.3,310.6,211.6,309,212.1z"/>
		<path class="st27" d="M309,212.1l-0.6,1.1c0,0-0.3,1-0.9,2.8c0.7,0.5,1.5,1.7,1.5,4.4c0,3.9,0.3,19.3-8.4,27.1
			c-0.7,5.2-1,10.5-1,15.7c0.4,22.3,11.6,3.2,11.4,1.3s-2.2-38.1-0.2-51.2C310.7,213.3,310.6,211.6,309,212.1z"/>
		<path class="st24" d="M303.6,198.4c0,0-9.1,21.3-5.6,45.6c2,14.7,5.6,29.1,10.6,43v22.7h-30.2c0.4-7.4,0.3-14.8-0.4-22.1
			C275.5,260.6,267.9,203.1,303.6,198.4z"/>
		<path class="st7" d="M297.3,236.4c0.1,2.5,0.3,5.1,0.7,7.6c2,14.7,5.6,29.1,10.6,43v22.7h-14.5c4.9-33.9-5.4-59.9-6.6-66.4
			c-0.6-3.1-1.1-6.2-1.3-9.3l7.7-7.8l0.9,9.8L297.3,236.4z"/>
		<path class="st24" d="M298.3,309.7c0.8-5.4,1.5-9.9,1.8-12.9c3.5-39.5,1.8-65.9,28.8-97.1c6.3,1.2,16.3,6.6,16.3,6.6
			c5,2.6,11.3,7.1,12.1,12.8c1.2,8.1-7.8,36-13.3,53.5c-4.1,13.1-2.8,25.8-0.5,37L298.3,309.7z"/>
		<path class="st7" d="M335.4,309.7c-0.2-2.6-0.5-5.3-0.8-8c-4.2-30.7,5.7-66.8,5.7-66.8l4.5,3.9l8.4,3.4
			c-2.8,10.2-6.4,21.7-9.2,30.5c-4.1,13.1-2.8,25.8-0.5,37L335.4,309.7z"/>
		<path class="st28" d="M325.4,173.6l-0.3,6.3v14.9c0,1,0.9,2.3,2.5,3.5c-2.3,2.5-8.1,8.4-11.7,9c-4.6,0.7-9.9-1.3-11.3-2.5
			c-0.9-0.8-1-4.9-1.6-7.2c0.4-0.1-0.1,0,0.4-0.1c1.1-0.3,2.1-0.9,2.9-1.7c2.2-2.4,2.1-12.9-0.1-15.6S325.4,173.6,325.4,173.6z"/>
		<path class="st29" d="M308.1,204.5l2.6-1.4c0,0,0.2,2.9,0.5,3s0.7-1.8,1.9-2.5s4.1,3.4,4.1,3.4s-1.1,3.2-2.7,3.4s-6.5,0.8-6.5-0.7
			S308.1,204.5,308.1,204.5z"/>
		<path class="st27" d="M311.5,207.9c1.5-0.1,2.9-0.6,4.2-1.4c1-0.7,2.5-0.6,3.4,0.3l-1.9,2.2l-0.1,0.9c0,0-2.8-0.5-4.5,0.8
			S311.5,207.9,311.5,207.9z"/>
		<path class="st30" d="M303.3,199.3c0,0-12.5,30.3,0.2,71.5v3.1c0,0-10.5-19.1-15.5-34.7c0,0-0.4-1.5,0.6-2.1s3.2-2.2,4.4-2.2
			s-0.6-1.5-5.3,0.4c-0.7-0.1-1.2-0.6-1.5-1.3c-0.3-1.1,1.1-18.5,13.5-34.8c0,0,0.2-0.4,1.1-0.7S303.6,197.7,303.3,199.3z"/>
		<path class="st31" d="M326.4,195.4c0,0-3.3,5.9-12,7.4c-1,0.2-1.8,1.1-1.9,2.1c0,1.8,5.1,6.5,5.6,9.1s11-10.8,11.6-15
			C329.8,199,328,195.9,326.4,195.4z"/>
		<path class="st26" d="M307.8,208.1c0.5-0.4,1.1-0.7,1.8-0.8c0.8,0,2.3,0,2.9,0.6c0.6,0.6,1.1,1.4,1.4,2.2c0,0.4-2.4,2.9-3.2,3.2
			s-1.6-0.2-2.4-0.1S307.3,209,307.8,208.1z"/>
		<path class="st27" d="M311.6,207.5c0.3,0.1,0.6,0.2,0.9,0.4c0.6,0.6,1.1,1.4,1.4,2.2c0,0.4-2.4,2.9-3.2,3.2s-1.6-0.2-2.4-0.1
			c-0.2,0-0.4-0.2-0.5-0.6C313.6,211.6,312,208.2,311.6,207.5z"/>
		<path class="st30" d="M328.9,199.8c0,0-24.8,17.4-27,77.3c0,0-0.1,1.2,0.5,1.3s11.8-32,19.1-37.7c0.6-0.5,0.9-1.4,0.7-2.1
			c-0.5-1.3-4-3.8-5.6-4.7s4.6,0,6.8,1.2s3.7,0,5.2-2.2s-0.5-27.6,5.7-31.6c0.1-0.2,0.1-0.5-0.1-0.7c-1.3-0.6-2.6-1-3.9-1.3
			C329.8,199.3,329.3,199.4,328.9,199.8z"/>
		<path class="st31" d="M305.8,195.2c0,0,0.2,5.3,4.3,7.2c0.5,0.2,0.7,0.8,0.5,1.2c-0.1,0.1-0.2,0.3-0.3,0.4c-0.9,1-2.3,5.1-2.7,6.9
			s-5.5-7.4-5.1-13.1C302.5,197.7,304.4,195.5,305.8,195.2z"/>
		<path class="st24" d="M350.4,214.4c0,0-3-6.5,2.3-2.9s41.8,65.9,42.8,72.8c0.4,3-2.2,13.7-5.9,25.4h-14.9
			c1.8-8.9,3.4-17.6,3.7-21.4c0.8-9-25.9-35.7-29.3-41.1S339.5,225.7,350.4,214.4z"/>
		<path class="st7" d="M378.4,288.3c0.5-6.1-11.7-20.5-20.6-30.7l-3-3.4c-2-2.2-4-4.6-5.8-7c-0.3-0.4-0.5-0.9-0.8-1.4
			c-0.4-0.8-0.9-1.7-1.3-2.8c-0.6-1.5-4.8-7-5.3-8.8c0.4-2.9,3.8-6.6,5-6.2s3.1,7.2,3.9,8.7c0.6,1.2,1.5,2.9,2.8,5.2
			c0.5,0.8,1,1.7,1.6,2.6c1,1.6,2.2,3.4,3.6,5.5c2,2.9,4.5,6.3,7.7,10.3c15.9,20.1,12,29.2,12,29.2
			C378.3,289.1,378.4,288.6,378.4,288.3L378.4,288.3z M395.2,283.4c0.1,0.3,0.2,0.6,0.2,0.9c0.4,3-2.2,13.7-5.9,25.4h-2
			C391.9,296.7,395.2,283.5,395.2,283.4z"/>
		<path class="st7" d="M286.2,140l0.4,4.3c0,0,1.6,1.7,7.3,1.2s53.5,1.4,53.5,1.4s0.6,0.3,1.3-0.6s-2.8-13.4-2.8-13.4L286.2,140z"/>
		<path class="st32" d="M290.4,153c4.4,0,8,3.6,8,8s-3.6,8-8,8s-8-3.6-8-8S286,153,290.4,153z"/>
		<path class="st32" d="M345.2,153c4.4,0,8,3.6,8,8s-3.6,8-8,8s-8-3.6-8-8S340.8,153,345.2,153z"/>
		<path class="st33" d="M316,112.5L316,112.5c15.1,0,27.4,12.3,27.4,27.4v24.9c0,15.1-12.3,27.4-27.4,27.4l0,0
			c-15.1,0-27.4-12.3-27.4-27.4v-24.9C288.6,124.8,300.9,112.6,316,112.5z"/>
		<path class="st28" d="M342.7,133.9c0.5,2,0.7,4,0.7,6.1v24.9c0,15.1-12.3,27.4-27.4,27.4c29.3-5.8,19.9-42.9,10.9-46.1
			s-28.2-4-33.4-3c-4.4,0.8-4.9,4.1-4.9,5.2V140c0-3,0.5-6,1.5-8.9c5.5-0.8,25.2-3,35.6-3S337.4,132.4,342.7,133.9L342.7,133.9z"/>
		<path class="st4" d="M297,153.7L297,153.7c1.5,0,2.7,1.2,2.7,2.7v3.5c0,1.5-1.2,2.7-2.7,2.7h0c-1.5,0-2.7-1.2-2.7-2.7v-3.5
			C294.3,154.9,295.5,153.7,297,153.7z"/>
		<path class="st4" d="M327.6,153.7L327.6,153.7c1.5,0,2.7,1.2,2.7,2.7v3.5c0,1.5-1.2,2.7-2.7,2.7h0c-1.5,0-2.7-1.2-2.7-2.7v-3.5
			C324.9,154.9,326.1,153.7,327.6,153.7z"/>
		<path class="st7" d="M293.2,147h7.6c0.8,0,1.5,0.7,1.5,1.5l0,0c0,0.8-0.6,1.5-1.5,1.5h-7.6c-0.8,0-1.5-0.6-1.5-1.5l0,0
			C291.7,147.6,292.4,147,293.2,147z"/>
		<path class="st7" d="M323.8,147h7.6c0.8,0,1.5,0.6,1.5,1.5l0,0c0,0.8-0.6,1.5-1.5,1.5h-7.6c-0.8,0-1.5-0.6-1.5-1.5l0,0
			C322.4,147.7,323,147,323.8,147z"/>
		<path class="st31" d="M321,169c0.2,4.8-3.6,8.9-8.4,9s-8.9-3.6-9-8.4c0-0.2,0-0.4,0-0.6l0,0c0-0.8,0.7-1.5,1.5-1.5h14.4
			C320.3,167.5,321,168.1,321,169C321,169,321,169,321,169z"/>
		<path class="st32" d="M295.2,164.3c2.2,0,4,1.8,4,4s-1.8,4-4,4s-4-1.8-4-4S293,164.3,295.2,164.3z"/>
		<path class="st32" d="M329.4,164.3c2.2,0,4,1.8,4,4s-1.8,4-4,4s-4-1.8-4-4S327.1,164.3,329.4,164.3z"/>
		<path class="st7" d="M333.6,128.9c-0.8,4.8,4.1,22.1,6.5,24.1c0,0-2,5.8,2.5,7.9c0,0-1.2-7.6,4.7-7.6l1-11.9l-5.2-10.8
			L333.6,128.9z"/>
		<path class="st24" d="M348.7,146.2c0,0,11.9-27-13.1-31.2c0,0-6.8-12.9-20-9.4s-21.4,3.6-27.4-2.2c0,0-3.3,6.4,1,12
			c-2.6,1.3-4.5,3.7-5.1,6.5c-0.4,2.7-2.7,4.8-5.5,4.8c1.7,1.5,4,2.1,6.2,1.6c0,0-2.3,10.7,1.9,15.9c0,0,0.6-4.4,10.3-4.3
			s17.6,1.4,22.3-5.4c-0.8,2.7-2.6,5.1-5.1,6.4c0,0,12.6,0,15.7-9.4C330.6,144.5,343.9,141.1,348.7,146.2z"/>
		<path class="st30" d="M347.6,120.9c-0.7-0.8-1.5-1.6-2.4-2.2c-8.8,1-24.4,0.6-33.2-12.2c-7.1,1.7-12.7,2-17.2,0.7
			C300.8,116,318.2,135,347.6,120.9z"/>
		<path class="st35" d="M348.7,146.2c1.9-4.5,2.8-9.3,2.8-14.2c-5,3.9-12.9,6.7-21-4.1c0,0-2.6,10.4-16.3,13.2c0,0,12.6,0,15.7-9.4
			C330.6,144.5,343.9,141.1,348.7,146.2z"/>
		<path class="st24" d="M192.4,180.1c-1.1-11.2,12.2-44.3,20.7-59.4s23.6-13.9,27.4-9.5c0,0,21.9-6.4,30.9,7.9
			c5.7,8.9,7.4,30.1,7.2,49.2c-0.1,17.6-7.3,26.9-17.4,31.1c2.7-7.7,0.6-12.7,0.6-12.7c1.2,5.1-1.8,12.9-1.9,13.2
			c-1,0.4-2,0.7-3,0.9c1.5-4.5,1.7-9.3,0.6-13.9c-0.6,5.2-4.1,11.3-6.5,14.9C226.1,204.3,193,187,192.4,180.1z"/>
		<path class="st35" d="M278.1,148.3c0.5,6.5,0.6,13.3,0.6,19.9c0,5.2-0.8,10.3-2.4,15.2c-26.1-12.5-52.2-26.3-52.2-26.3
			c-2.4-4.7,3.3-29.8,3.3-29.8S241.6,156.8,278.1,148.3z"/>
		<path class="st7" d="M274.1,188.1c-2.9,5.1-7.4,9.1-12.9,11.2c2.7-7.6,0.6-12.7,0.6-12.7c1.2,5.1-1.8,12.9-1.9,13.2
			c-1,0.4-2,0.7-3,0.9c1.5-4.5,1.7-9.3,0.6-13.9c-0.6,5.2-4.1,11.3-6.5,14.9c-17.4,1.8-38.7-6.1-50.3-13.3c0-0.1-6.4-38.9,10.1-43.2
			s31.6,23.1,31.6,23.1l12.5-6C254.9,162.3,274.1,170.5,274.1,188.1z"/>
		<path class="st7" d="M254.5,316.4c-0.5-6-1-10.8-1.5-14.1c-0.4-2.7-2.4-3.5-4-3.9c-1.3-1.3-7.9-1.4-22.4-1.1
			c-14.4-0.2-21-0.2-22.4,1.1c-1.6,0.4-3.6,1.2-4,3.9c-0.5,3.3-1,8.1-1.5,14.1H254.5z"/>
		<path class="st31" d="M226.7,303.8c4.8,0,9.5-0.3,17.7-0.9c9.1-0.7,8.4-5.6,8.4-11.5c-0.1-25.7,3.5-33,5.7-39.9
			c2.7-8.7,6.1-33.5,0.8-39.5c-6.5-7.3-16.8-8.9-16.8-8.9l-7.4,3.1l-8.5,3.1l0,0l-8.5-3.1l-7.4-3.1c0,0-10.3,1.6-16.8,8.9
			c-5.3,5.9-1.9,30.8,0.9,39.5c2.2,6.9,5.8,14.3,5.7,40c0,5.9-0.8,10.8,8.4,11.5C217.1,303.5,221.9,303.8,226.7,303.8z"/>
		<path class="st36" d="M239.1,303.2c1.6-0.1,3.4-0.2,5.3-0.4c9.1-0.7,8.4-5.6,8.4-11.5c-0.1-25.7,3.5-33,5.7-39.9
			c1.4-4.9,2.3-9.8,2.9-14.8c-1.9-3.6-3.5-6-4.7-7c0,0-1.1-0.1-1.4,1.7s-3.1,14.3-5.2,17.5s-10,3.4-22.3,3.4s-27.9-1.9-32.6-8
			c-0.4-0.6-1.3-0.9-2-0.6c0.4,2.6,1.1,5.2,1.8,7.8c0.9,3,2.2,6.1,3.3,10.8l0.7-1.3c0,0-0.8-4.5,3.4-4.5s33.7,1.4,41.3,7.2
			S248.1,300.2,239.1,303.2z"/>
		<path class="st3" d="M240.6,202.8c0.1-0.3-0.3-3.5-0.3-3.5s-2.5-2-7.2-1.1s-6.4,1-6.4,1s-1.7-0.1-6.4-1s-7.2,1.1-7.2,1.1
			s-0.4,3.2-0.3,3.5c0.7,4.6,14,7.1,14,7.1S240,207.5,240.6,202.8z"/>
		<path class="st28" d="M235.9,177.5l-0.3,6.4v15c0,1,0.9,2.3,2.5,3.5c-2,2.2-4.2,4.3-6.6,6.2h-9.8c-2.3-1.9-4.5-4-6.6-6.2
			c1.6-1.2,2.5-2.6,2.5-3.5v-15l-0.3-6.4c0,0,4.6,0.8,9.3,2C231.4,178.3,235.9,177.5,235.9,177.5z"/>
		<path class="st32" d="M212,153.6c3.9,0.9,6.3,4.7,5.4,8.6s-4.7,6.3-8.6,5.4c-3.9-0.9-6.3-4.7-5.4-8.6
			C204.3,155.2,208.1,152.8,212,153.6L212,153.6z"/>
		<path class="st32" d="M257.2,164.1c3.9,0.9,6.3,4.7,5.4,8.6s-4.7,6.3-8.6,5.4c-3.9-0.9-6.3-4.7-5.4-8.6
			C249.5,165.6,253.4,163.2,257.2,164.1z"/>
		<path class="st33" d="M241.2,123.1L241.2,123.1c13.2,3.1,21.5,16.3,18.5,29.5l-5,21.8c-3.1,13.2-16.3,21.5-29.5,18.4l0,0
			c-13.2-3.1-21.5-16.3-18.4-29.5l5-21.8C214.8,128.3,228,120.1,241.2,123.1z"/>
		<path class="st28" d="M241.2,123.1L241.2,123.1c13.2,3.1,21.5,16.3,18.5,29.5l-5,21.8c-3.1,13.2-16.3,21.5-29.5,18.4l0,0
			c-0.4-0.1-0.8-0.2-1.2-0.3c11.5,0,18.1-3.8,21.3-9c12.2-19.4-9.9-28-17-37.4c-1.3-1.7-2.4-3.6-3-5.6c-2.8,5-10.9,7.8-15.5,9l1.8-8
			C214.8,128.3,228,120.1,241.2,123.1z"/>
		<path class="st7" d="M217.3,150.7l6.6,1.5c0.7,0.2,1.2,0.9,1,1.6l0,0c-0.1,0.7-0.9,1.2-1.6,1h0l-6.6-1.5c-0.7-0.1-1.2-0.9-1-1.6v0
			l0,0C215.9,151,216.5,150.5,217.3,150.7C217.3,150.7,217.3,150.7,217.3,150.7z"/>
		<path class="st7" d="M244.1,156.8l6.6,1.5c0.7,0.1,1.1,0.8,1,1.5c0,0,0,0,0,0l0,0c-0.1,0.7-0.8,1.1-1.5,1c0,0,0,0,0,0l-6.6-1.5
			c-0.7-0.1-1.2-0.9-1-1.6v0l0,0C242.6,157.1,243.3,156.7,244.1,156.8L244.1,156.8z"/>
		<path class="st31" d="M237.2,175.5c-1.1,4.2-5.4,6.7-9.6,5.6c-4-1.1-6.5-5-5.7-9.1l0,0c0.2-0.7,0.9-1.2,1.6-1l0,0l12.6,2.9
			C236.9,174.1,237.3,174.8,237.2,175.5L237.2,175.5z"/>
		<path class="st32" d="M215.6,166.2c1.9,0.4,3.1,2.4,2.7,4.3s-2.4,3.1-4.3,2.7c-1.9-0.4-3.1-2.3-2.7-4.3S213.6,165.8,215.6,166.2z"
			/>
		<path class="st32" d="M245.4,173.1c1.9,0.4,3.1,2.4,2.7,4.3s-2.4,3.1-4.3,2.7c-1.9-0.4-3.1-2.4-2.7-4.3S243.5,172.6,245.4,173.1
			L245.4,173.1z"/>
		<path class="st35" d="M260.1,164.9l-4.6-3.3c0,0-4.2,5.6,0.1,8.9l0.7-3C256.6,165.9,257.7,164.3,260.1,164.9z"/>
		<path class="st24" d="M226.8,128.6c0,0-1.6,18.5,31.8,35.8l5.6-26l-15.2-17l-18.3-1.7c0,0-11,4.1-12.2,5.2S208,141.6,208,141.6
			l2.9,3.7C210.9,145.2,219.3,143.5,226.8,128.6z"/>
		<path class="st35" d="M226.8,130c0.4,4.6,3.8,19.9,31.8,34.4l3.1-14.7c-24.5-1.8-34.4-22.4-34.4-22.4S227.2,128.4,226.8,130z"/>
		<path class="st30" d="M228.6,108.6c4.3-0.8,8.1,0,10.5,1.4c4.5,29.9,27.1,32.5,38.3,31.8c0.1,0.6,0.1,1.2,0.2,1.9
			C235,148.1,229.2,120.7,228.6,108.6z"/>
		<path class="st32" d="M232.2,213.6c0,0-2.2,4.5-3.2,5.2s1.6,33.2,4.6,49.2s-6.3,22.5-6.3,22.5s-9.9-6.6-7-22.5s4.9-48.5,4-49.2
			s-3.2-5.2-3.2-5.2l5.5-4.1L232.2,213.6z"/>
		<path class="st27" d="M232.2,213.6c0,0-2.2,4.5-3.2,5.2s1.6,33.2,4.6,49.2s-6.3,22.5-6.3,22.5s-9.9-6.6-7-22.5
			c0.4-2.2,0.8-4.8,1.2-7.6c10.1-7.3,6.7-33,6.1-36.4s-3.1-2.8-3.1-2.8c0.1-0.8,0-1.6-0.2-2.3c-0.3-0.3-0.5-0.6-0.7-0.9
			c0,0,3.7,0.5,4.4-0.8s-0.6-4.2-2.1-4.1c-1.1,0.1-2.4,2.2-3.2,3.5c-0.3-0.6-0.7-1.2-0.9-1.7l-0.3-1.5l5.1-3.8L232.2,213.6z"/>
		<path class="st37" d="M240.3,199.4c0,0-3.3,5.9-12.1,7.5c-1,0.2-1.8,1.1-1.9,2.2c0,1.8,5.2,6.6,5.6,9.1s11-10.9,11.7-15.1
			C243.7,203.1,242,199.9,240.3,199.4z"/>
		<path class="st37" d="M213,199.4c0,0,3.3,5.9,12.1,7.5c1,0.2,1.8,1.1,1.9,2.1c0,1.8-5.2,6.6-5.6,9.1s-11-10.9-11.7-15.1
			C209.6,203.1,211.4,199.9,213,199.4z"/>
		<path class="st7" d="M241.1,168.3c-0.1,0.5-0.6,0.8-1,0.7h0c-0.5-0.1-0.8-0.6-0.7-1.1c0.5-2.4,2.9-3.8,5.2-3.3l0,0
			c2.3,0.6,3.8,2.9,3.3,5.2c-0.1,0.5-0.6,0.8-1.1,0.7c-0.5-0.1-0.8-0.6-0.7-1.1c0.1-0.7,0-1.4-0.3-1.9c-0.4-0.6-0.9-1-1.6-1.1
			C242.8,166.1,241.4,166.9,241.1,168.3L241.1,168.3L241.1,168.3z"/>
		<path class="st7" d="M216.6,162.6c-0.1,0.5-0.6,0.8-1.1,0.7c-0.5-0.1-0.8-0.6-0.7-1.1c0.6-2.4,2.9-3.8,5.3-3.3
			c2.4,0.6,3.8,2.9,3.3,5.3c-0.1,0.5-0.7,0.8-1.1,0.6c-0.4-0.1-0.7-0.6-0.6-1c0.3-1.4-0.5-2.8-1.9-3.1S216.9,161.3,216.6,162.6
			L216.6,162.6z"/>
		<path class="st31" d="M254.1,208.1c0,0,12.6,5.8,22.2,31.5c6.6,17.6,10,36.3,9.8,55.1c0,8.5-14.3,29.1-20.9,33.1
			c-0.6,0.4-1.4,0.6-2.1,0.5c-1.2-0.2-2.8-3.2-2.8-4.5s7.1-8.8,12.5-21.3s-4.5-45.3-14.4-54.6C247.8,237.8,246,220.6,254.1,208.1z"
			/>
		<path class="st36" d="M273.5,300.7c3.8-13.6-5.6-43.8-15-52.7c-2.2-2.1-4.1-4.5-5.5-7.2c1.2-4.2,2.1-8.4,2.3-9.4
			c0.3-1.8,1.4-1.7,1.4-1.7c3.6,3,10.3,17.1,16.5,39.1S273.5,300.7,273.5,300.7L273.5,300.7z"/>
		<path class="st31" d="M199.2,208.1c0,0-12.6,5.9-22.2,31.5c-6.6,17.6-10,36.3-9.8,55.1c0,8.5,14.3,29.1,20.9,33.1
			c0.6,0.4,1.4,0.6,2.1,0.5c1.2-0.2,2.8-3.2,2.8-4.5s-7.2-8.8-12.5-21.3s4.5-45.3,14.4-54.6C205.6,237.8,207.3,220.6,199.2,208.1z"
			/>
		<path class="st36" d="M179.3,298c-2-14.6,6.7-41.6,15.6-50c0.7-0.6,1.3-1.3,1.9-2c-0.6-0.5-1.2-1.1-1.7-1.7
			C190.4,238.2,174.3,271.3,179.3,298L179.3,298z"/>
		<path class="st38" d="M67.8,212.6c-9.1-9.3-15.9,2.5-14.9,14.3s11.6,53.9,8.4,68.1c-1.3,5.5-0.1,5.3,2,1.8
			C73.6,279.2,80.4,225.3,67.8,212.6z"/>
		<path class="st39" d="M60.8,299c0.2,0.5,0.6,0.3,1.3-0.5c12.1-32.8-0.5-83.7-0.5-83.8c-0.1-0.3-0.3-0.4-0.6-0.4
			c-0.3,0.1-0.5,0.4-0.4,0.6l0,0C60.7,215.1,73.4,266.6,60.8,299z"/>
		<path class="st39" d="M45.4,233c-9.6-5.1-12,6-8.3,15.2s22.9,40,23.9,52.2c0.4,4.7,1.3,4.2,2,0.9C66.8,284.6,58.6,239.9,45.4,233z
			"/>
		<path class="st38" d="M61.7,303.6c0.3,0.4,0.6,0.1,0.9-0.8c1.4-29.2-21.5-66.5-21.6-66.6c-0.1-0.2-0.4-0.3-0.6-0.1
			c-0.2,0.1-0.3,0.4-0.2,0.6l0,0C40.3,236.8,63.5,274.6,61.7,303.6z"/>
		<path class="st39" d="M85.9,245.8c9.3-4.1,10.8,6.4,6.6,14.7s-24.1,35.6-25.9,47c-0.7,4.4-1.5,3.8-2,0.7
			C62.3,292.4,73.1,251.3,85.9,245.8z"/>
		<path class="st38" d="M65.8,310.5c-0.3,0.4-0.6,0-0.8-0.8c0.8-27.3,24.7-60.5,24.8-60.6c0.1-0.2,0.4-0.2,0.6-0.1
			c0.2,0.1,0.2,0.4,0.1,0.6c0,0,0,0,0,0C90.4,249.7,66.1,283.3,65.8,310.5z"/>
		<path class="st6" d="M53.3,285.2h27.2c0.8,0,1.5,0.7,1.5,1.5v6.7c0,0.8-0.7,1.5-1.5,1.5H53.3c-0.8,0-1.5-0.7-1.5-1.5v-6.7
			C51.8,285.9,52.5,285.2,53.3,285.2z"/>
		<polygon class="st24" points="58,290.7 75.8,290.7 80.5,294.9 76.7,309.6 66.9,309.6 57.1,309.6 53.3,294.9 		"/>
		<polygon class="st7" points="80.5,294.9 79.7,297.9 54.1,297.9 53.3,294.9 		"/>
		<path class="st40" d="M246,295.9h30.8c3.8,0,6.9,3.1,6.9,6.9s-3.1,6.9-6.9,6.9H246c-3.8,0-6.9-3.1-6.9-6.9S242.2,295.9,246,295.9z
			"/>
		<path class="st31" d="M300.5,296.6h-25.6c-3.4,0-6.1,2.7-6.1,6.1l0,0c0,3.4,2.7,6.1,6.1,6.1h25.6V296.6z"/>
		<path class="st41" d="M300.5,295.9c0.4,0,0.8,0.5,0.7,0.9c0,0.4-0.3,0.7-0.7,0.7h-25.6c-2.9,0-5.3,2.4-5.3,5.3s2.4,5.3,5.3,5.3
			h25.6c0.4,0,0.8,0.5,0.7,0.9c0,0.4-0.3,0.7-0.7,0.7h-25.6c-3.8,0-6.9-3.1-6.9-6.9s3.1-6.9,6.9-6.9l0,0H300.5z"/>
		<path class="st41" d="M248.2,302.8c0-3.8,3.1-6.9,6.9-6.9h-6c-3.8,0-6.9,3.1-6.9,6.9s3.1,6.9,6.9,6.9l0,0h6
			C251.3,309.7,248.2,306.6,248.2,302.8z"/>
		<path class="st41" d="M256.9,302.8c0-3.8,3.1-6.9,6.9-6.9h-6c-3.8,0-6.9,3.1-6.9,6.9s3.1,6.9,6.9,6.9h6
			C260,309.7,256.9,306.6,256.9,302.8z"/>
		<path class="st41" d="M290.6,283.1h-28.5c-3.5,0-6.4,2.9-6.4,6.4c0,3.5,2.9,6.4,6.4,6.4h28.5c3.5,0,6.4-2.9,6.4-6.4
			C297,286,294.1,283.1,290.6,283.1L290.6,283.1z"/>
		<path class="st31" d="M240.3,283.9h23.6c3.1,0,5.6,2.5,5.6,5.6l0,0c0,3.1-2.5,5.6-5.6,5.6h-23.6L240.3,283.9L240.3,283.9z"/>
		<path class="st42" d="M240.3,283.1c-0.4,0-0.7,0.3-0.7,0.8s0.3,0.7,0.7,0.7h23.6c2.7,0,4.9,2.2,4.9,4.9c0,2.7-2.2,4.9-4.9,4.9
			h-23.6c-0.4,0-0.7,0.3-0.7,0.8s0.3,0.7,0.7,0.7h23.6c3.5,0,6.4-2.9,6.4-6.4c0-3.5-2.9-6.4-6.4-6.4L240.3,283.1z"/>
		<path class="st42" d="M293.3,289.5c0-3.5-2.9-6.4-6.4-6.4h1.5c3.5,0,6.4,2.9,6.4,6.4c0,3.5-2.9,6.4-6.4,6.4h-1.5
			C290.4,295.9,293.3,293,293.3,289.5L293.3,289.5z"/>
		<path class="st42" d="M274.8,289.5c0-3.5-2.9-6.4-6.4-6.4h1.6c3.5,0,6.4,2.9,6.4,6.4c0,3.5-2.9,6.4-6.4,6.4h-1.5
			C272,295.9,274.8,293,274.8,289.5L274.8,289.5z"/>
		<path class="st43" d="M82.9,324.6h287.6c2,0.1,3.6,1.8,3.5,3.8V347c0.1,2-1.5,3.7-3.5,3.8H82.9c-2-0.1-3.6-1.8-3.5-3.8v-18.6
			C79.3,326.4,80.8,324.7,82.9,324.6z"/>
		<path class="st42" d="M102.2,350.8h7.5v-19.4h-7.5V350.8L102.2,350.8z M341.5,350.8h9.6v-19.4h-9.6V350.8L341.5,350.8z
			 M205.8,350.8h131v-19.4h-131L205.8,350.8L205.8,350.8z M181,350.8h9.6v-19.4H181L181,350.8L181,350.8z M165.4,350.8h5.6v-19.4
			h-5.7L165.4,350.8z"/>
		<path class="st7" d="M82.9,324.6h287.6c2,0.1,3.6,1.8,3.5,3.8v8H79.4v-8C79.3,326.4,80.8,324.7,82.9,324.6z"/>
		<path class="st44" d="M46.9,309.7h359.6c1.7,0.1,3.1,1.5,3,3.3v15.6c0.1,1.7-1.3,3.2-3,3.3H46.9c-1.7-0.1-3.1-1.6-3-3.3V313
			C43.8,311.3,45.1,309.8,46.9,309.7z"/>
		<path class="st45" d="M384.9,309.7h10.5v22.2h-10.5V309.7z M253.4,309.7h7.9v22.2h-7.9V309.7L253.4,309.7z M64,309.7h13.4v22.2H64
			V309.7z M84.2,309.7h120.4v22.2H84.2V309.7z M225.9,309.7h13.4v22.2h-13.4V309.7z"/>
		<path class="st30" d="M84.9,342.1c1-0.1,1.9,0.7,2,1.7c0.1,1-0.7,1.9-1.7,2c-1,0.1-1.9-0.7-2-1.7c0,0,0-0.1,0-0.1
			C83.1,342.9,83.9,342.1,84.9,342.1L84.9,342.1z"/>
		<path class="st30" d="M368.5,342.1c1-0.1,1.9,0.7,2,1.7c0.1,1-0.7,1.9-1.7,2c-1,0.1-1.9-0.7-2-1.7c0,0,0-0.1,0-0.2
			C366.8,342.9,367.5,342.1,368.5,342.1z"/>
		<path class="st31" d="M409.5,315.8H274l-6.4,4c-0.1,0-0.2,0.1-0.3,0.1H43.8v-1.2h223.3l6.4-4c0.1-0.1,0.2-0.1,0.3-0.1h135.6V315.8
			z"/>
		<path class="st31" d="M536.3,321.6c0-0.4-0.3-0.7-0.7-0.7l0,0c-0.4,0-0.7,0.3-0.7,0.7v1.6h-1.6c-0.4,0-0.7,0.3-0.7,0.7
			s0.3,0.7,0.7,0.7h1.6v1.6c0,0.4,0.3,0.7,0.7,0.7l0,0c0.4,0,0.7-0.3,0.7-0.7v0v-1.6h1.6c0.4,0,0.7-0.3,0.7-0.7s-0.3-0.7-0.7-0.7
			h-1.6V321.6z"/>
		<path class="st30" d="M405.3,180.7c0-0.4-0.3-0.7-0.7-0.7l0,0c-0.4,0-0.7,0.3-0.7,0.7v1.6h-1.6c-0.4,0-0.7,0.3-0.7,0.7l0,0
			c0,0.4,0.3,0.7,0.7,0.7h1.6v1.6c0,0.4,0.3,0.7,0.7,0.7l0,0c0.4,0,0.7-0.3,0.7-0.7v0v-1.6h1.6c0.4,0,0.7-0.3,0.7-0.7
			c0-0.4-0.3-0.7-0.7-0.7l0,0h-1.6V180.7z"/>
		<path class="st31" d="M499.5,300.1c0-0.4-0.4-0.7-0.8-0.6c-0.3,0-0.6,0.3-0.6,0.6v1.6h-1.6c-0.4,0-0.7,0.4-0.6,0.8
			c0,0.3,0.3,0.6,0.6,0.6h1.6v1.6c0,0.4,0.4,0.7,0.8,0.6c0.3,0,0.6-0.3,0.6-0.6v-1.6h1.6c0.4,0,0.7-0.4,0.6-0.8
			c0-0.3-0.3-0.6-0.6-0.6h-1.6V300.1z"/>
		<path class="st30" d="M461.3,307.2c0-0.4-0.3-0.7-0.7-0.7l0,0c-0.4,0-0.7,0.3-0.7,0.7v1.6h-1.6c-0.4,0-0.7,0.2-0.8,0.6
			c0,0.4,0.2,0.7,0.6,0.8c0.1,0,0.1,0,0.2,0h1.6v1.6c0,0.4,0.3,0.7,0.7,0.7s0.7-0.3,0.7-0.7l0,0v-1.6h1.6c0.4,0,0.7-0.4,0.6-0.8
			c0-0.3-0.3-0.6-0.6-0.6h-1.6V307.2z"/>
		<path class="st30" d="M110.8,194.1c0.1-0.4-0.2-0.7-0.6-0.8s-0.7,0.2-0.8,0.6c0,0.1,0,0.1,0,0.2v1.6h-1.6c-0.4,0-0.7,0.3-0.7,0.7
			s0.3,0.7,0.7,0.7h1.6v1.6c-0.1,0.4,0.2,0.7,0.6,0.8s0.7-0.2,0.8-0.6c0-0.1,0-0.1,0-0.2v-1.6h1.6c0.4,0,0.7-0.3,0.7-0.7
			s-0.3-0.7-0.7-0.7l0,0h-1.6V194.1z"/>
		<path class="st30" d="M22,291c0-0.4-0.4-0.7-0.8-0.6c-0.3,0-0.6,0.3-0.6,0.6v1.6H19c-0.4,0-0.7,0.4-0.6,0.8c0,0.3,0.3,0.6,0.6,0.6
			h1.6v1.6c0,0.4,0.4,0.7,0.8,0.6c0.3,0,0.6-0.3,0.6-0.6V294h1.6c0.4,0,0.7-0.2,0.8-0.6c0-0.4-0.2-0.7-0.6-0.8c-0.1,0-0.1,0-0.2,0
			H22V291z"/>
		<path class="st30" d="M71.3,131.2c0-0.4-0.3-0.7-0.7-0.7h0c-0.4,0-0.7,0.3-0.7,0.7v1.6h-1.6c-0.4-0.1-0.7,0.2-0.8,0.6
			s0.2,0.7,0.6,0.8c0.1,0,0.1,0,0.2,0h1.6v1.6c0,0.4,0.3,0.7,0.7,0.7s0.7-0.3,0.7-0.7l0,0v-1.6h1.6c0.4-0.1,0.7-0.4,0.6-0.8
			c0-0.3-0.3-0.6-0.6-0.6h-1.6V131.2z"/>
		<path class="st30" d="M117.9,85.9c0-0.4-0.3-0.7-0.7-0.7s-0.7,0.3-0.7,0.7l0,0v1.6h-1.6c-0.4,0.1-0.7,0.4-0.6,0.8
			c0,0.3,0.3,0.6,0.6,0.6h1.6v1.6c0,0.4,0.3,0.7,0.7,0.7l0,0c0.4,0,0.7-0.3,0.7-0.7V89h1.6c0.4,0.1,0.7-0.2,0.8-0.6
			s-0.2-0.7-0.6-0.8c-0.1,0-0.1,0-0.2,0h-1.6V85.9z"/>
		<path class="st30" d="M229.3,44.8c-0.1-0.4-0.4-0.7-0.8-0.6c-0.3,0-0.6,0.3-0.6,0.6v1.6h-1.6c-0.4,0-0.7,0.4-0.6,0.8
			c0,0.3,0.3,0.6,0.6,0.6h1.6v1.6c0.1,0.4,0.4,0.7,0.8,0.6c0.3,0,0.6-0.3,0.6-0.6v-1.6h1.6c0.4,0,0.7-0.4,0.6-0.8
			c0-0.3-0.3-0.6-0.6-0.6h-1.6V44.8z"/>
		<path class="st31" d="M365.1,186.8c0-0.4-0.4-0.7-0.8-0.6c-0.3,0-0.6,0.3-0.6,0.6v1.6h-1.6c-0.4,0.1-0.7,0.4-0.6,0.8
			c0,0.3,0.3,0.6,0.6,0.6h1.6v1.6c0,0.4,0.4,0.7,0.8,0.6c0.3,0,0.6-0.3,0.6-0.6v-1.6h1.6c0.4-0.1,0.7-0.4,0.6-0.8
			c0-0.3-0.3-0.6-0.6-0.6h-1.6V186.8z"/>
		<path class="st31" d="M428.9,296.6c0-0.4-0.2-0.7-0.6-0.8c-0.4,0-0.7,0.2-0.8,0.6c0,0.1,0,0.1,0,0.2v1.6h-1.6
			c-0.4,0-0.7,0.3-0.7,0.7s0.3,0.7,0.7,0.7h1.6v1.6c0,0.4,0.2,0.7,0.6,0.8c0.4,0,0.7-0.2,0.8-0.6c0-0.1,0-0.1,0-0.2v-1.6h1.6
			c0.4,0,0.7-0.3,0.7-0.7s-0.3-0.7-0.7-0.7h-1.6V296.6z"/>
		<path class="st31" d="M97,134.3c0.1-0.4-0.2-0.7-0.6-0.8s-0.7,0.2-0.8,0.6c0,0.1,0,0.1,0,0.2v1.6H94c-0.4,0.1-0.7,0.4-0.6,0.8
			c0,0.3,0.3,0.6,0.6,0.6h1.6v1.6c0.1,0.4,0.4,0.7,0.8,0.6c0.3,0,0.6-0.3,0.6-0.6v-1.6h1.6c0.4-0.1,0.7-0.4,0.6-0.8
			c0-0.3-0.3-0.6-0.6-0.6H97V134.3z"/>
		<path class="st31" d="M176.1,43.8c-0.1-0.4-0.4-0.7-0.8-0.6c-0.3,0-0.6,0.3-0.6,0.6v1.6h-1.6c-0.4,0-0.7,0.3-0.7,0.7
			c0,0.4,0.3,0.7,0.7,0.7h1.6v1.6c-0.1,0.4,0.2,0.7,0.6,0.8s0.7-0.2,0.8-0.6c0-0.1,0-0.1,0-0.2v-1.6h1.6c0.4,0,0.7-0.3,0.7-0.7
			c0-0.4-0.3-0.7-0.7-0.7h-1.6V43.8z"/>
		<path class="st31" d="M97.8,78.6c0-0.4-0.3-0.7-0.7-0.7c-0.4,0-0.7,0.3-0.7,0.7v1.6h-1.6c-0.4,0-0.7,0.3-0.7,0.7v0
			c0,0.4,0.3,0.7,0.7,0.7h1.6v1.6c0,0.4,0.3,0.7,0.7,0.7c0.4,0,0.7-0.3,0.7-0.7l0,0v-1.6h1.6c0.4,0,0.7-0.3,0.7-0.7
			c0-0.4-0.3-0.7-0.7-0.7h-1.6V78.6z"/>
		<path class="st31" d="M27.5,269.9c0-0.4-0.3-0.7-0.7-0.7c-0.4,0-0.7,0.3-0.7,0.7v1.6h-1.6c-0.4,0-0.7,0.2-0.8,0.6
			c0,0.4,0.2,0.7,0.6,0.8c0.1,0,0.1,0,0.2,0h1.6v1.6c0,0.4,0.3,0.7,0.7,0.7c0.4,0,0.7-0.3,0.7-0.7V273h1.6c0.4,0,0.7-0.2,0.8-0.6
			c0-0.4-0.2-0.7-0.6-0.8c-0.1,0-0.1,0-0.2,0h-1.6V269.9z"/>
		<path class="st31" d="M68.7,345c0-0.4-0.3-0.7-0.7-0.7c-0.4,0-0.7,0.3-0.7,0.7l0,0v1.6h-1.6c-0.4,0-0.7,0.3-0.7,0.7
			s0.3,0.7,0.7,0.7h1.6v1.6c0,0.4,0.3,0.7,0.7,0.7c0.4,0,0.7-0.3,0.7-0.7l0,0V348h1.6c0.4,0,0.7-0.3,0.7-0.7s-0.3-0.7-0.7-0.7h-1.6
			V345z"/>
		<path class="st31" d="M282.5,190.9c0-0.4-0.4-0.7-0.8-0.6c-0.3,0-0.6,0.3-0.6,0.6v1.6h-1.6c-0.4,0.1-0.7,0.4-0.6,0.8
			c0,0.3,0.3,0.6,0.6,0.6h1.6v1.6c0,0.4,0.4,0.7,0.8,0.6c0.3,0,0.6-0.3,0.6-0.6V194h1.6c0.4,0.1,0.7-0.2,0.8-0.6s-0.2-0.7-0.6-0.8
			c-0.1,0-0.1,0-0.2,0h-1.6V190.9z"/>
		<path class="st31" d="M174.5,190c0-0.4-0.3-0.7-0.7-0.7s-0.7,0.3-0.7,0.7v1.6h-1.6c-0.4-0.1-0.7,0.2-0.8,0.6s0.2,0.7,0.6,0.8
			c0.1,0,0.1,0,0.2,0h1.6v1.6c0,0.4,0.3,0.7,0.7,0.7s0.7-0.3,0.7-0.7V193h1.6c0.4,0.1,0.7-0.2,0.8-0.6s-0.2-0.7-0.6-0.8
			c-0.1,0-0.1,0-0.2,0h-1.6V190z"/>
		<path class="st31" d="M210,60c0-0.4-0.3-0.7-0.7-0.7s-0.7,0.3-0.7,0.7v1.6H207c-0.4,0-0.7,0.2-0.8,0.6c-0.1,0.4,0.2,0.7,0.6,0.8
			c0.1,0,0.1,0,0.2,0h1.6v1.6c0,0.4,0.3,0.7,0.7,0.7s0.7-0.3,0.7-0.7V63h1.6c0.4,0,0.7-0.3,0.7-0.7c0-0.4-0.3-0.7-0.7-0.7H210V60z"
			/>
		<path class="st30" d="M154.5,48.9c0.1-0.4-0.2-0.7-0.6-0.8s-0.7,0.2-0.8,0.6c0,0.1,0,0.1,0,0.2v1.6h-1.6c-0.4,0-0.7,0.3-0.7,0.7
			c0,0.4,0.3,0.7,0.7,0.7l0,0h1.6v1.6c-0.1,0.4,0.2,0.7,0.6,0.8s0.7-0.2,0.8-0.6c0-0.1,0-0.1,0-0.2v-1.6h1.6c0.4,0,0.7-0.3,0.7-0.7
			c0-0.4-0.3-0.7-0.7-0.7h-1.6V48.9z"/>
		<path class="st30" d="M431.5,327.5c0-0.4-0.3-0.7-0.7-0.7s-0.7,0.3-0.7,0.7v1.6h-1.6c-0.4,0-0.7,0.3-0.7,0.7
			c0,0.4,0.3,0.7,0.7,0.7h1.6v1.6c0,0.4,0.3,0.7,0.7,0.7s0.7-0.3,0.7-0.7l0,0v-1.6h1.6c0.4,0,0.7-0.3,0.7-0.7v0
			c0-0.4-0.3-0.7-0.7-0.7l0,0h-1.6V327.5z"/>
		<path class="st0" d="M365.3,139.5h64.7c2.4,0,4.4,2,4.4,4.4v26c0,2.4-2,4.4-4.4,4.4h-64.7c-2.4,0-4.4-2-4.4-4.4v-26
			C361,141.5,362.9,139.5,365.3,139.5z"/>
		<path class="st41" d="M370,158.9c3.6,0,6.5,2.9,6.5,6.5c0,3.6-2.9,6.5-6.5,6.5s-6.5-2.9-6.5-6.5c0-1.7,0.7-3.4,1.9-4.6
			C366.6,159.5,368.3,158.9,370,158.9z M373.8,161.6c-2.1-2.1-5.5-2.1-7.6,0c-2.1,2.1-2.1,5.5,0,7.6s5.5,2.1,7.6,0
			c1-1,1.6-2.4,1.6-3.8C375.4,164,374.8,162.6,373.8,161.6L373.8,161.6z"/>
		<path class="st41" d="M370,161.6c2.1,0,3.8,1.7,3.8,3.8c0,2.1-1.7,3.8-3.8,3.8c-2.1,0-3.8-1.7-3.8-3.8c0-1,0.4-2,1.1-2.7
			C368,162,369,161.6,370,161.6z M371.9,163.5c-0.5-0.5-1.2-0.8-1.9-0.8c-1.5-0.1-2.7,1-2.8,2.5c-0.1,1.5,1,2.7,2.5,2.8
			c0.1,0,0.2,0,0.3,0c0.7,0,1.4-0.3,1.9-0.8C372.9,166.2,372.9,164.6,371.9,163.5C371.9,163.5,371.9,163.5,371.9,163.5z"/>
		<path class="st41" d="M370,166.6c0.6,0,1.2-0.5,1.2-1.2s-0.5-1.2-1.2-1.2s-1.2,0.5-1.2,1.2v0C368.9,166,369.4,166.5,370,166.6z"/>
		<path class="st46" d="M367,143.2h61.5c0.5,0,0.8,0.4,0.8,0.8l0,0c0,0.4-0.4,0.8-0.8,0.8H367c-0.5,0-0.8-0.4-0.8-0.8l0,0
			C366.1,143.5,366.5,143.2,367,143.2z"/>
		<path class="st46" d="M367,148.1h61.5c0.5,0,0.8,0.4,0.8,0.8l0,0c0,0.4-0.4,0.8-0.8,0.8H367c-0.5,0-0.8-0.4-0.8-0.8l0,0
			C366.1,148.5,366.5,148.1,367,148.1z"/>
		<path class="st46" d="M367,153.1h61.5c0.5,0,0.8,0.4,0.8,0.8l0,0c0,0.4-0.4,0.8-0.8,0.8H367c-0.5,0-0.8-0.4-0.8-0.8l0,0
			C366.1,153.4,366.5,153.1,367,153.1z"/>
		<path class="st46" d="M380.9,158h47.5c0.5,0,0.8,0.4,0.8,0.8l0,0c0,0.4-0.4,0.8-0.8,0.8h-47.5c-0.5,0-0.8-0.4-0.8-0.8l0,0
			C380.1,158.4,380.4,158,380.9,158z"/>
		<path class="st1" d="M380.9,163.2h47.5c0.4,0,0.8,0.4,0.8,0.8l0,0c0,0.4-0.4,0.8-0.8,0.8h0h-47.5c-0.4,0-0.8-0.4-0.8-0.8v0l0,0
			C380.1,163.5,380.4,163.2,380.9,163.2z"/>
		<path class="st1" d="M380.9,168.3h47.5c0.4,0,0.8,0.4,0.8,0.8v0l0,0c0,0.4-0.4,0.8-0.8,0.8h-47.5c-0.4,0-0.8-0.4-0.8-0.8l0,0
			C380.1,168.7,380.4,168.3,380.9,168.3C380.9,168.3,380.9,168.3,380.9,168.3z"/>
	</g>
</g>
<g id="g10" transform="matrix(0.1,0,0,-0.1,-39.16198,371.06488)">
	<path id="path2" class="st47" d="M4970.8,2839.6c-3.3-1-7.8-2.7-10-3.8c-2.4-1.3-34.2-32.4-80.4-78.8c-70.1-70.3-76.6-77.1-79-82.6
		c-1.4-3.3-3.1-8.7-3.8-12.1c-1.1-5.2-1-7,0.5-13.1c1-3.8,3-9.1,4.6-11.9c2-3.4,25.4-27.3,74.8-76.3c39.7-39.2,73.9-72.5,76.1-74.1
		c8.2-5.6,19.5-7.6,28.7-5.2c11.5,3,14.4,5,37.9,28.7l22.4,22.4l-28.2,27.9c-15.6,15.4-28.5,27.9-28.8,27.9c-0.2,0-2.8-2.3-5.8-5.1
		l-5.4-5.1l-39.7,39.5l-39.6,39.6l21,21.1c11.5,11.6,30.7,31,42.7,43.2l21.6,22.1l5.8-5.7l5.8-5.8l28.4,28.4l28.3,28.3l-22.8,22.8
		c-13.3,13.1-24.6,23.5-27,24.7c-4.9,2.5-15.2,5.2-19.1,5.1C4978.1,2841.4,4974.1,2840.6,4970.8,2839.6L4970.8,2839.6z"/>
	<path id="path4" class="st47" d="M5124.4,2839.7c-3.3-1-7.6-2.6-9.5-3.6s-13.8-12.1-26.4-24.5l-22.8-22.8l27.8-27.8
		c15.4-15.4,28.3-27.9,28.8-27.9s3.3,2.3,6.2,5l5.4,5.1l4.7-4.6l4.7-4.6l28.4,28.4l28.4,28.4l-20.4,20.4
		c-11.1,11.3-22.3,21.7-24.8,23.4C5146.1,2840.6,5134,2842.6,5124.4,2839.7L5124.4,2839.7z"/>
	<path id="path6" class="st47" d="M5028.5,2751.6l-28.6-28.6l58.2-58.2l58.2-58.2l15.4,15.4c18.2,18.1,21.7,22.9,24.4,33.9
		c1.9,7.2,2,8.9,0.9,14.4c-2.6,13.8-2.2,13.3-52.5,63.7c-25.5,25.5-46.6,46.4-46.9,46.4C5057.3,2780.3,5044.3,2767.4,5028.5,2751.6
		L5028.5,2751.6z"/>
	<path id="path8" class="st47" d="M5230.9,2702.9l-28.1-28.1l5.2-5.2l5.1-5.3l-42.4-43.1l-42.4-43l-68,67.9
		c-37.5,37.4-68.4,67.9-68.8,67.9c-1.5,0-32.1-31.6-34.8-35.9c-1.5-2.4-3.7-8-4.8-12.4c-1.7-7-1.9-8.8-0.9-14.3
		c2.8-14.6,0.4-11.9,79.9-90.7c44.5-44,74.6-73.1,77.5-74.8c2.5-1.5,7.8-3.4,11.8-4.4c6-1.5,7.9-1.5,13.1-0.5
		c14.4,3,10.4-0.5,93.6,82.8c81.6,81.8,79.5,79.4,83.3,93.4c1.6,5.8,1.7,7.4,0.5,12.9c-2.6,12.9-4.5,15.6-28,39.3
		c-12,11.9-22.2,21.8-22.8,21.8C5259.5,2731.1,5246.3,2718.4,5230.9,2702.9L5230.9,2702.9z"/>
	<g id="text2945" transform="scale(1,-1)">
		<path id="path119" class="st48" d="M5429-2744.9c-1.9-8.3-6.6-14.1-14.1-17.4c-4.2-1.8-8.8-2.7-13.9-2.7
			c-9.8,0-17.8,3.7-24.1,11.1c-6.3,7.4-9.4,18.5-9.4,33.3c0,14.9,3.4,25.5,10.2,31.7s14.6,9.3,23.3,9.3c8.5,0,15.5-2.4,20.9-7.3
			c5.4-4.9,8.8-11.4,10.1-19.4h-28.1v-20.3h50.6v65.2h-16.8l-2.6-15.2c-4.9,5.8-9.3,9.8-13.2,12.2c-6.7,4.1-15,6.2-24.7,6.2
			c-16.1,0-29.3-5.6-39.6-16.7c-10.7-11.2-16.1-26.5-16.1-46c0-19.7,5.4-35.4,16.2-47.3s25.1-17.8,43-17.8
			c15.4,0,27.8,3.9,37.2,11.8c9.4,7.8,14.8,17.6,16.2,29.3L5429-2744.9L5429-2744.9z"/>
		<path id="path121" class="st48" d="M5504-2761.8v32.6h28.8c5.7,0,10-0.7,12.9-2c5.1-2.3,7.6-6.9,7.6-13.7c0-7.4-2.5-12.3-7.3-14.8
			c-2.8-1.4-6.9-2.1-12.4-2.1L5504-2761.8L5504-2761.8z M5538.8-2782.9c8.5,0.2,15.1,1.2,19.6,3.1c4.6,1.9,8.5,4.8,11.7,8.5
			c2.6,3.1,4.7,6.5,6.3,10.2c1.5,3.7,2.3,8,2.3,12.8c0,5.8-1.5,11.5-4.4,17.1c-2.9,5.6-7.7,9.5-14.4,11.8c5.6,2.3,9.6,5.5,11.9,9.6
			c2.4,4.1,3.5,10.4,3.5,19v8.2c0,5.6,0.2,9.3,0.7,11.3c0.7,3.1,2.2,5.4,4.6,6.9v3.1h-28c-0.8-2.7-1.3-4.9-1.6-6.5
			c-0.7-3.4-1-6.9-1.1-10.5l-0.2-11.3c-0.1-7.8-1.5-12.9-4.3-15.5c-2.7-2.6-7.8-3.9-15.3-3.9H5504v47.6h-24.8v-121.5L5538.8-2782.9z
			"/>
		<path id="path123" class="st48" d="M5633.8-2707.3h30.8l-15.2-47.8L5633.8-2707.3z M5635.4-2782.9h28.7l43,121.5h-27.5l-7.8-25
			H5627l-8.4,25H5592L5635.4-2782.9z"/>
		<path id="path125" class="st48" d="M5717.2-2721.1c0-21.2,5.7-37.6,17.1-49.1c9.9-10,22.5-15,37.8-15c20.4,0,35.4,6.7,44.9,20.1
			c5.2,7.5,8,15.1,8.4,22.7h-25.4c-1.6-5.8-3.8-10.2-6.4-13.2c-4.6-5.3-11.5-7.9-20.5-7.9c-9.2,0-16.5,3.7-21.9,11.2
			c-5.3,7.4-8,17.9-8,31.6s2.8,23.9,8.4,30.7c5.7,6.8,12.8,10.1,21.5,10.1c8.9,0,15.7-2.9,20.4-8.7c2.6-3.1,4.7-7.8,6.4-14.1h25.1
			c-2.2,13.3-7.8,24-16.9,32.3c-9,8.3-20.6,12.4-34.7,12.4c-17.5,0-31.2-5.6-41.2-16.8C5722.2-2686,5717.2-2701.5,5717.2-2721.1
			L5717.2-2721.1z"/>
		<path id="path127" class="st48" d="M5844.4-2782.9h25.8v74.7c0,8.4,1,14.4,3,18.3c3.1,6.8,9.8,10.2,20.1,10.2
			c10.3,0,17-3.4,20-10.2c2-3.9,3-9.9,3-18.3v-74.7h25.8v74.7c0,12.9-2,23-6,30.2c-7.5,13.2-21.7,19.8-42.8,19.8
			c-21,0-35.3-6.6-42.9-19.8c-4-7.2-6-17.3-6-30.2L5844.4-2782.9L5844.4-2782.9z"/>
		<path id="path129" class="st48" d="M5991.8-2761.8v32.6h28.8c5.7,0,10-0.7,12.9-2c5.1-2.3,7.6-6.9,7.6-13.7
			c0-7.4-2.5-12.3-7.3-14.8c-2.8-1.4-6.9-2.1-12.4-2.1L5991.8-2761.8L5991.8-2761.8z M6026.5-2782.9c8.5,0.2,15.1,1.2,19.6,3.1
			c4.6,1.9,8.5,4.8,11.7,8.5c2.6,3.1,4.7,6.5,6.3,10.2c1.5,3.7,2.3,8,2.3,12.8c0,5.8-1.5,11.5-4.4,17.1c-2.9,5.6-7.7,9.5-14.4,11.8
			c5.6,2.3,9.6,5.5,11.9,9.6c2.4,4.1,3.5,10.4,3.5,19v8.2c0,5.6,0.2,9.3,0.7,11.3c0.7,3.1,2.2,5.4,4.6,6.9v3.1h-28
			c-0.8-2.7-1.3-4.9-1.6-6.5c-0.7-3.4-1-6.9-1.1-10.5l-0.2-11.3c-0.1-7.8-1.5-12.9-4.3-15.5c-2.7-2.6-7.8-3.9-15.3-3.9h-26.2v47.6
			h-24.8v-121.5L6026.5-2782.9z"/>
		<path id="path131" class="st48" d="M6178.1-2761.3h-64.3v25.8h59v21.1h-59v31.2h67.3v21.9H6089v-121.5h89.1L6178.1-2761.3
			L6178.1-2761.3z"/>
	</g>
	<g id="text22706" transform="scale(1,-1)">
		<g id="text3478">
			<path id="path13734" class="st49" d="M5342.4-2625.9h17.5c2.8,0,5.4,0.3,7.8,0.9c2.4,0.6,4.5,1.5,6.2,2.8c1.7,1.3,3.1,3,4.1,5.1
				c1,2.1,1.5,4.6,1.5,7.5c0,5.7-1.9,10-5.6,13.1c-3.7,3-9,4.5-15.8,4.5h-6.1v19.9h-9.4L5342.4-2625.9L5342.4-2625.9z
				 M5351.8-2617.5v17.1h5.8c3.6,0,6.5-0.7,8.6-2.1c2.2-1.4,3.3-3.8,3.3-7c0-2.9-1-4.9-3.1-6.1s-4.9-1.8-8.4-1.8H5351.8z"/>
			<path id="path13736" class="st49" d="M5388.3-2572v-53.8h9.3v22.4h26.4v-22.4h9.3v53.8h-9.3v-23.4h-26.4v23.4H5388.3z"/>
			<path id="path13738" class="st49" d="M5459-2625.9l9.7-0.4l20.7,54.2l-9.9,0.5l-5.8-15.8h-19.5l-5.4,15.2h-10.1L5459-2625.9z
				 M5470.9-2595.3l-3.9-10.8l-3.1-9.8l-3.1,9.8l-3.8,10.9L5470.9-2595.3L5470.9-2595.3z"/>
			<path id="path13740" class="st49" d="M5494.9-2572v-53.8h17.1c6.5,0,11.4,1.3,14.8,4c3.4,2.6,5.1,6.5,5.1,11.6
				c0,3.7-0.9,6.7-2.8,9.1c-1.8,2.4-4.1,4.2-6.8,5.5l15.5,23.6l-10.6,0.7l-13.7-21.5h-9.2v20.8L5494.9-2572L5494.9-2572z
				 M5504.2-2601h11.3c1.9-0.7,3.4-1.7,4.6-3c1.3-1.3,1.9-3.2,1.9-5.7c0-2.8-1-4.7-3-5.9c-2-1.2-4.7-1.8-8.2-1.8h-6.6L5504.2-2601
				L5504.2-2601z"/>
			<path id="path13742" class="st49" d="M5543.8-2625.9l10.3-0.3l9.5,22.5c1,2.4,2,4.7,2.8,7.1c0.9,2.3,1.8,4.6,2.8,7l5.5-13
				c1.7-3.9,3.5-7.8,5.1-11.6c1.7-3.9,3.4-7.8,5.1-11.7h9.9l1.9,53.8h-9.5l-0.3-23.8c0-2.7,0-5.3,0-7.9c0.1-2.6,0.1-5.2,0.1-7.8
				c-2.5,5.6-4.9,11.2-7.2,16.8c-2.3,5.5-4.6,11.1-7,16.7l-7.4,0.4c-2.4-5.8-4.7-11.6-7.1-17.3c-2.3-5.7-4.7-11.4-7.1-17.3
				c0,2.6,0,5.3,0,7.9c0,2.6,0.1,5.3,0.1,7.9l-0.4,24.5h-8.8c0.3-9.1,0.6-18,0.9-26.9C5543.2-2607.8,5543.5-2616.8,5543.8-2625.9
				L5543.8-2625.9z"/>
			<path id="path13744" class="st49" d="M5621.6-2625.9l9.7-0.4l20.7,54.2l-9.9,0.5l-5.8-15.8h-19.5l-5.4,15.2h-10.1L5621.6-2625.9z
				 M5633.5-2595.3l-3.9-10.8l-3.1-9.8l-3.1,9.8l-3.8,10.9L5633.5-2595.3L5633.5-2595.3z"/>
			<path id="path13746" class="st49" d="M5683.8-2626.6c3.1,0,5.9,0.2,8.5,0.7c2.6,0.5,5,1.1,7.1,1.8l-2.2,8.3
				c-1.8-0.6-3.7-1.1-5.8-1.5c-2.1-0.5-4.3-0.7-6.6-0.7c-2.5,0-5,0.4-7.3,1.2c-2.4,0.8-4.4,2.1-6.2,3.8c-1.7,1.6-3.1,3.7-4.2,6.3
				c-1.1,2.5-1.6,5.5-1.6,9c0,2.9,0.5,5.5,1.5,7.8c1,2.2,2.3,4.1,3.8,5.6c1.6,1.5,3.5,2.7,5.6,3.5c2.1,0.8,4.4,1.1,6.6,1.1
				c2.5,0,4.8-0.3,7.1-1s4.5-1.6,6.7-2.8l3.1,7.5c-2.5,1.5-5.3,2.7-8.2,3.6c-3,0.9-6.3,1.3-10,1.3c-3.9,0-7.5-0.6-10.7-1.8
				c-3.2-1.3-5.9-3.1-8.2-5.4s-4.1-5.1-5.4-8.3c-1.2-3.2-1.8-6.8-1.8-10.8c0-4.5,0.7-8.5,2.1-12.1c1.5-3.6,3.5-6.6,6-9.1
				c2.6-2.5,5.6-4.4,9-5.8C5676.1-2625.9,5679.8-2626.6,5683.8-2626.6z"/>
			<path id="path13748" class="st49" d="M5707.2-2572v-53.8h32.8l-0.5,8.4h-23v13.9h21.5v8.1h-21.5v15h24.6l-0.5,8.5L5707.2-2572
				L5707.2-2572z"/>
			<path id="path13750" class="st49" d="M5749.4-2593.3v-32.6h9.5v32.1c0,2.5,0.3,4.7,0.9,6.5c0.6,1.7,1.5,3.2,2.6,4.3
				s2.5,1.9,4,2.5s3.2,0.8,5.1,0.8c1.8,0,3.4-0.3,4.9-0.9c1.5-0.6,2.8-1.4,3.9-2.6c1.1-1.2,2-2.8,2.6-4.7c0.6-1.9,0.9-4.3,0.9-6.9
				v-31h9.3v31.5c0,3.4-0.4,6.5-1.3,9.4c-0.9,2.8-2.2,5.3-4.1,7.3c-1.8,2-4.1,3.6-6.8,4.7c-2.7,1.1-5.9,1.7-9.7,1.7
				c-3.7,0-7-0.5-9.8-1.5c-2.7-1.1-5-2.6-6.8-4.5c-1.8-1.9-3.1-4.3-4-7C5749.8-2587,5749.4-2590,5749.4-2593.3L5749.4-2593.3z"/>
			<path id="path13752" class="st49" d="M5799.6-2625.9h41.9l-0.5,8.4h-15.9v45.4h-9.4v-45.4h-16.1L5799.6-2625.9L5799.6-2625.9z"/>
			<path id="path13754" class="st49" d="M5847.9-2625.9h9.3v53.8h-9.3V-2625.9z"/>
			<path id="path13756" class="st49" d="M5895.1-2626.6c3.1,0,5.9,0.2,8.5,0.7c2.6,0.5,5,1.1,7.1,1.8l-2.2,8.3
				c-1.8-0.6-3.7-1.1-5.8-1.5s-4.3-0.7-6.6-0.7c-2.5,0-5,0.4-7.3,1.2c-2.4,0.8-4.4,2.1-6.2,3.8c-1.7,1.6-3.1,3.7-4.2,6.3
				c-1.1,2.5-1.6,5.5-1.6,9c0,2.9,0.5,5.5,1.5,7.8c1,2.2,2.3,4.1,3.8,5.6c1.6,1.5,3.5,2.7,5.6,3.5c2.1,0.8,4.4,1.1,6.6,1.1
				c2.5,0,4.8-0.3,7.1-1s4.5-1.6,6.7-2.8l3.1,7.5c-2.5,1.5-5.3,2.7-8.2,3.6c-3,0.9-6.3,1.3-10,1.3c-3.9,0-7.5-0.6-10.7-1.8
				c-3.2-1.3-5.9-3.1-8.2-5.4s-4.1-5.1-5.4-8.3c-1.2-3.2-1.8-6.8-1.8-10.8c0-4.5,0.7-8.5,2.1-12.1c1.5-3.6,3.5-6.6,6-9.1
				c2.6-2.5,5.6-4.4,9-5.8C5887.4-2625.9,5891.1-2626.6,5895.1-2626.6L5895.1-2626.6z"/>
			<path id="path13758" class="st49" d="M5935-2625.9l9.7-0.4l20.7,54.2l-9.9,0.5l-5.8-15.8h-19.5l-5.4,15.2h-10.1L5935-2625.9z
				 M5946.8-2595.3l-3.9-10.8l-3.1-9.8l-3.1,9.8l-3.8,10.9L5946.8-2595.3L5946.8-2595.3z"/>
			<path id="path13760" class="st49" d="M5970.8-2625.9h9.3v45.4h23.8l-0.5,8.5h-32.7V-2625.9z"/>
			<path id="path13762" class="st49" d="M6009.8-2583c2,0.9,4,1.6,6.3,2.3c2.3,0.7,4.6,1,7.1,1c1.5,0,2.9-0.1,4.1-0.4
				c1.3-0.3,2.5-0.7,3.5-1.3c1-0.6,1.7-1.4,2.3-2.2c0.6-0.9,0.9-2,0.9-3.2c0-1.2-0.3-2.2-0.9-3c-0.5-0.8-1.3-1.5-2.2-2.1
				c-1-0.7-2.1-1.3-3.4-1.8s-2.7-1.1-4.1-1.6c-1.8-0.7-3.6-1.4-5.4-2.2c-1.8-0.9-3.4-1.9-4.8-3.1c-1.4-1.2-2.5-2.7-3.5-4.5
				c-0.9-1.7-1.3-3.8-1.3-6.3c0-2.4,0.5-4.6,1.4-6.5c1-1.9,2.3-3.5,3.8-4.8c1.6-1.3,3.4-2.3,5.5-2.9c2.1-0.7,4.3-1,6.6-1
				c3.2,0,6.1,0.2,8.7,0.7c2.6,0.4,5.3,1.2,8.1,2.3l-2.4,8.1c-2.3-0.9-4.5-1.5-6.6-2c-2-0.5-4.4-0.8-7.1-0.8c-2.5,0-4.5,0.6-6.1,1.7
				c-1.5,1.1-2.3,2.5-2.3,4.3c0,1.2,0.3,2.3,0.8,3.1c0.6,0.9,1.3,1.6,2.2,2.3c0.9,0.6,2,1.2,3.2,1.7c1.3,0.5,2.6,1,4,1.5
				c1.9,0.7,3.8,1.4,5.6,2.2s3.5,1.8,4.9,3c1.5,1.2,2.7,2.6,3.5,4.3c0.9,1.6,1.4,3.7,1.4,6.1c0,2.8-0.5,5.2-1.5,7.3
				c-1,2.1-2.4,3.8-4.1,5.1c-1.7,1.4-3.8,2.4-6.3,3.1s-5.1,1.1-8.1,1.1c-3.7,0-6.9-0.4-9.5-1.2c-2.7-0.8-5.1-1.8-7.2-2.9
				L6009.8-2583z"/>
			<path id="path13764" class="st49" d="M6069.9-2625.9h9.3v45.4h23.8l-0.5,8.5h-32.7V-2625.9z"/>
			<path id="path13766" class="st49" d="M6098.8-2625.9h41.9l-0.5,8.4h-15.9v45.4h-9.4v-45.4h-16.1L6098.8-2625.9L6098.8-2625.9z"/>
			<path id="path13768" class="st49" d="M6147.1-2625.9h14.9c4.9,0,9.2,0.6,13,1.7c3.8,1.1,7,2.7,9.7,4.9c2.7,2.1,4.7,4.9,6.1,8.1
				c1.4,3.3,2.1,7.1,2.1,11.4c0,4.3-0.7,8.1-2.1,11.5s-3.4,6.4-6,8.8c-2.6,2.4-5.7,4.2-9.3,5.5c-3.6,1.3-7.6,1.9-11.9,1.9h-16.4
				L6147.1-2625.9L6147.1-2625.9z M6156.4-2617.5v37.1h6.4c3.2,0,6-0.5,8.5-1.4c2.5-1,4.6-2.3,6.3-4c1.7-1.7,3.1-3.8,4-6.1
				c0.9-2.4,1.4-4.9,1.4-7.7c0-5.7-1.8-10.1-5.5-13.2c-3.6-3.1-8.8-4.7-15.7-4.7L6156.4-2617.5z"/>
			<path id="path13770" class="st49" d="M6197-2577c0-1.7,0.5-3.1,1.6-4.2c1.1-1.1,2.6-1.7,4.4-1.7c1.5,0,2.8,0.5,3.9,1.6
				c1.2,1,1.8,2.4,1.8,4c0,1.8-0.6,3.3-1.7,4.4c-1.1,1.1-2.6,1.6-4.4,1.6c-1.4,0-2.7-0.5-3.9-1.6C6197.6-2574,6197-2575.3,6197-2577
				L6197-2577z"/>
		</g>
	</g>
</g>
<g class="st50">
	<path class="st51" d="M342.6,83.5l-8.4-49.2h10l2.4,19.6c0.7,5.6,1.1,11.2,1.7,17.2h0.2c0.7-6.1,1.8-11.4,2.8-17.3l3.5-19.6h7.8
		l3.3,19.4c0.9,5.5,1.8,11,2.3,17.4h0.1c0.7-6.4,1.2-11.7,1.9-17.4l2.4-19.5h9.4l-8.7,49.2h-9.9l-2.9-16.1
		c-0.8-4.5-1.5-10.1-2.2-16.1h-0.1c-0.9,5.9-1.7,11.4-2.7,16.2l-3.3,16.1H342.6z"/>
	<path class="st51" d="M408.2,61.9h-11.3v13.3h12.8v8.3h-22.4V34.3h21.5v8.3h-11.9v11.3h11.3V61.9z"/>
	<path class="st51" d="M416.2,34.3h9.6v41.1h12.7v8.1h-22.3V34.3z"/>
	<path class="st51" d="M465.8,82.7c-1.4,0.7-4.1,1.2-7.5,1.2c-12.6,0-18.6-10.4-18.6-24.3c0-18.5,10.3-25.8,20-25.8
		c3.4,0,5.7,0.7,6.7,1.3l-1.6,8c-1.1-0.5-2.3-0.9-4.5-0.9c-5.4,0-10.3,4.7-10.3,16.9c0,11.8,4.5,16.3,10.3,16.3
		c1.6,0,3.4-0.4,4.6-0.7L465.8,82.7z"/>
	<path class="st51" d="M499.4,58c0,18.5-6.6,26.1-16,26.1c-11.2,0-15.6-11.8-15.6-25.3c0-13.4,5.4-25,16.3-25
		C496,33.7,499.4,46.8,499.4,58z M477.8,58.9c0,11.2,2.1,16.9,6,16.9c4,0,5.6-7.3,5.6-17.3c0-8.6-1.3-16.4-5.7-16.4
		C479.9,42,477.8,48.3,477.8,58.9z"/>
	<path class="st51" d="M535.7,66.2c-0.2-4.7-0.6-11-0.4-16.3h-0.2c-0.9,5.3-2.2,11.3-3.2,15.1l-4.3,17.6h-6.8l-4.1-17.3
		c-1-3.9-2.3-10.1-3-15.4h-0.2c-0.1,5.3-0.4,11.5-0.7,16.4L512,83.5h-8.3l3.6-49.2h10.1l4,17.8c1.4,6.2,2.6,11.7,3.5,17.2h0.1
		c0.7-5.5,1.8-11,3.2-17.2l3.9-17.8h10.1l3,49.2h-8.6L535.7,66.2z"/>
	<path class="st51" d="M573.2,61.9h-11.3v13.3h12.8v8.3h-22.4V34.3h21.5v8.3h-11.9v11.3h11.3V61.9z"/>
	<path class="st51" d="M580.1,78.2c0-3.6,2.6-5.9,5.5-5.9c3.2,0,5.5,2.3,5.5,5.9c0,3.4-2.1,5.8-5.4,5.8
		C582.5,84.1,580.1,81.6,580.1,78.2z M581.5,67.5l-1.1-33.2h10.5l-1.2,33.2H581.5z"/>
</g>
<g class="st50">
	<path class="st47" d="M339.7,79.1l-8.4-49.2h10l2.4,19.6c0.7,5.6,1.1,11.2,1.7,17.2h0.2c0.7-6.1,1.8-11.4,2.8-17.3l3.5-19.6h7.8
		l3.3,19.4c0.9,5.5,1.8,11,2.3,17.4h0.1c0.7-6.4,1.2-11.7,1.9-17.4l2.4-19.5h9.4l-8.7,49.2h-9.9L357.6,63
		c-0.8-4.5-1.5-10.1-2.2-16.1h-0.1c-0.9,5.9-1.7,11.4-2.7,16.2l-3.3,16.1H339.7z"/>
	<path class="st47" d="M405.3,57.5H394v13.3h12.8v8.3h-22.4V29.9h21.5v8.3H394v11.3h11.3V57.5z"/>
	<path class="st47" d="M413.3,29.9h9.6V71h12.7v8.1h-22.3V29.9z"/>
	<path class="st47" d="M462.9,78.4c-1.4,0.7-4.1,1.2-7.5,1.2c-12.6,0-18.6-10.4-18.6-24.3c0-18.5,10.3-25.8,20-25.8
		c3.4,0,5.7,0.7,6.7,1.3l-1.6,8c-1.1-0.5-2.3-0.9-4.5-0.9c-5.4,0-10.3,4.7-10.3,16.9c0,11.8,4.5,16.3,10.3,16.3
		c1.6,0,3.4-0.4,4.6-0.7L462.9,78.4z"/>
	<path class="st47" d="M496.5,53.6c0,18.5-6.6,26.1-16,26.1c-11.2,0-15.6-11.8-15.6-25.3c0-13.4,5.4-25,16.3-25
		C493.1,29.3,496.5,42.4,496.5,53.6z M474.9,54.5c0,11.2,2.1,16.9,6,16.9c4,0,5.6-7.3,5.6-17.3c0-8.6-1.3-16.4-5.7-16.4
		C477,37.6,474.9,43.9,474.9,54.5z"/>
	<path class="st47" d="M532.8,61.9c-0.2-4.7-0.6-11-0.4-16.3h-0.2c-0.9,5.3-2.2,11.3-3.2,15.1l-4.3,17.6h-6.8L513.8,61
		c-1-3.9-2.3-10.1-3-15.4h-0.2c-0.1,5.3-0.4,11.5-0.7,16.4l-0.8,17.1h-8.3l3.6-49.2h10.1l4,17.8c1.4,6.2,2.6,11.7,3.5,17.2h0.1
		c0.7-5.5,1.8-11,3.2-17.2l3.9-17.8h10.1l3,49.2h-8.6L532.8,61.9z"/>
	<path class="st47" d="M570.3,57.5H559v13.3h12.8v8.3h-22.4V29.9h21.5v8.3H559v11.3h11.3V57.5z"/>
	<path class="st47" d="M577.2,73.8c0-3.6,2.6-5.9,5.5-5.9c3.2,0,5.5,2.3,5.5,5.9c0,3.4-2.1,5.8-5.4,5.8
		C579.6,79.7,577.2,77.2,577.2,73.8z M578.5,63.1l-1.1-33.2h10.5l-1.2,33.2H578.5z"/>
</g>
</svg>
